<svg id="Layer_1" data-name="Layer 1" xmlns="http://www.w3.org/2000/svg" viewBox="0 0 216 216"><title>Artboard 3</title>
<g id="_402oYc.tif" data-name="402oYc.tif">
<path d="M119.85,149.81H82.63c-4.94,0-5.39-.31-6.8-5.18Q63.82,103.33,51.92,62c-.76-2.66-1.82-3.62-4.6-3.46-4.38.25-8.79.11-13.19,0-3.31,0-5.08-1.54-5.08-4.12s1.91-4.15,5.11-4.18c6.32-.06,12.63,0,18.95,0a4.77,4.77,0,0,1,5.13,3.93C59.43,58.65,61,63,62,67.5c.73,3.25,2.05,4.38,5.62,4.37,34.62-.17,69.25-.11,103.87-.1.9,0,1.81,0,2.71,0a3.92,3.92,0,0,1,3.6,2.62,3.47,3.47,0,0,1-.89,4.32c-1.73,1.27-2.16,3-2.77,4.83q-6.22,18.36-12.45,36.71a7.14,7.14,0,0,0-.41,4.54c.66,2.38-.77,4.12-3.21,4.64a19.6,19.6,0,0,1-4,.24H84c-3.9,0-3.9,0-2.78,3.83,2.36,8,2.36,8,10.88,8h65a13.83,13.83,0,0,1,3.36.2,3.86,3.86,0,0,1,3.17,4.51,3.59,3.59,0,0,1-3.81,3.52c-3.72.1-7.44.05-11.16.06ZM76.43,80c-2.7,0-5.41.08-8.11,0-2-.08-2.62.43-1.94,2.5,1.26,3.84,2.38,7.73,3.38,11.64.44,1.75,1.28,2.31,3,2.26,4.5-.11,9-.14,13.51,0,2.39.08,2.81-.72,2.33-2.95a72.76,72.76,0,0,1-1-8C87.1,80,87.12,80,81.83,80Zm75.8,16.34c2.14,0,4.28-.08,6.41,0,1.68.08,2.63-.37,3.16-2.16,1.17-4,2.54-7.91,4-11.81.62-1.69.57-2.46-1.53-2.43-5.51.08-11,.06-16.55,0-1.45,0-2.28.31-2.44,2q-.56,6-1.45,12c-.26,1.76.12,2.47,2,2.36C147.94,96.26,150.09,96.36,152.22,96.36ZM129,80c-2.14,0-4.28.09-6.41,0-1.77-.1-2.41.59-2.33,2.34.1,2.36,0,4.72,0,7.08,0,7,0,7,6.78,7,8.16,0,8.16,0,9.19-8.14S137.33,80,129,80ZM81.47,104.72c-2.14,0-4.28.08-6.41,0-1.85-.09-2,.7-1.56,2.22.88,2.78,1.66,5.59,2.48,8.38,1.77,6,1.77,6.11,7.87,6,2.66,0,6.18,1.21,7.75-.57,1.35-1.53-.18-4.87-.48-7.41C90.1,104.72,90.14,104.72,81.47,104.72ZM104,80c-2,0-4.05.08-6.07,0s-2.91.3-2.35,2.63a52.57,52.57,0,0,1,.92,7c.7,6.74.68,6.74,7.27,6.74,8.3,0,8.3,0,8.3-8.4C112.06,80,112.06,80,104,80Zm46.38,24.71c-1.8,0-3.61.14-5.39,0-2.11-.21-2.74.84-2.94,2.67-.44,3.9-1,7.79-1.46,11.68-.18,1.39,0,2.2,1.78,2.36,9.92.84,9.92.9,13-8.48.07-.21.16-.42.23-.63C158.26,104.72,158.26,104.72,150.35,104.72Zm-30,8.45c0,8.22,0,8.22,8.24,8.18a12.23,12.23,0,0,1,1.35,0c1.76.19,2.3-.67,2.44-2.34.24-2.91.67-5.8,1.11-8.68.86-5.61.89-5.61-4.8-5.61C120.33,104.72,120.33,104.72,120.33,113.17Zm-8.27-.11c0-2-.1-4,0-6.06.11-1.77-.56-2.37-2.3-2.31-3,.1-6.06.11-9.09,0-1.86-.07-2.34.67-2.1,2.39.52,3.66,1.06,7.32,1.37,11,.21,2.46,1.09,3.37,3.73,3.33C112.06,121.3,112.06,121.42,112.06,113.06Z"/><path d="M145.32,155.53a11.2,11.2,0,0,1,11.06,11.29c-.11,6.1-5.45,11.3-11.36,11a11.39,11.39,0,0,1-11.08-11.37A11.19,11.19,0,0,1,145.32,155.53Z"/><path d="M83.59,166.65a11.2,11.2,0,0,1,22.4,0c0,6-5.36,11.38-11.22,11.24A11.37,11.37,0,0,1,83.59,166.65Z"/></g></svg>