<svg id="Layer_1" data-name="Layer 1" xmlns="http://www.w3.org/2000/svg" viewBox="0 0 216 216"><title>Artboard 1</title><g id="mtkwMh.tif"><path d="M98.64,181.88a9,9,0,0,1-2.46-1.54c-3.6-4.45-6.94-5.75-11.86-1.14-2.83,2.66-6.82,1.41-9.56-1.61-8.68-9.53-17.37-19.05-25.94-28.68-3.21-3.61-3.4-7.53.13-11.15,3.13-3.2,4.15-7,4-11.37-.25-10.31-.16-20.63-.37-30.94-.11-5,1.53-8.94,6.11-11.29s9-1.36,12.49,2.22c1.93,2,3,1.38,4.87,0,5-3.59,10.17-3.31,14.45,1.19,2.17,2.28,3.37,1.68,5.22-.09,4-3.84,8.13-7.56,12.26-11.27,5.93-5.33,10.42-5.67,16.88-.78,1.92,1.45,2.77,1,4.48-.07,5.87-3.69,10.63-3.14,15.4,1.79,1.4,1.44,2.31,1.91,4.46,1.48,9.59-1.91,15.1,2.79,14.52,12.35a4.32,4.32,0,0,0,2,4.39c2.48,1.85,4.77,4.81,4,7.56-1.81,6.09.09,10.83,2.84,16,2,3.85,0,7.85-3.1,10.67-13.37,12.12-26.74,24.23-40.34,36.09A40.83,40.83,0,0,1,118,172.55a77.62,77.62,0,0,0-17,9.32ZM82.4,91.3c-3.34.57-4,2.83-3.87,5.71.29,9.52.29,19.05.79,28.56.33,6.23-.81,11.86-4.86,16.65-1.41,1.67-1.61,2.74,0,4.44,7.79,8.47,15.45,17.06,23.16,25.6.92,1,1.87,2.37,3.44,1.17,7.75-5.93,18-7.3,25.3-14.14,12.18-11.37,24.66-22.42,37-33.62,2.17-2,4.25-4.12,1.33-6.93s-5-.75-7.14,1.24q-6.11,5.66-12.33,11.21c-2.06,1.84-4.39,4.4-7,1.39-2.35-2.69.18-4.67,2.09-6.43q9.43-8.65,18.89-17.27c2.18-2,5.14-4,2.23-7.34-3.06-3.46-5.2-.23-7.4,1.57-.61.5-1.17,1.07-1.76,1.61l-18.54,16.77c-1.86,1.68-3.85,2.26-5.66.07-1.62-2-.66-3.71.9-5.21s3.18-3,4.79-4.47c7-6.46,14-12.9,21-19.4,1.68-1.57,3-3.46,1.08-5.69s-4.14-1.92-6.22-.08c-1.79,1.57-3.54,3.18-5.3,4.78q-9.69,8.81-19.37,17.62c-1.89,1.71-4,3.07-6.18.66-2.32-2.57-.19-4.29,1.56-5.95,1-1,2.07-1.85,3.1-2.78q7.28-6.59,14.55-13.19c1.89-1.73,3.35-3.74,1.12-6.1-2-2.15-4.28-1.51-6.33.2-.91.76-1.76,1.6-2.64,2.4-8.94,8.16-17.79,16.42-26.85,24.43-6.06,5.36-12.92,3.2-15-4.56a86.13,86.13,0,0,1-1.62-8.75C86.18,93,84.93,91.49,82.4,91.3Zm-23,21.29h.21c0,1,0,2,0,3-.14,9.32,2.51,19.17-5.3,27-1.44,1.45.39,2.46,1.22,3.39,7.52,8.41,15.16,16.72,22.59,25.21,2,2.27,3.22,1.78,5.3.18,2.59-2,1.08-3.13-.29-4.64-4.92-5.43-9.75-10.93-14.68-16.35-3.64-4-4.11-8-.13-12,3-3,3.22-6.72,3.72-10.8,1.41-11.53-2.55-22.1-4.62-33-.46-2.41-1.62-4.26-4.18-4.15-2.9.13-3.9,2.18-3.87,5C59.47,101.11,59.43,106.85,59.43,112.6Zm37.7-8.43a8.2,8.2,0,0,0,1.38-.85q10.56-9.51,21.09-19a2.24,2.24,0,0,0,.21-3.58c-1.41-1.54-3.42-1.87-4.81-.66-6.7,5.82-13.24,11.83-19.75,17.85-1.64,1.51-.27,3.34,0,5C95.42,103.75,96.1,104.16,97.13,104.17Z"/><path d="M180.8,56.85c-5.11,2.46-10.25,4.85-15.32,7.39-2.28,1.15-4.19,1.14-5.55-1.18-1.5-2.58.12-4.09,2.22-5.11,4.24-2,8.58-3.87,12.8-5.94,2.4-1.18,4.11-.13,5.84,1.26Z"/><path d="M152.74,55.81c-2.66-.55-3.49-2.41-2.57-5.15,1.57-4.65,3.13-9.3,4.89-13.89.77-2,2.41-3.28,4.69-2.34a3.33,3.33,0,0,1,2,4.4q-2.52,7.53-5.32,15C155.88,55.17,154.66,55.91,152.74,55.81Z"/><path d="M143.79,52.21c0,2.36-.88,3.62-2.45,4.3a2.75,2.75,0,0,1-3.69-.94c-2.75-5-5.4-10.05-7.88-15.19-.76-1.57.1-3.08,1.63-4s3.37-.68,4.2.75C138.56,42.22,141.25,47.47,143.79,52.21Z"/></g></svg>