<svg id="Layer_1" data-name="Layer 1" xmlns="http://www.w3.org/2000/svg" viewBox="0 0 216 216"><title>Artboard 2</title><g id="_5Pqd0c.tif" data-name="5Pqd0c.tif"><path d="M44.08,116c1.09-.75,2.09-1.91,3.29-2.18,14.28-3.21,25.33-12.06,36.54-20.68C89.35,89,95,85,100.52,81c1.52-1.12,3.47-2.13,3-4.43-.81-4.34,1.82-5.68,5.25-6.69,4-1.18,8-2.56,12-3.91,3.56-1.22,5.91-.16,7.09,3.48q11.44,35.36,22.91,70.71c1.23,3.79.13,6.23-3.86,7.38-3.66,1.05-7.25,2.33-10.86,3.57s-6.6,1.88-9.37-2.25c-2.45-3.65-7.26-2.26-9.93,2.29-5.09,8.67-13.72,11.95-22.36,8.49-3.86-1.54-7.35-3.91-8.76-7.77-2-5.42-5.95-5.46-10.19-4.52a115.21,115.21,0,0,0-13.1,4c-5,1.75-7.73.37-9.32-4.9-2.64-8.72-5.92-17.24-8.93-25.85Zm56.46,22.86v0c6.3,0,12.6-.06,18.9,0,2.9,0,4.29-.52,3.16-3.94-4.91-14.83-9.67-29.72-14.39-44.61-1-3.14-2.3-3.29-4.81-1.38-6.52,5-13.25,9.68-19.76,14.67C79.26,107,72.88,109.15,71.05,114s2.62,10.37,3.94,15.69c.37,1.48,1,2.9,1.31,4.38.77,3.54,2.74,5,6.49,4.83C88.69,138.66,94.62,138.86,100.54,138.86Zm17.06-63c-1.7.76-5.52.13-4.11,4.51,6.41,19.92,12.9,39.81,19.3,59.74.95,3,2.78,2.51,4.92,1.69s4.69-1,3.55-4.46Q131.67,108,122.19,78.69C121.54,76.68,120.55,75.23,117.6,75.82Zm-48.42,62.3c-2.11-6-4.1-12.31-6.62-18.43-1.08-2.63-3.56-1.07-5.51-.51s-3.57,1.56-2.78,4c1.85,5.78,3.79,11.53,5.64,17.32.74,2.33,2.4,2.26,4.07,1.49C65.85,141.14,68.8,141.69,69.18,138.12Zm31.55,8.94c-2.06.36-4.67-.82-6.83.68-.89.62,0,1.75.69,2.39a9.08,9.08,0,0,0,8.48,2.13c2.19-.54,5.28-1.27,5-3.8-.34-2.77-3.48-.83-5.29-1.37A8.46,8.46,0,0,0,100.73,147.07Z"/><path d="M171.83,127.18c-.68,3.12-2.25,5.31-5.54,3.9-4.88-2.1-9.58-4.64-14.25-7.19a3.53,3.53,0,0,1-1.76-4.4c.6-1.89,2-3.15,3.84-2.66a47.72,47.72,0,0,1,16.67,8.38C171.33,125.62,171.5,126.51,171.83,127.18Z"/><path d="M141.19,87.4c-2.66-.47-3.94-2.56-2.58-5.58,2.18-4.81,4.68-9.49,7.24-14.11,1-1.88,2.85-2.35,4.89-1.26s3,2.64,2,4.66c-2.36,4.94-4.93,9.78-7.47,14.64C144.6,87,143.37,87.52,141.19,87.4Z"/><path d="M154.83,104.3c-2.79,0-4.44-.81-5.06-2.9A3.57,3.57,0,0,1,152,96.71q7.49-2.69,15.15-4.88a3.43,3.43,0,0,1,4.53,2.4c.6,2,.27,4-1.88,4.78C164.64,101,159.42,102.69,154.83,104.3Z"/></g></svg>