<?xml version="1.0" encoding="iso-8859-1"?>
<!-- Generator: Adobe Illustrator 19.0.0, SVG Export Plug-In . SVG Version: 6.00 Build 0)  -->
<svg version="1.1" id="Capa_1" xmlns="http://www.w3.org/2000/svg"  x="0px" y="0px"
	 viewBox="0 0 512 512" style="enable-background:new 0 0 512 512;" xml:space="preserve">
<g>
	<g>
		<g>
			<path d="M159.483,258.07c4.414,0,7.99-3.577,7.99-7.99v-4.53c0-4.412-3.576-7.99-7.99-7.99s-7.99,3.577-7.99,7.99v4.53
				C151.493,254.493,155.071,258.07,159.483,258.07z"/>
			<path d="M461.606,477.094L446.72,219.055c-0.445-7.736-3.854-14.888-9.598-20.14c-25.584-23.392-40.858-62.784-40.858-105.374
				V21.088C396.265,9.461,386.804,0,375.176,0h-60.92c-8.69,0-15.76,7.069-15.76,15.759v45.703c0,23.502-18.736,42.935-41.765,43.32
				c-11.487,0.21-22.337-4.137-30.525-12.189c-8.19-8.055-12.7-18.815-12.7-30.3V15.759C213.506,7.069,206.436,0,197.746,0h-60.92
				c-11.629,0-21.09,9.461-21.09,21.088V93.54c0,42.59-15.274,81.984-40.858,105.374c-5.743,5.252-9.152,12.404-9.597,20.14
				L50.396,477.094c-0.528,9.163,2.649,17.884,8.949,24.558c6.299,6.674,14.822,10.348,24,10.348h345.309
				c9.176,0,17.7-3.675,24-10.349C458.864,495.074,462.127,486.123,461.606,477.094z M374.329,15.979h0.847
				c2.818,0,5.109,2.293,5.109,5.109V93.54c0,46.999,17.216,90.8,46.053,117.167c2.65,2.424,4.224,5.715,4.428,9.268l0.134,2.317
				c-9.293-6.934-17.79-15.648-25.368-26.044c-20.122-27.608-31.204-64.083-31.204-102.708V15.979z M197.527,15.979v46.313
				c0,15.804,6.206,30.611,17.475,41.693c11.265,11.08,26.177,17.028,41.996,16.773c31.693-0.529,57.478-27.13,57.478-59.297V15.979
				h5.959v46.313c0,35.53-28.904,64.434-64.433,64.434s-64.433-28.904-64.433-64.434V15.979H197.527z M81.234,219.975
				c0.205-3.553,1.778-6.843,4.427-9.267c28.837-26.367,46.053-70.167,46.053-117.167V21.088c0-2.817,2.292-5.109,5.11-5.109h0.847
				v77.562c0,38.624-11.082,75.101-31.204,102.708c-7.577,10.396-16.075,19.11-25.368,26.044L81.234,219.975z M79.952,242.217
				c14.854-8.747,28.106-21.02,39.43-36.557c22.101-30.319,34.271-70.138,34.271-112.119v-77.56h21.936v46.313
				c0,44.341,36.073,80.413,80.412,80.413c44.339,0,80.412-36.073,80.412-80.413V15.979h21.936v77.562
				c0,41.982,12.171,81.8,34.271,112.12c11.324,15.537,24.575,27.809,39.43,36.556l4.674,81.019H75.277L79.952,242.217z
				 M74.356,339.216h363.291l3.178,55.092H71.177L74.356,339.216z M441.037,490.682c-3.25,3.442-7.648,5.338-12.381,5.338H83.347
				c-4.734,0-9.131-1.896-12.381-5.338c-1.441-1.527-2.545-3.269-3.327-5.139h376.724
				C443.582,487.413,442.478,489.156,441.037,490.682z M66.836,469.564l3.42-59.277h371.491l3.42,59.277H66.836z"/>
			<path d="M366.33,274.61h-27.624c-4.413,0-7.99,3.577-7.99,7.99s3.576,7.99,7.99,7.99h27.624c4.414,0,7.99-3.577,7.99-7.99
				S370.744,274.61,366.33,274.61z"/>
			<path d="M173.294,274.61h-27.623c-4.414,0-7.99,3.577-7.99,7.99s3.576,7.99,7.99,7.99h27.623c4.413,0,7.99-3.577,7.99-7.99
				S177.708,274.61,173.294,274.61z"/>
			<path d="M352.519,258.07c4.414,0,7.99-3.577,7.99-7.99v-4.53c0-4.412-3.576-7.99-7.99-7.99s-7.99,3.577-7.99,7.99v4.53
				C344.529,254.493,348.106,258.07,352.519,258.07z"/>
			<path d="M288.416,249.153c-4.414,0-7.99,3.577-7.99,7.99c0,4.532-3.687,8.218-8.219,8.218s-8.218-3.686-8.218-8.218
				c0-4.412-3.576-7.99-7.99-7.99c-4.413,0-7.99,3.577-7.99,7.99c0,4.532-3.686,8.218-8.218,8.218s-8.219-3.686-8.219-8.218
				c0-4.412-3.576-7.99-7.99-7.99c-4.413,0-7.99,3.577-7.99,7.99c0,13.343,10.854,24.197,24.198,24.197
				c6.229,0,11.914-2.365,16.207-6.245c4.293,3.88,9.979,6.245,16.207,6.245c13.343,0,24.198-10.854,24.198-24.197
				C296.406,252.73,292.829,249.153,288.416,249.153z"/>
		</g>
	</g>
</g>
<g>
</g>
<g>
</g>
<g>
</g>
<g>
</g>
<g>
</g>
<g>
</g>
<g>
</g>
<g>
</g>
<g>
</g>
<g>
</g>
<g>
</g>
<g>
</g>
<g>
</g>
<g>
</g>
<g>
</g>
</svg>
