<?xml version="1.0" encoding="iso-8859-1"?>
<!-- Generator: Adobe Illustrator 19.0.0, SVG Export Plug-In . SVG Version: 6.00 Build 0)  -->
<svg version="1.1" id="Capa_1" xmlns="http://www.w3.org/2000/svg"  x="0px" y="0px"
	 viewBox="0 0 512 512" style="enable-background:new 0 0 512 512;" xml:space="preserve">
<g>
	<g>
		<path d="M422.522,391.136c4.199,0,7.604-3.405,7.604-7.604V183.387c0-4.184-3.379-7.608-7.564-7.604
			c-25.175,0.021-45.663-20.453-45.663-45.624V7.604c0-4.199-3.405-7.604-7.604-7.604h-40.048c-4.199,0-7.604,3.405-7.604,7.604
			v34.02c0,36.021-28.606,66.079-64.624,66.626c-36.66,0.557-66.661-29.104-66.661-65.639V7.604c0-4.199-3.405-7.604-7.604-7.604
			h-40.048c-4.199,0-7.604,3.405-7.604,7.604V130.16c0,25.171-20.488,45.645-45.663,45.624c-4.184-0.004-7.564,3.42-7.564,7.604
			v21.714c0,4.199,3.405,7.604,7.604,7.604s7.604-3.405,7.604-7.604v-14.583c29.967-3.753,53.228-29.391,53.228-60.358V15.208h24.84
			v93.896c0,44.513,35.541,81.449,80.051,81.884c44.946,0.439,81.649-35.999,81.649-80.851V15.208h24.84V130.16
			c0,25.237,15.45,46.93,37.386,56.126L97.082,332.451v-91.864c0-4.199-3.405-7.604-7.604-7.604s-7.604,3.405-7.604,7.604v263.809
			c0,4.199,3.405,7.604,7.604,7.604h333.043c4.199,0,7.604-3.405,7.604-7.604v-85.378c0-4.199-3.405-7.604-7.604-7.604
			s-7.604,3.405-7.604,7.604v77.774H97.082v-23.189l317.835-153.832v63.761C414.918,387.731,418.322,391.136,422.522,391.136z
			 M321.642,110.136c0,36.198-29.445,65.648-65.637,65.648c-36.198,0-65.648-29.45-65.648-65.648v-20.41
			c14.691,20.411,38.634,33.739,65.648,33.739c27.008,0,50.948-13.328,65.637-33.737V110.136z M97.082,349.347l317.835-153.831
			v65.615L97.082,414.963V349.347z M97.082,456.707v-24.848l317.835-153.832v24.849L97.082,456.707z"/>
	</g>
</g>
<g>
</g>
<g>
</g>
<g>
</g>
<g>
</g>
<g>
</g>
<g>
</g>
<g>
</g>
<g>
</g>
<g>
</g>
<g>
</g>
<g>
</g>
<g>
</g>
<g>
</g>
<g>
</g>
<g>
</g>
</svg>
