<?xml version="1.0" encoding="iso-8859-1"?>
<!-- Generator: Adobe Illustrator 19.0.0, SVG Export Plug-In . SVG Version: 6.00 Build 0)  -->
<svg version="1.1" id="Capa_1" xmlns="http://www.w3.org/2000/svg"  x="0px" y="0px"
	 viewBox="0 0 352 352" style="enable-background:new 0 0 352 352;" xml:space="preserve">
<g>
	<g>
		<path d="M310.68,142.08c-0.24,0-24.24-9.04-26.36-52c-1.307-22.817-1.066-45.696,0.72-68.48c0.203-2.037-0.756-4.016-2.48-5.12
			L281.68,16c-14.56-9.32-18.92-12-38.4-16h-1.04H109.76h-1.04c-19.48,3.76-24,6.6-38.4,16l-0.88,0.56
			c-1.724,1.104-2.683,3.083-2.48,5.12c1.788,22.784,2.028,45.663,0.72,68.48c-2.12,42.44-25.44,51.64-26.36,52
			c-2.176,0.763-3.634,2.814-3.64,5.12v199.4c0.065,2.957,2.482,5.321,5.44,5.32h265.76c3.004,0,5.44-2.436,5.44-5.44V147.2
			C314.314,144.894,312.856,142.843,310.68,142.08z M223.2,10.84c-2.944,26.079-26.472,44.833-52.551,41.889
			c-22.023-2.486-39.402-19.866-41.889-41.889H223.2z M303.44,341.2H48.56V150.64c8.32-4.6,28-19.68,30-60
			c1.205-22.203,1.031-44.459-0.52-66.64c9.47-7.011,20.562-11.511,32.24-13.08h7.6c2.92,32.099,31.309,55.753,63.407,52.833
			c28.054-2.552,50.281-24.779,52.833-52.833h7.6c11.678,1.57,22.769,6.07,32.24,13.08c-1.541,22.222-1.702,44.518-0.48,66.76
			c2,40.32,21.68,55.4,30,60L303.44,341.2z"/>
	</g>
</g>
<g>
</g>
<g>
</g>
<g>
</g>
<g>
</g>
<g>
</g>
<g>
</g>
<g>
</g>
<g>
</g>
<g>
</g>
<g>
</g>
<g>
</g>
<g>
</g>
<g>
</g>
<g>
</g>
<g>
</g>
</svg>
