<?xml version="1.0" encoding="iso-8859-1"?>
<!-- Generator: Adobe Illustrator 19.0.0, SVG Export Plug-In . SVG Version: 6.00 Build 0)  -->
<svg version="1.1" id="Layer_1" xmlns="http://www.w3.org/2000/svg"  x="0px" y="0px"
	 viewBox="0 0 512.002 512.002" style="enable-background:new 0 0 512.002 512.002;" xml:space="preserve">
<g transform="translate(1 1)">
	<g>
		<path d="M396.997,171.649c-0.061-0.051-0.126-0.097-0.188-0.146c-0.104-0.081-0.203-0.165-0.313-0.243
			c-1.982-1.416-5.504-10.697-8.526-25.122c-2.917-13.925-5.461-32.157-7.634-53.612c-1.889-18.644-3.396-38.648-4.557-58.656
			c-0.407-7.006-0.741-13.51-1.007-19.345c-0.159-3.493-0.261-5.981-0.309-7.297c-0.005-0.142-0.022-0.281-0.034-0.421
			c-0.331-4.267-3.229-6.849-6.554-7.583c-0.007-0.002-0.015-0.003-0.022-0.004c-0.261-0.057-0.523-0.101-0.788-0.135
			c-0.094-0.012-0.189-0.023-0.284-0.033c-0.255-0.025-0.511-0.04-0.767-0.043c-0.027,0-0.052-0.004-0.079-0.004h-0.05
			c-0.033,0-0.066,0-0.099,0h-33.984c-4.699,0-8.509,3.799-8.531,8.493c-13.405,10.214-39.332,17.107-68.269,17.107
			s-54.863-6.893-68.269-17.107c-0.022-4.694-3.832-8.493-8.531-8.493h-33.984c-0.033,0-0.066,0-0.099,0h-0.05
			c-0.027,0-0.052,0.004-0.078,0.004c-0.256,0.004-0.512,0.019-0.767,0.043c-0.095,0.009-0.19,0.02-0.284,0.033
			c-0.265,0.034-0.528,0.079-0.788,0.135c-0.007,0.002-0.015,0.003-0.022,0.004c-3.326,0.734-6.225,3.318-6.554,7.587
			c-0.012,0.139-0.029,0.276-0.034,0.417c-0.048,1.316-0.149,3.805-0.309,7.299c-0.266,5.835-0.601,12.339-1.007,19.345
			c-1.161,20.008-2.668,40.012-4.557,58.656c-2.174,21.455-4.717,39.687-7.634,53.612c-3.022,14.426-6.545,23.707-8.526,25.122
			c-0.11,0.078-0.209,0.162-0.314,0.244c-0.062,0.049-0.126,0.095-0.187,0.145c-2.255,1.852-3.194,4.408-3.071,6.893v306.861
			c0,14.142,11.458,25.6,25.6,25.6h238.933c14.142,0,25.6-11.458,25.6-25.6V178.54C400.19,176.055,399.251,173.5,396.997,171.649z
			 M375.62,166.672c-0.496-0.173-0.991-0.351-1.484-0.536c-0.135-0.051-0.269-0.103-0.404-0.155
			c-0.411-0.157-0.821-0.318-1.229-0.484c-0.137-0.055-0.273-0.11-0.41-0.166c-0.516-0.213-1.031-0.431-1.54-0.657
			c-0.062-0.028-0.124-0.057-0.186-0.084c-0.451-0.201-0.899-0.408-1.344-0.618c-0.143-0.068-0.286-0.136-0.429-0.205
			c-0.416-0.2-0.829-0.404-1.239-0.611c-0.09-0.046-0.181-0.09-0.271-0.136c-0.487-0.249-0.968-0.504-1.445-0.763
			c-0.121-0.066-0.24-0.133-0.36-0.199c-0.376-0.207-0.747-0.418-1.115-0.63c-0.125-0.072-0.25-0.144-0.375-0.217
			c-0.463-0.272-0.922-0.548-1.371-0.828c-0.044-0.028-0.087-0.056-0.131-0.083c-0.407-0.255-0.807-0.514-1.201-0.776
			c-0.124-0.082-0.246-0.164-0.369-0.247c-0.354-0.238-0.702-0.479-1.044-0.721c-0.081-0.058-0.164-0.114-0.245-0.172
			c-0.41-0.294-0.811-0.592-1.203-0.892c-0.097-0.074-0.192-0.15-0.288-0.224c-0.307-0.238-0.607-0.478-0.902-0.719
			c-0.104-0.085-0.208-0.17-0.31-0.255c-0.369-0.308-0.731-0.617-1.079-0.929c-0.026-0.023-0.05-0.047-0.076-0.07
			c-0.322-0.29-0.633-0.582-0.936-0.875c-0.093-0.09-0.184-0.18-0.275-0.27c-0.259-0.256-0.511-0.513-0.754-0.771
			c-0.063-0.066-0.128-0.133-0.19-0.199c-0.293-0.316-0.574-0.633-0.842-0.951c-0.064-0.075-0.123-0.151-0.185-0.226
			c-0.21-0.254-0.411-0.508-0.604-0.763c-0.067-0.089-0.135-0.178-0.2-0.266c-0.236-0.321-0.462-0.642-0.67-0.962
			c-0.008-0.013-0.015-0.026-0.024-0.039c-0.198-0.308-0.379-0.615-0.55-0.922c-0.05-0.09-0.098-0.18-0.145-0.27
			c-0.136-0.257-0.263-0.513-0.379-0.768c-0.032-0.07-0.067-0.139-0.097-0.209c-0.137-0.315-0.257-0.629-0.362-0.941
			c-0.024-0.072-0.043-0.143-0.065-0.214c-0.078-0.25-0.145-0.499-0.202-0.747c-0.02-0.087-0.04-0.174-0.057-0.261
			c-0.061-0.31-0.112-0.62-0.137-0.926l12.801-68.269c0.517,6.033,1.069,11.979,1.659,17.8
			C366.659,126.864,370.425,151.107,375.62,166.672z M255.001,41.669c24.634,0,47.611-4.519,64.635-12.377l-0.208,0.612
			c-6.89,19.919-22.709,35.583-42.596,42.312c-0.245,0.083-0.488,0.169-0.734,0.248c-0.601,0.196-1.207,0.379-1.816,0.559
			c-0.38,0.112-0.762,0.22-1.145,0.325c-0.552,0.152-1.104,0.302-1.661,0.44c-0.51,0.126-1.026,0.241-1.54,0.355
			c-0.54,0.121-1.079,0.243-1.624,0.351c-0.86,0.17-1.724,0.326-2.595,0.463c-0.387,0.061-0.778,0.11-1.168,0.165
			c-0.662,0.093-1.327,0.18-1.995,0.253c-0.396,0.044-0.793,0.083-1.19,0.12c-0.71,0.066-1.423,0.119-2.139,0.163
			c-0.344,0.021-0.686,0.046-1.031,0.062c-1.059,0.049-2.122,0.081-3.192,0.081c-1.073,0-2.138-0.032-3.199-0.081
			c-0.348-0.016-0.694-0.042-1.041-0.063c-0.713-0.044-1.424-0.096-2.131-0.162c-0.404-0.038-0.807-0.078-1.208-0.122
			c-0.657-0.073-1.31-0.158-1.962-0.249c-0.404-0.057-0.81-0.108-1.211-0.172c-0.747-0.118-1.486-0.255-2.225-0.397
			c-0.665-0.128-1.326-0.269-1.985-0.417c-0.525-0.117-1.05-0.233-1.57-0.362c-0.567-0.142-1.129-0.296-1.691-0.452
			c-0.377-0.104-0.754-0.21-1.128-0.32c-0.616-0.182-1.229-0.371-1.838-0.57c-0.26-0.085-0.518-0.175-0.777-0.263
			c-20.026-6.823-35.909-22.714-42.67-42.879C207.391,37.15,230.367,41.669,255.001,41.669z M146.647,94.245
			c0.59-5.821,1.142-11.767,1.659-17.8l12.8,68.269c-0.026,0.306-0.076,0.615-0.137,0.925c-0.017,0.088-0.038,0.175-0.058,0.263
			c-0.056,0.247-0.124,0.496-0.201,0.745c-0.022,0.071-0.041,0.143-0.065,0.214c-0.105,0.312-0.225,0.625-0.362,0.94
			c-0.031,0.07-0.066,0.141-0.098,0.211c-0.116,0.254-0.241,0.509-0.377,0.765c-0.048,0.091-0.096,0.181-0.147,0.272
			c-0.171,0.308-0.353,0.616-0.552,0.925c-0.007,0.012-0.014,0.023-0.021,0.035c-0.208,0.321-0.434,0.642-0.67,0.963
			c-0.065,0.089-0.133,0.178-0.201,0.267c-0.193,0.254-0.394,0.508-0.603,0.762c-0.062,0.076-0.122,0.151-0.186,0.227
			c-0.268,0.318-0.549,0.635-0.842,0.951c-0.062,0.067-0.128,0.133-0.191,0.2c-0.243,0.257-0.494,0.514-0.753,0.769
			c-0.092,0.091-0.184,0.182-0.278,0.272c-0.304,0.294-0.615,0.586-0.938,0.877c-0.024,0.022-0.047,0.044-0.072,0.066
			c-0.348,0.312-0.711,0.622-1.08,0.93c-0.102,0.085-0.206,0.169-0.309,0.254c-0.295,0.242-0.597,0.482-0.904,0.721
			c-0.096,0.074-0.19,0.149-0.287,0.223c-0.393,0.3-0.794,0.598-1.205,0.893c-0.079,0.057-0.161,0.113-0.241,0.17
			c-0.343,0.243-0.692,0.484-1.046,0.723c-0.122,0.083-0.245,0.165-0.369,0.247c-0.394,0.261-0.794,0.52-1.2,0.775
			c-0.044,0.028-0.087,0.056-0.131,0.084c-0.449,0.28-0.908,0.556-1.371,0.828c-0.124,0.073-0.25,0.145-0.375,0.217
			c-0.368,0.213-0.74,0.423-1.115,0.63c-0.12,0.066-0.239,0.133-0.36,0.199c-0.476,0.259-0.958,0.514-1.445,0.763
			c-0.09,0.046-0.181,0.09-0.271,0.136c-0.41,0.207-0.823,0.411-1.239,0.611c-0.143,0.069-0.286,0.137-0.429,0.205
			c-0.445,0.21-0.893,0.417-1.344,0.618c-0.062,0.028-0.124,0.057-0.186,0.084c-0.51,0.225-1.024,0.444-1.54,0.657
			c-0.136,0.056-0.273,0.111-0.41,0.166c-0.408,0.165-0.818,0.327-1.229,0.484c-0.135,0.052-0.269,0.104-0.404,0.155
			c-0.493,0.185-0.988,0.364-1.484,0.536C139.577,151.107,143.343,126.864,146.647,94.245z M383.001,485.402
			c0,4.716-3.817,8.533-8.533,8.533H135.534c-4.716,0-8.533-3.817-8.533-8.533V186.088c0.302-0.044,0.605-0.101,0.907-0.149
			c0.331-0.053,0.662-0.105,0.994-0.164c0.509-0.09,1.019-0.19,1.529-0.292c0.308-0.061,0.615-0.119,0.923-0.184
			c0.585-0.125,1.17-0.263,1.755-0.403c0.232-0.056,0.465-0.105,0.697-0.163c0.817-0.204,1.634-0.422,2.45-0.655
			c0.155-0.044,0.309-0.095,0.464-0.14c0.661-0.193,1.321-0.393,1.979-0.604c0.288-0.093,0.573-0.193,0.86-0.289
			c0.524-0.175,1.048-0.352,1.569-0.539c0.322-0.115,0.642-0.237,0.962-0.356c0.484-0.18,0.966-0.362,1.447-0.552
			c0.333-0.131,0.663-0.267,0.994-0.403c0.467-0.192,0.933-0.387,1.396-0.587c0.331-0.143,0.661-0.288,0.99-0.436
			c0.462-0.207,0.92-0.419,1.377-0.635c0.321-0.151,0.642-0.302,0.96-0.458c0.467-0.228,0.93-0.463,1.392-0.7
			c0.3-0.154,0.601-0.305,0.898-0.462c0.497-0.263,0.986-0.534,1.475-0.807c0.253-0.141,0.51-0.278,0.761-0.422
			c0.655-0.375,1.302-0.76,1.942-1.153c0.078-0.048,0.16-0.093,0.238-0.142c0.715-0.442,1.417-0.896,2.11-1.358
			c0.217-0.145,0.427-0.296,0.642-0.443c0.472-0.323,0.942-0.647,1.403-0.979c0.257-0.185,0.507-0.376,0.76-0.564
			c0.408-0.303,0.813-0.607,1.211-0.917c0.263-0.206,0.521-0.415,0.78-0.623c0.375-0.303,0.747-0.607,1.113-0.916
			c0.258-0.218,0.511-0.437,0.763-0.658c0.355-0.31,0.703-0.624,1.047-0.94c0.244-0.225,0.487-0.45,0.726-0.678
			c0.341-0.326,0.674-0.655,1.003-0.987c0.223-0.224,0.448-0.448,0.665-0.674c0.338-0.353,0.664-0.711,0.989-1.07
			c0.191-0.212,0.387-0.421,0.573-0.634c0.369-0.424,0.722-0.854,1.071-1.286c0.125-0.154,0.258-0.306,0.38-0.461
			c0.463-0.589,0.906-1.184,1.329-1.786c0.096-0.137,0.182-0.278,0.277-0.416c0.319-0.467,0.632-0.935,0.926-1.409
			c0.138-0.223,0.264-0.449,0.396-0.674c0.233-0.395,0.463-0.79,0.678-1.189c0.135-0.251,0.259-0.505,0.387-0.758
			c0.191-0.379,0.378-0.759,0.553-1.142c0.121-0.265,0.234-0.532,0.346-0.799c0.159-0.378,0.31-0.757,0.452-1.138
			c0.101-0.272,0.199-0.544,0.291-0.817c0.13-0.384,0.248-0.771,0.36-1.158c0.079-0.271,0.158-0.542,0.227-0.815
			c0.103-0.402,0.188-0.806,0.271-1.211c0.053-0.26,0.112-0.52,0.157-0.781c0.077-0.447,0.131-0.896,0.182-1.346
			c0.025-0.222,0.061-0.442,0.081-0.665c0.058-0.673,0.092-1.349,0.092-2.028l-0.146-1.573L154.35,16.069h15.739
			c3.317,33.414,25.91,61.141,56.499,71.941c0.027,0.01,0.055,0.021,0.082,0.03c1.188,0.418,2.388,0.808,3.598,1.174
			c0.094,0.028,0.186,0.06,0.28,0.089c1.146,0.342,2.305,0.656,3.471,0.951c0.158,0.04,0.314,0.086,0.472,0.126
			c1.103,0.272,2.217,0.515,3.337,0.743c0.224,0.046,0.444,0.1,0.668,0.145c1.056,0.207,2.122,0.383,3.191,0.55
			c0.291,0.046,0.578,0.103,0.87,0.146c1.02,0.149,2.051,0.266,3.083,0.378c0.343,0.038,0.681,0.089,1.025,0.122
			c1.038,0.101,2.086,0.167,3.135,0.23c0.339,0.02,0.674,0.056,1.014,0.072c1.388,0.067,2.784,0.102,4.188,0.102
			s2.8-0.035,4.188-0.102c0.34-0.016,0.675-0.052,1.014-0.072c1.049-0.063,2.097-0.13,3.135-0.23
			c0.344-0.033,0.682-0.085,1.025-0.122c1.032-0.113,2.062-0.229,3.083-0.378c0.292-0.043,0.579-0.1,0.87-0.146
			c1.069-0.168,2.136-0.344,3.191-0.55c0.224-0.044,0.444-0.099,0.668-0.145c1.119-0.229,2.234-0.471,3.337-0.743
			c0.158-0.039,0.314-0.085,0.472-0.125c1.166-0.295,2.325-0.609,3.471-0.951c0.093-0.028,0.184-0.06,0.277-0.088
			c1.212-0.366,2.413-0.757,3.601-1.175c0.027-0.009,0.053-0.02,0.08-0.029c30.589-10.799,53.184-38.527,56.501-71.941h15.739
			l-23.705,126.427l-0.146,1.573c0,0.679,0.034,1.355,0.092,2.028c0.019,0.223,0.055,0.443,0.081,0.665
			c0.052,0.45,0.106,0.899,0.182,1.346c0.045,0.261,0.103,0.521,0.157,0.781c0.083,0.405,0.168,0.809,0.271,1.211
			c0.07,0.273,0.149,0.544,0.227,0.815c0.112,0.388,0.23,0.774,0.36,1.158c0.092,0.273,0.19,0.545,0.291,0.817
			c0.142,0.381,0.293,0.76,0.452,1.138c0.112,0.267,0.226,0.533,0.346,0.799c0.174,0.383,0.361,0.763,0.553,1.142
			c0.128,0.253,0.252,0.507,0.387,0.758c0.215,0.399,0.445,0.795,0.678,1.189c0.133,0.225,0.258,0.451,0.396,0.674
			c0.294,0.474,0.607,0.943,0.926,1.409c0.094,0.138,0.18,0.278,0.277,0.416c0.423,0.602,0.866,1.198,1.329,1.786
			c0.122,0.155,0.255,0.307,0.38,0.461c0.349,0.432,0.701,0.862,1.071,1.286c0.186,0.214,0.382,0.423,0.573,0.634
			c0.324,0.359,0.65,0.717,0.989,1.07c0.217,0.227,0.442,0.45,0.665,0.674c0.329,0.331,0.662,0.661,1.003,0.987
			c0.239,0.228,0.482,0.453,0.726,0.678c0.344,0.316,0.692,0.63,1.047,0.94c0.252,0.221,0.506,0.44,0.763,0.658
			c0.365,0.309,0.737,0.613,1.112,0.916c0.259,0.209,0.518,0.419,0.782,0.625c0.397,0.309,0.802,0.613,1.208,0.915
			c0.254,0.189,0.504,0.379,0.762,0.565c0.46,0.332,0.931,0.656,1.402,0.979c0.215,0.147,0.425,0.298,0.642,0.443
			c0.693,0.463,1.395,0.916,2.11,1.358c0.078,0.048,0.159,0.094,0.238,0.142c0.64,0.392,1.286,0.777,1.942,1.153
			c0.251,0.144,0.508,0.281,0.761,0.422c0.489,0.273,0.979,0.544,1.475,0.807c0.297,0.157,0.598,0.309,0.898,0.462
			c0.462,0.237,0.925,0.472,1.392,0.7c0.319,0.156,0.639,0.307,0.96,0.458c0.457,0.216,0.916,0.428,1.377,0.635
			c0.329,0.148,0.659,0.293,0.99,0.436c0.464,0.201,0.929,0.396,1.396,0.587c0.331,0.136,0.662,0.271,0.994,0.403
			c0.481,0.19,0.963,0.372,1.447,0.552c0.321,0.12,0.64,0.241,0.962,0.356c0.521,0.187,1.045,0.363,1.569,0.539
			c0.287,0.096,0.572,0.196,0.86,0.289c0.658,0.212,1.318,0.411,1.979,0.604c0.155,0.045,0.309,0.096,0.464,0.14
			c0.815,0.233,1.632,0.451,2.45,0.655c0.232,0.058,0.464,0.108,0.697,0.163c0.585,0.14,1.17,0.278,1.755,0.403
			c0.308,0.066,0.615,0.123,0.923,0.184c0.51,0.102,1.02,0.202,1.529,0.292c0.332,0.059,0.662,0.11,0.994,0.164
			c0.302,0.049,0.606,0.105,0.907,0.149V485.402z"/>
	</g>
</g>
<g>
</g>
<g>
</g>
<g>
</g>
<g>
</g>
<g>
</g>
<g>
</g>
<g>
</g>
<g>
</g>
<g>
</g>
<g>
</g>
<g>
</g>
<g>
</g>
<g>
</g>
<g>
</g>
<g>
</g>
</svg>
