<?xml version="1.0" encoding="iso-8859-1"?>
<!-- Generator: Adobe Illustrator 19.0.0, SVG Export Plug-In . SVG Version: 6.00 Build 0)  -->
<svg version="1.1" id="Capa_1" xmlns="http://www.w3.org/2000/svg"  x="0px" y="0px"
	 viewBox="0 0 511.999 511.999" style="enable-background:new 0 0 511.999 511.999;" xml:space="preserve">
<g>
	<g>
		<path d="M417.127,167.683l-10.36-19.669c-3.761-7.14-5.749-15.179-5.749-23.25V12.451C401.018,5.586,395.433,0,388.567,0h-48.359
			c-6.479,0-11.807,4.87-12.395,11.328c-2.72,29.868-11.957,53.119-27.456,69.106c-11.682,12.049-27.435,18.685-44.358,18.685
			c-16.923,0-32.676-6.636-44.357-18.685c-15.499-15.988-24.737-39.238-27.456-69.107C183.597,4.87,178.268,0,171.79,0h-48.359
			c-6.866,0-12.451,5.586-12.451,12.451v112.313c0,8.07-1.988,16.11-5.749,23.25l-10.36,19.668
			c-4.888,9.279-7.471,19.726-7.471,30.214v15.768c0,4.126,3.345,7.471,7.471,7.471s7.471-3.345,7.471-7.471v-15.768
			c0-8.071,1.988-16.11,5.749-23.25l10.36-19.668c4.888-9.279,7.471-19.727,7.471-30.214V14.942h43.602
			c3.305,32.285,13.861,57.811,31.391,75.893c14.52,14.978,34.083,23.227,55.085,23.227c21,0,40.567-8.25,55.086-23.227
			c17.529-18.082,28.085-43.608,31.39-75.893h43.602v109.823c0,10.488,2.584,20.935,7.471,30.214l10.36,19.669
			c3.761,7.14,5.749,15.179,5.749,23.25v171.161c0,4.126,3.344,7.471,7.471,7.471c4.126,0,7.471-3.345,7.471-7.471V197.897
			C424.598,187.409,422.015,176.962,417.127,167.683z"/>
	</g>
</g>
<g>
	<g>
		<path d="M417.127,414.879c-4.126,0-7.471,3.345-7.471,7.471v74.708H102.341V267.455c0-4.126-3.345-7.471-7.471-7.471
			c-4.126,0-7.471,3.345-7.471,7.471v232.093c0,6.866,5.586,12.451,12.451,12.451h312.296c6.866,0,12.451-5.586,12.451-12.451
			V422.35C424.598,418.224,421.254,414.879,417.127,414.879z"/>
	</g>
</g>
<g>
	<g>
		<path d="M321.244,273.651c-2.154-4.127-6.383-6.692-11.039-6.692h-34.569l29.718-64.519c1.782-3.877,1.474-8.334-0.827-11.926
			c-2.301-3.592-6.22-5.736-10.484-5.736h-42.324c-5.515,0-10.302,3.544-11.91,8.82l-30.83,101.106
			c-1.145,3.757-0.434,7.885,1.904,11.042c2.338,3.156,6.078,5.041,10.006,5.041h28.656l-23.108,67.804
			c-2.022,5.932,0.569,12.293,6.16,15.125c1.826,0.925,3.765,1.369,5.674,1.368c3.939,0,7.75-1.891,10.165-5.353l71.982-103.198
			C323.081,282.715,323.398,277.779,321.244,273.651z M246.268,366.719l18.542-54.407c1.293-3.793,0.672-8.004-1.66-11.263
			c-2.333-3.259-6.118-5.205-10.125-5.205h-28.773l29.311-96.125h36.591l-29.717,64.519c-1.785,3.874-1.478,8.332,0.822,11.924
			c2.301,3.592,6.221,5.737,10.486,5.737h33.686L246.268,366.719z"/>
	</g>
</g>
<g>
</g>
<g>
</g>
<g>
</g>
<g>
</g>
<g>
</g>
<g>
</g>
<g>
</g>
<g>
</g>
<g>
</g>
<g>
</g>
<g>
</g>
<g>
</g>
<g>
</g>
<g>
</g>
<g>
</g>
</svg>
