<?xml version="1.0" encoding="iso-8859-1"?>
<!-- Generator: Adobe Illustrator 19.0.0, SVG Export Plug-In . SVG Version: 6.00 Build 0)  -->
<svg version="1.1" id="Capa_1" xmlns="http://www.w3.org/2000/svg"  x="0px" y="0px"
	 viewBox="0 0 390.006 390.006" style="enable-background:new 0 0 390.006 390.006;" xml:space="preserve">
<g>
	<g>
		<path d="M344.62,173.206c-40.72-40-43.28-120.4-41.2-164.88c0-4.418-3.582-8-8-8h-44.4c-4.417-0.119-8.093,3.365-8.212,7.782
			c-0.019,0.692,0.053,1.384,0.212,2.058c2.776,9.867,4.176,20.07,4.16,30.32v1.6c-46.56,32.72-92.08,8-104,0c0-0.56,0-1.04,0-1.52
			c-0.128-10.262,1.164-20.492,3.84-30.4c1.196-4.253-1.282-8.671-5.536-9.867c-0.801-0.225-1.633-0.324-2.464-0.293h-44.4
			c-4.418,0-8,3.582-8,8c2.08,44.4-0.48,124.88-41.28,164.56c-1.688,1.681-2.538,4.028-2.32,6.4v193.68
			c0,9.588,7.772,17.36,17.36,17.36h269.6c9.462-0.174,17.042-7.896,17.04-17.36v-193.68
			C347.032,176.8,346.166,174.722,344.62,173.206z M197.58,74.326c16.61,0.002,32.953-4.18,47.52-12.16
			c-6.24,32.8-26.32,56.8-50.16,56.8c-23.84,0-44.16-24.48-50.24-57.68C161.1,69.612,179.189,74.072,197.58,74.326z M331.02,372.646
			c0,0.751-0.609,1.36-1.36,1.36H60.22c-0.751,0-1.36-0.609-1.36-1.36v-190.72c40.56-42.16,45.44-118.64,44-166h26.24
			c-1.554,8.094-2.331,16.318-2.32,24.56c0.08,52.08,30.64,94.48,68.24,94.48s68.16-42.4,68.16-94.48
			c0.011-8.242-0.766-16.466-2.32-24.56h26.24c-1.44,47.36,3.52,123.84,44,166L331.02,372.646z"/>
	</g>
</g>
<g>
</g>
<g>
</g>
<g>
</g>
<g>
</g>
<g>
</g>
<g>
</g>
<g>
</g>
<g>
</g>
<g>
</g>
<g>
</g>
<g>
</g>
<g>
</g>
<g>
</g>
<g>
</g>
<g>
</g>
</svg>
