<?xml version="1.0" encoding="iso-8859-1"?>
<!-- Generator: Adobe Illustrator 19.0.0, SVG Export Plug-In . SVG Version: 6.00 Build 0)  -->
<svg version="1.1" id="Capa_1" xmlns="http://www.w3.org/2000/svg"  x="0px" y="0px"
	 viewBox="0 0 512.001 512.001" style="enable-background:new 0 0 512.001 512.001;" xml:space="preserve">
<g>
	<g>
		<g>
			<path d="M507.36,116.64C464.823,74.467,410.774,45.801,352,34.24V16c0-8.837-7.163-16-16-16H176c-8.837,0-16,7.163-16,16v18.24
				C101.227,45.801,47.178,74.467,4.64,116.64C1.645,119.66-0.024,123.747,0,128v272c0,8.837,7.163,16,16,16h80v80
				c0,8.837,7.163,16,16,16h288c8.837,0,16-7.163,16-16v-80h80c8.837,0,16-7.163,16-16V128
				C512.025,123.747,510.355,119.66,507.36,116.64z M96,384H32v-16h64V384z M480,384h-64v-16h64V384z M480,336h-64V176h-32v304H128
				V176H96v160H32V134.72C72.059,97.033,122.602,72.376,176.96,64H256V32h48v32h31.2c54.342,8.279,104.86,32.952,144.8,70.72V336z"
				/>
			<path d="M180.64,148.64l-16,16l22.56,22.56l4.64-4.64l4.64,4.64l22.56-22.56l-16-16
				C196.819,142.542,186.862,142.542,180.64,148.64z"/>
			<path d="M308.64,148.64l-16,16l22.56,22.56l4.64-4.64l4.64,4.64l22.56-22.56l-16-16
				C324.819,142.542,314.862,142.542,308.64,148.64z"/>
			<path d="M244.64,148.64l-16,16l22.56,22.56l4.64-4.64l4.64,4.64l22.56-22.56l-16-16
				C260.819,142.542,250.862,142.542,244.64,148.64z"/>
			<path d="M180.64,212.64l-16,16l22.56,22.56l4.64-4.64l4.64,4.64l22.56-22.56l-16-16
				C196.819,206.542,186.862,206.542,180.64,212.64z"/>
			<path d="M308.64,212.64l-16,16l22.56,22.56l4.64-4.64l4.64,4.64l22.56-22.56l-16-16
				C324.819,206.542,314.862,206.542,308.64,212.64z"/>
			<path d="M244.64,212.64l-16,16l22.56,22.56l4.64-4.64l4.64,4.64l22.56-22.56l-16-16
				C260.819,206.542,250.862,206.542,244.64,212.64z"/>
			<path d="M180.64,276.64l-16,16l22.56,22.56l4.64-4.64l4.64,4.64l22.56-22.56l-16-16
				C196.819,270.542,186.862,270.542,180.64,276.64z"/>
			<path d="M308.64,276.64l-16,16l22.56,22.56l4.64-4.64l4.64,4.64l22.56-22.56l-16-16
				C324.819,270.542,314.862,270.542,308.64,276.64z"/>
			<path d="M244.64,276.64l-16,16l22.56,22.56l4.64-4.64l4.64,4.64l22.56-22.56l-16-16
				C260.819,270.542,250.862,270.542,244.64,276.64z"/>
			<path d="M180.64,340.64l-16,16l22.56,22.56l4.64-4.64l4.64,4.64l22.56-22.56l-16-16
				C196.819,334.542,186.862,334.542,180.64,340.64z"/>
			<path d="M308.64,340.64l-16,16l22.56,22.56l4.64-4.64l4.64,4.64l22.56-22.56l-16-16
				C324.819,334.542,314.862,334.542,308.64,340.64z"/>
			<path d="M244.64,340.64l-16,16l22.56,22.56l4.64-4.64l4.64,4.64l22.56-22.56l-16-16
				C260.819,334.542,250.862,334.542,244.64,340.64z"/>
		</g>
	</g>
</g>
<g>
</g>
<g>
</g>
<g>
</g>
<g>
</g>
<g>
</g>
<g>
</g>
<g>
</g>
<g>
</g>
<g>
</g>
<g>
</g>
<g>
</g>
<g>
</g>
<g>
</g>
<g>
</g>
<g>
</g>
</svg>
