<?xml version="1.0" encoding="iso-8859-1"?>
<!-- Generator: Adobe Illustrator 19.0.0, SVG Export Plug-In . SVG Version: 6.00 Build 0)  -->
<svg version="1.1" id="Layer_1" xmlns="http://www.w3.org/2000/svg"  x="0px" y="0px"
	 viewBox="0 0 512 512" style="enable-background:new 0 0 512 512;" xml:space="preserve">
<g>
	<g>
		<path d="M401.071,17.067h-34.133c-2.85,0-5.521,1.425-7.108,3.797c-16.247,24.38-31.599,47.403-103.834,47.403
			c-69.709,0-86.434-21.453-102.127-44.86c0.649-3.26,2.697-6.34,8.269-6.34h179.2c4.71,0,8.533-3.823,8.533-8.533
			S346.048,0,341.338,0h-179.2c-13.986,0-21.325,8.482-24.166,17.067h-27.034c-51.763,0-93.867,42.104-93.867,93.867v307.2
			c0,9.182,0,20.599,11.025,31.633l51.2,51.2C90.33,512,101.756,512,110.938,512h93.858c6.153,0,11.622-3.499,14.618-8.533h73.097
			c2.961,5.077,8.405,8.533,14.686,8.533h93.875c9.173,0,20.599,0,31.625-11.034l51.2-51.2
			c11.034-11.034,11.034-22.451,11.034-31.633v-307.2C494.929,59.17,452.826,17.067,401.071,17.067z M298.671,204.8
			c4.702,0,8.525,3.831,8.525,8.533c0,4.702-3.823,8.533-8.525,8.533c-4.71,0-8.533-3.831-8.533-8.533
			C290.138,208.631,293.961,204.8,298.671,204.8z M213.338,179.2c4.702,0,8.533,3.831,8.533,8.533c0,4.702-3.831,8.533-8.533,8.533
			c-4.71,0-8.542-3.831-8.542-8.533C204.796,183.031,208.627,179.2,213.338,179.2z M290.138,486.4h-68.267v-17.067h68.267V486.4z
			 M290.138,452.267h-68.267V435.2h68.267V452.267z M290.138,418.133h-68.267v-17.067h68.267V418.133z M477.871,418.133
			c0,7.851,0,13.534-6.042,19.567l-51.2,51.2c-6.033,6.033-11.708,6.033-19.558,6.033h-93.875v-102.4h145.075
			c4.71,0,8.525-3.823,8.525-8.533s-3.814-8.533-8.525-8.533h-76.8V213.333c0-4.71-3.823-8.533-8.533-8.533
			c-4.719,0-8.542,3.823-8.542,8.533v162.133h-51.2c-6.417,0-11.844,3.413-14.763,8.533H219.49
			c-2.953-5.077-8.405-8.533-14.694-8.533h-51.2V213.333c0-4.71-3.814-8.533-8.525-8.533c-4.719,0-8.533,3.823-8.533,8.533v162.133
			h-76.8c-4.719,0-8.542,3.823-8.542,8.533s3.823,8.533,8.542,8.533h145.058v102.4h-93.858c-7.859,0-13.542,0-19.567-6.033
			l-51.2-51.2c-6.033-6.033-6.033-11.716-6.033-19.567v-307.2c0-42.351,34.449-76.8,76.8-76.8h29.568
			c12.211,18.099,27.034,37.052,64.29,45.961v83.61c-9.907,3.533-17.058,12.919-17.058,24.03c0,14.114,11.477,25.6,25.6,25.6
			c14.114,0,25.6-11.486,25.6-25.6c0-11.11-7.159-20.497-17.067-24.03V83.2c10.018,1.34,21.24,2.133,34.125,2.133
			c12.894,0,24.115-0.794,34.142-2.133v106.103c-9.916,3.533-17.067,12.919-17.067,24.03c0,14.114,11.477,25.6,25.6,25.6
			c14.114,0,25.6-11.486,25.6-25.6c0-11.11-7.159-20.497-17.075-24.03V80.094c37.265-8.909,52.087-27.861,64.299-45.961h29.577
			c42.342,0,76.8,34.449,76.8,76.8V418.133z"/>
	</g>
</g>
<g>
</g>
<g>
</g>
<g>
</g>
<g>
</g>
<g>
</g>
<g>
</g>
<g>
</g>
<g>
</g>
<g>
</g>
<g>
</g>
<g>
</g>
<g>
</g>
<g>
</g>
<g>
</g>
<g>
</g>
</svg>
