<?xml version="1.0" encoding="iso-8859-1"?>
<!-- Generator: Adobe Illustrator 19.0.0, SVG Export Plug-In . SVG Version: 6.00 Build 0)  -->
<svg version="1.1" id="Capa_1" xmlns="http://www.w3.org/2000/svg"  x="0px" y="0px"
	 viewBox="0 0 512.001 512.001" style="enable-background:new 0 0 512.001 512.001;" xml:space="preserve">
<g>
	<g>
		<path d="M507.36,116.64C464.823,74.467,410.774,45.801,352,34.24V16c0-8.837-7.163-16-16-16H176c-8.837,0-16,7.163-16,16v18.24
			C101.227,45.801,47.178,74.467,4.64,116.64C1.645,119.66-0.024,123.747,0,128v272c0,8.837,7.163,16,16,16h80v80
			c0,8.837,7.163,16,16,16h288c8.837,0,16-7.163,16-16v-80h80c8.837,0,16-7.163,16-16V128
			C512.025,123.747,510.355,119.66,507.36,116.64z M96,384H32v-16h64V384z M384,400v32H128v-68.8l33.76,18.72
			c4.95,2.858,11.05,2.858,16,0l49.76-27.68l49.76,27.68c4.95,2.858,11.05,2.858,16,0l49.92-27.68l40.8,23.2V400z M384,340.8
			l-33.92-18.88c-4.95-2.858-11.05-2.858-16,0l-49.92,27.68l-49.76-27.68c-4.95-2.858-11.05-2.858-16,0l-48.8,27.84l-41.6-23.2
			V251.2l33.76,18.72c4.95,2.858,11.05,2.858,16,0l49.76-27.68l49.76,27.68c4.95,2.858,11.05,2.858,16,0l49.92-27.68l40.8,23.2
			V340.8z M480,384h-64v-16h64V384z M480,336h-64V176h-32v52.8l-33.92-18.88c-4.95-2.858-11.05-2.858-16,0l-49.92,27.68
			l-49.76-27.68c-4.95-2.858-11.05-2.858-16,0l-48.8,27.84l-41.6-23.2V176H96v160H32V134.72C72.059,97.033,122.602,72.376,176.96,64
			H256V32h32v32h47.04c54.398,8.248,104.977,32.923,144.96,70.72V336z"/>
	</g>
</g>
<g>
</g>
<g>
</g>
<g>
</g>
<g>
</g>
<g>
</g>
<g>
</g>
<g>
</g>
<g>
</g>
<g>
</g>
<g>
</g>
<g>
</g>
<g>
</g>
<g>
</g>
<g>
</g>
<g>
</g>
</svg>
