<?xml version="1.0" encoding="iso-8859-1"?>
<!-- Generator: Adobe Illustrator 19.0.0, SVG Export Plug-In . SVG Version: 6.00 Build 0)  -->
<svg version="1.1" id="Capa_1" xmlns="http://www.w3.org/2000/svg"  x="0px" y="0px"
	 viewBox="0 0 512.001 512.001" style="enable-background:new 0 0 512.001 512.001;" xml:space="preserve">
<g>
	<g>
		<g>
			<path d="M507.36,84.64C456.125,37.037,390.831,7.338,321.28,0H190.72C121.17,7.338,55.876,37.037,4.64,84.64
				C1.645,87.66-0.024,91.747,0,96v304c0,8.837,7.163,16,16,16h80v80c0,8.837,7.163,16,16,16h288c8.837,0,16-7.163,16-16v-80h80
				c8.837,0,16-7.163,16-16V96C512.025,91.747,510.355,87.66,507.36,84.64z M208,32h96v16c0,26.51-21.49,48-48,48
				c-26.51,0-48-21.49-48-48V32z M96,384H32v-16h64V384z M480,384h-64v-16h64V384z M480,336h-64V176h-32v304H128V176H96v160H32
				V102.72c40.712-35.722,90.58-59.382,144-68.32V48c-0.008,38.021,26.747,70.796,64,78.4V224c17.673,0,32-14.327,32-32v-65.6
				c37.253-7.604,64.008-40.379,64-78.4V34.4c53.438,8.881,103.321,32.548,144,68.32V336z"/>
			<path d="M343.152,321.712c-2.219-1.118-4.667-1.704-7.152-1.711H176c-8.836,0.027-15.978,7.212-15.952,16.048
				c0.008,2.484,0.594,4.933,1.712,7.152L176,371.84V432c0,8.837,7.163,16,16,16h128c8.837,0,16-7.163,16-16v-60.16l14.24-28.64
				C354.217,335.309,351.043,325.688,343.152,321.712z M305.76,360.8c-1.142,2.229-1.745,4.695-1.76,7.2v48h-96v-48
				c-0.015-2.505-0.618-4.971-1.76-7.2l-4.32-8.8h108.16L305.76,360.8z"/>
			<rect x="304" y="256" width="48" height="32"/>
			<rect x="240" y="256" width="32" height="32"/>
			<rect x="160" y="256" width="48" height="32"/>
		</g>
	</g>
</g>
<g>
</g>
<g>
</g>
<g>
</g>
<g>
</g>
<g>
</g>
<g>
</g>
<g>
</g>
<g>
</g>
<g>
</g>
<g>
</g>
<g>
</g>
<g>
</g>
<g>
</g>
<g>
</g>
<g>
</g>
</svg>
