<?xml version="1.0" encoding="iso-8859-1"?>
<!-- Generator: Adobe Illustrator 19.0.0, SVG Export Plug-In . SVG Version: 6.00 Build 0)  -->
<svg version="1.1" id="Capa_1" xmlns="http://www.w3.org/2000/svg"  x="0px" y="0px"
	 viewBox="0 0 512.003 512.003" style="enable-background:new 0 0 512.003 512.003;" xml:space="preserve">
<g>
	<path style="fill:#FFFFFF;" d="M406.001,275.329l42,199.672l54-13.977l-49.777-322c-2.594-16.777-13.117-31.275-28.265-38.939
		l-17.958-9.086L406.001,275.329L406.001,275.329z"/>
	<path style="fill:#FFFFFF;" d="M106.001,275.329l-42,199.672l-54-13.977l49.777-322c2.594-16.777,13.117-31.275,28.265-38.939
		l17.958-9.086V275.329z"/>
</g>
<rect x="116" y="420.999" style="fill:#F67B37;" width="280" height="54"/>
<path style="fill:#FEB756;" d="M143.596,75.986L106.001,91v303c0,14.912,12.088,27,27,27h246c14.912,0,27-12.088,27-27V91
	l-37.597-15.014C368.404,75.986,143.596,75.986,143.596,75.986z"/>
<g>
	<path style="fill:#FFFFFF;" d="M256.001,140.221L192.908,37l-49.311,38.986l0,0c29.942,27.966,65.652,49.027,104.613,61.701
		L256.001,140.221z"/>
	<path style="fill:#FFFFFF;" d="M255.999,140.221L319.093,37l49.311,38.986l0,0c-29.942,27.966-65.652,49.027-104.613,61.701
		L255.999,140.221z"/>
</g>
<polygon style="fill:#F67B37;" points="192.908,37 319.095,37 255.999,140.221 "/>
<g>
	<path style="fill:#FEB756;" d="M438.948,431.962l9.053,43.039l54-13.977l-6.395-41.366c-2.82-0.868-4.605-1.407-4.605-1.407
		l-51.223,12.573C439.779,430.824,439.475,431.233,438.948,431.962z"/>
	<path style="fill:#FEB756;" d="M73.054,431.962l-9.053,43.039l-54-13.977l6.395-41.366c2.82-0.868,4.605-1.407,4.605-1.407
		l51.223,12.573C72.224,430.824,72.528,431.233,73.054,431.962z"/>
</g>
<path d="M511.884,459.496l-49.776-322c-3.079-19.915-15.652-37.236-33.634-46.333l-17.958-9.085
	c-0.014-0.007-37.052-14.838-37.052-14.838l-48.168-38.083c-1.778-1.405-3.965-2.141-6.198-2.143
	c-0.001-0.005-0.001-0.009-0.002-0.013H192.908c-0.001,0.005-0.003,0.008-0.004,0.013c-2.233,0.002-4.42,0.737-6.198,2.143
	l-48.17,38.084l-36.109,14.42c-0.004,0.001-18.898,9.503-18.898,9.503c-17.981,9.097-30.555,26.418-33.634,46.333l-49.776,322
	c-0.785,5.077,2.404,9.922,7.377,11.209l54,13.977c0.826,0.213,1.667,0.319,2.505,0.319c1.846,0,3.674-0.511,5.271-1.501
	c2.321-1.44,3.953-3.767,4.515-6.44L96,371.452v22.55c0,9.831,3.862,18.773,10.139,25.406c-0.083,0.52-0.139,1.05-0.139,1.594v54
	c0,5.523,4.477,10,10,10h280c5.523,0,10-4.477,10-10v-54c0-0.544-0.055-1.074-0.139-1.594c6.277-6.633,10.139-15.574,10.139-25.406
	v-22.55l22.214,105.609c0.562,2.673,2.194,5,4.515,6.44c1.597,0.99,3.425,1.501,5.271,1.501c0.838,0,1.68-0.105,2.505-0.319
	l54-13.977C509.48,469.418,512.669,464.572,511.884,459.496z M256,121.046L210.741,47h90.521L256,121.046z M321.741,51.842
	l31.132,24.614c-21.906,18.725-46.942,33.987-73.633,44.917L321.741,51.842z M190.26,51.842l42.5,69.53
	c-26.69-10.93-51.727-26.192-73.633-44.917L190.26,51.842z M141.502,87.591c29.875,26.669,65.561,47.227,103.615,59.605l7.792,2.535
	c1.018,0.331,2.061,0.491,3.092,0.491c1.055,0,2.096-0.177,3.09-0.5c0.001,0.003,0.002,0.006,0.003,0.008l7.791-2.534
	c38.054-12.378,73.74-32.937,103.615-59.605l25.502,10.184v296.226c0,9.374-7.626,17-17,17h-113V227.312c0-5.523-4.477-10-10-10
	c-5.523,0-10,4.477-10,10V411h-113c-9.374,0-17-7.626-17-17V97.775L141.502,87.591z M21.267,453.61l3.723-24.084l36.475,8.953
	l-5.094,24.216L21.267,453.61z M65.583,418.896l-37.528-9.211L69.66,140.552c2.096-13.558,10.656-25.35,22.897-31.543l3.444-1.742
	v167.022L65.583,418.896z M386.001,465h-56v-12.272c0-5.523-4.477-10-10-10s-10,4.477-10,10V465H202.908v-12.272
	c0-5.523-4.477-10-10-10s-10,4.477-10,10V465h-56.906v-34h7h113v17c0,5.523,4.477,10,10,10s10-4.477,10-10v-17h113h7V465z
	 M416.001,107.266l3.443,1.742c12.242,6.193,20.802,17.985,22.897,31.543l41.604,269.133l-37.528,9.211l-30.416-144.606V107.266z
	 M455.632,462.696l-5.094-24.216l36.475-8.953l3.723,24.084L455.632,462.696z"/>
<path d="M256.001,198.35c2.63,0,5.21-1.06,7.07-2.92c1.86-1.87,2.93-4.44,2.93-7.08c0-2.63-1.07-5.21-2.93-7.07
	s-4.44-2.93-7.07-2.93c-2.63,0-5.21,1.07-7.07,2.93c-1.86,1.86-2.93,4.44-2.93,7.07c0,2.64,1.07,5.21,2.93,7.08
	C250.792,197.29,253.372,198.35,256.001,198.35z"/>
<g>
</g>
<g>
</g>
<g>
</g>
<g>
</g>
<g>
</g>
<g>
</g>
<g>
</g>
<g>
</g>
<g>
</g>
<g>
</g>
<g>
</g>
<g>
</g>
<g>
</g>
<g>
</g>
<g>
</g>
</svg>
