<?xml version="1.0" encoding="iso-8859-1"?>
<!-- Generator: Adobe Illustrator 19.0.0, SVG Export Plug-In . SVG Version: 6.00 Build 0)  -->
<svg version="1.1" id="Capa_1" xmlns="http://www.w3.org/2000/svg"  x="0px" y="0px"
	 viewBox="0 0 490 490" style="enable-background:new 0 0 490 490;" xml:space="preserve">
<path id="XMLID_1492_" d="M425,0h-60H125H65C29.159,0,0,30.978,0,69.054c0,0.22,0.005,0.441,0.015,0.661l15.263,345.946
	C15.631,423.681,22.236,430,30.263,430H90v45c0,8.284,6.716,15,15,15h280c8.284,0,15-6.716,15-15v-45h59.737
	c8.027,0,14.632-6.319,14.985-14.339l15.263-345.946c0.01-0.22,0.015-0.441,0.015-0.661C490,30.978,460.841,0,425,0z
	 M459.999,68.747L448.031,340H400V165c0-4.048-1.634-7.881-4.458-10.672c-1.78-1.779-42.445-42.444-68.478-68.477
	c15.052-5.646,27.676-16.789,35.172-31.782L374.271,30H425C444.207,30,459.851,47.353,459.999,68.747z M340.729,30l-5.326,10.652
	C329.437,52.586,317.441,60,304.098,60H195.005c-0.003,0-9.103,0-9.103,0c-13.343,0-25.338-7.414-31.305-19.347L149.271,30H340.729z
	 M65,30h50.729l12.034,24.069c7.497,14.993,20.12,26.136,35.172,31.782l-68.543,68.543C91.581,157.207,90,161.021,90,165v175H41.969
	L30.001,68.747C30.149,47.353,45.793,30,65,30z M44.616,400l-1.324-30H90v30H44.616z M370,460H120V171.213L201.213,90h87.574
	L370,171.213V460z M400,400v-30h46.707l-1.324,30H400z"/>
<g>
</g>
<g>
</g>
<g>
</g>
<g>
</g>
<g>
</g>
<g>
</g>
<g>
</g>
<g>
</g>
<g>
</g>
<g>
</g>
<g>
</g>
<g>
</g>
<g>
</g>
<g>
</g>
<g>
</g>
</svg>
