<?xml version="1.0" encoding="iso-8859-1"?>
<!-- Generator: Adobe Illustrator 19.0.0, SVG Export Plug-In . SVG Version: 6.00 Build 0)  -->
<svg version="1.1" id="Capa_1" xmlns="http://www.w3.org/2000/svg"  x="0px" y="0px"
	 viewBox="0 0 413.192 413.192" style="enable-background:new 0 0 413.192 413.192;" xml:space="preserve">
<path id="XMLID_328_" d="M407.907,103.244l-74.53-82.445c-1.706-1.888-4.132-2.965-6.676-2.965h-22.225L282.771,1.815
	C282.022,1.25,280.68,0,277.255,0H135.936c-2.715,0-4.686,1.189-5.512,1.813l-21.705,16.021H86.491c-2.544,0-4.97,1.077-6.676,2.965
	l-74.53,82.445c-1.656,1.831-2.486,4.263-2.297,6.724l19.669,256.273c0.36,4.688,4.269,8.311,8.971,8.312l24.161,0.007
	l13.432,33.023c1.379,3.392,4.676,5.609,8.337,5.609h258.076c3.661,0,6.958-2.218,8.337-5.609l13.432-33.023l24.163-0.007
	c4.703-0.001,8.611-3.623,8.971-8.312l19.667-256.273C410.394,107.507,409.563,105.075,407.907,103.244z M144.843,18H268.35v8.834
	c0,21.048-17.123,38.171-38.168,38.171h-47.168c-21.047,0-38.17-17.123-38.17-38.171V18z M39.967,356.555l-1.589-20.701h47.583
	l-1.196,20.714L39.967,356.555z M373.228,356.555l-44.798,0.013l-1.196-20.714h47.583L373.228,356.555z M376.198,317.854h-50.004
	l-6.915-119.767c3.021,1.93,7.036,1.935,10.117-0.29c4.029-2.911,4.936-8.536,2.026-12.565l-15.473-21.422
	c-0.042-0.059-0.084-0.117-0.127-0.176l-15.483-21.435c-2.911-4.029-8.536-4.937-12.566-2.026c-4.029,2.91-4.936,8.536-2.026,12.565
	l14.004,19.387l11.199,193.964c0.275,4.762,4.216,8.481,8.985,8.481c0.001,0,0.002,0,0.002,0l18.033-0.005l-8.39,20.627H83.613
	l-8.39-20.627l18.034,0.005c0.001,0,0.001,0,0.002,0c4.769,0,8.71-3.721,8.985-8.481l11.199-193.965l14.003-19.385
	c2.911-4.029,2.004-9.655-2.025-12.566c-4.028-2.908-9.655-2.004-12.565,2.025L81.771,185.23c-2.911,4.029-2.004,9.655,2.025,12.566
	c3.082,2.226,7.099,2.218,10.119,0.289L87,317.854H36.997L21.231,112.446l69.257-76.612h21.193c1.924,0,3.797-0.616,5.345-1.759
	l9.817-7.246v0.005c0,30.973,25.198,56.171,56.17,56.171h47.168c30.972,0,56.168-25.198,56.168-56.171v-0.007l9.821,7.248
	c1.548,1.143,3.421,1.759,5.344,1.759h21.189l69.257,76.612L376.198,317.854z M124.914,356.568H288.28c4.971,0,9,4.029,9,9
	s-4.029,9-9,9H124.914c-4.971,0-9-4.029-9-9S119.943,356.568,124.914,356.568z"/>
<g>
</g>
<g>
</g>
<g>
</g>
<g>
</g>
<g>
</g>
<g>
</g>
<g>
</g>
<g>
</g>
<g>
</g>
<g>
</g>
<g>
</g>
<g>
</g>
<g>
</g>
<g>
</g>
<g>
</g>
</svg>
