<?xml version="1.0" standalone="no"?>
<!DOCTYPE svg PUBLIC "-//W3C//DTD SVG 20010904//EN"
        "http://www.w3.org/TR/2001/REC-SVG-20010904/DTD/svg10.dtd">
<svg version="1.0" xmlns="http://www.w3.org/2000/svg"
     width="180.000000pt" height="180.000000pt" viewBox="0 0 180.000000 180.000000"
     preserveAspectRatio="xMidYMid meet">
    <metadata>
        Created by potrace 1.11, written by Peter Selinger 2001-2013
    </metadata>
    <g transform="translate(0.000000,180.000000) scale(0.100000,-0.100000)"
       fill="#000000" stroke="none">
        <path d="M875 1730 c-3 -5 -33 -22 -65 -37 -33 -15 -60 -31 -60 -35 0 -4 -11
-8 -24 -8 -13 0 -29 -7 -36 -15 -7 -8 -20 -15 -30 -15 -10 0 -23 -7 -30 -15
-13 -15 -118 -69 -157 -80 -13 -3 -23 -11 -23 -16 0 -5 -11 -9 -23 -9 -13 0
-32 -9 -42 -20 -10 -11 -24 -20 -32 -20 -7 0 -13 -4 -13 -10 0 -5 -11 -12 -25
-16 -21 -5 -110 -48 -203 -98 -15 -8 -35 -17 -45 -20 -10 -3 -16 -10 -13 -15
8 -12 1668 -12 1687 0 10 6 5 10 -18 15 -18 4 -33 10 -33 14 0 3 -60 37 -134
74 -74 37 -140 73 -146 81 -7 8 -23 15 -35 15 -13 0 -26 7 -29 16 -4 10 -14
14 -26 11 -11 -3 -23 -1 -26 4 -3 5 -20 16 -37 24 -18 8 -40 19 -49 25 -36 20
-55 30 -136 71 -45 23 -85 45 -88 50 -3 5 -13 9 -23 9 -10 0 -24 7 -31 15 -14
17 -46 20 -55 5z m78 -150 c14 -11 29 -20 33 -20 13 0 154 -72 160 -81 3 -5
13 -9 22 -9 9 -1 30 -11 46 -24 27 -22 27 -25 10 -33 -14 -6 -569 -10 -651 -4
-19 1 -16 28 5 35 9 3 37 17 61 31 24 14 50 25 57 25 7 0 18 9 24 19 6 12 17
17 28 14 10 -2 24 3 31 11 8 9 21 16 31 16 10 0 23 6 30 14 11 14 33 21 71 25
9 0 28 -8 42 -19z"/>
        <path d="M23 1222 c-19 -3 -23 -10 -23 -37 0 -38 11 -43 120 -48 l55 -2 3 -37
c2 -20 10 -42 18 -48 21 -18 21 -702 0 -720 -8 -6 -16 -30 -18 -53 l-3 -42
-65 0 c-118 -1 -110 4 -110 -70 l0 -65 870 -1 c479 -1 876 -2 883 -3 8 -1 12
19 12 69 l0 70 -70 3 c-75 3 -87 11 -78 54 5 23 1 29 -21 38 l-26 10 0 350 0
350 24 10 c19 7 25 17 28 47 l3 38 70 5 70 5 -3 34 c-1 19 -5 37 -8 40 -6 6
-1695 9 -1731 3z m545 -125 c2 -22 10 -41 18 -44 21 -8 21 -705 0 -723 -8 -6
-16 -28 -18 -48 -3 -36 -4 -37 -57 -45 -76 -12 -104 1 -96 46 5 24 2 37 -9 46
-14 12 -16 57 -16 361 0 297 2 349 15 360 8 7 15 27 15 45 0 17 3 35 7 39 4 4
37 6 73 4 l65 -3 3 -38z m390 1 c2 -25 10 -41 23 -48 18 -10 19 -25 19 -360 0
-345 0 -349 -21 -361 -17 -8 -20 -17 -15 -40 9 -44 -13 -59 -81 -52 -84 7 -85
8 -78 46 5 24 2 37 -9 46 -14 12 -16 57 -16 361 0 297 2 349 15 360 8 7 15 27
15 45 0 17 3 35 7 39 4 4 37 6 73 4 l65 -3 3 -37z m391 28 c7 -8 9 -25 6 -39
-5 -19 -2 -28 14 -37 21 -11 21 -16 21 -360 0 -292 -2 -350 -14 -357 -8 -4
-16 -26 -18 -48 -3 -39 -4 -40 -45 -46 -63 -8 -83 3 -83 47 0 27 -5 37 -20 41
-20 5 -20 14 -20 359 0 343 1 354 20 364 14 7 20 21 20 44 0 18 3 36 7 39 12
13 100 7 112 -7z"/>
    </g>
</svg>
