<?xml version="1.0" encoding="iso-8859-1"?>
<!-- Generator: Adobe Illustrator 19.0.0, SVG Export Plug-In . SVG Version: 6.00 Build 0)  -->
<svg version="1.1" id="Capa_1" xmlns="http://www.w3.org/2000/svg"  x="0px" y="0px"
	 viewBox="0 0 407.268 407.268" style="enable-background:new 0 0 407.268 407.268;" xml:space="preserve">
<path id="XMLID_60_" d="M352.594,327.935v-1.99c0-4.971,4.029-9,9-9s9,4.029,9,9v1.99c0,4.971-4.029,9-9,9
	S352.594,332.906,352.594,327.935z M45.714,336.935c4.971,0,9-4.029,9-9v-1.99c0-4.971-4.029-9-9-9s-9,4.029-9,9v1.99
	C36.714,332.906,40.743,336.935,45.714,336.935z M203.634,352.203c-4.971,0-9,4.029-9,9v1.989c0,4.971,4.029,9,9,9s9-4.029,9-9
	v-1.989C212.634,356.232,208.604,352.203,203.634,352.203z M407.26,143.813l-9.503,221.412c-0.207,4.816-4.171,8.614-8.992,8.614
	h-52.805c-4.74,0-8.667-3.677-8.98-8.406l-13.793-208.517l-4.473-2.263l-8.242,90.695l9.461,152.361
	c0.154,2.479-0.724,4.911-2.425,6.722c-1.701,1.81-4.074,2.836-6.558,2.836H106.318c-2.484,0-4.857-1.026-6.558-2.836
	c-1.701-1.811-2.579-4.243-2.425-6.722l9.461-152.361l-8.242-90.695l-4.474,2.264L80.289,365.433
	c-0.313,4.729-4.241,8.406-8.98,8.406H18.506c-4.82,0-8.785-3.798-8.992-8.614L0.008,143.813c-0.042-0.983,0.077-1.968,0.354-2.912
	l20.5-70.09c0.8-2.735,2.848-4.93,5.521-5.917l83.034-30.649V9c0-4.971,4.029-9,9-9h23.209c1.854,0,6.605,2.021,7.305,2.366
	c13.94,6.895,33.878,10.849,54.703,10.849c20.825,0,40.763-3.954,54.704-10.849C259.037,2.021,263.788,0,265.642,0h23.21
	c4.971,0,9,4.029,9,9v25.244l83.034,30.649c2.673,0.987,4.722,3.182,5.521,5.917l20.499,70.09
	C407.183,141.846,407.302,142.829,407.26,143.813z M212.634,71.35v36.176l67.218-63.379V18h-10.636L212.634,71.35z M176.068,29.105
	l27.566,25.991L231.2,29.105c-8.761,1.389-18.038,2.11-27.566,2.11C194.106,31.215,184.829,30.494,176.068,29.105z M127.417,44.147
	l67.216,63.378V71.35L138.053,18h-10.635V44.147z M66.222,305.372H24.961l2.167,50.467h35.756L66.222,305.372z M382.309,305.372
	h-41.263l3.338,50.467h35.758L382.309,305.372z M389.213,144.527l-18.81-64.315l-73.983-27.309
	c-0.392,0.608-0.858,1.172-1.393,1.676l-85.175,80.31c-1.554,1.487-6.53,6.278-11.898,0.475c-0.165-0.178-85.71-80.784-85.71-80.784
	c-0.535-0.504-1.001-1.068-1.393-1.676L36.866,80.211l-18.811,64.315l6.133,142.846h43.224l9.046-136.764
	c0.21-3.174,2.08-6.001,4.918-7.438l20.879-10.563c2.66-1.346,5.815-1.285,8.424,0.158c2.608,1.445,4.332,4.089,4.602,7.059
	l9.503,104.58c0.042,0.456,0.048,0.915,0.02,1.372l-8.91,143.49h175.479l-8.91-143.49c-0.028-0.457-0.021-0.916,0.02-1.372
	l9.503-104.58c0.27-2.97,1.993-5.613,4.602-7.059c2.609-1.443,5.764-1.504,8.424-0.157l20.878,10.563
	c2.838,1.436,4.708,4.263,4.917,7.437l9.047,136.764h43.226L389.213,144.527z M203.634,199.432c-4.971,0-9,4.029-9,9v1.99
	c0,4.971,4.029,9,9,9s9-4.029,9-9v-1.99C212.634,203.461,208.604,199.432,203.634,199.432z M203.634,161.24c-4.971,0-9,4.029-9,9
	v1.99c0,4.971,4.029,9,9,9s9-4.029,9-9v-1.99C212.634,165.269,208.604,161.24,203.634,161.24z M203.634,237.624
	c-4.971,0-9,4.029-9,9v1.99c0,4.971,4.029,9,9,9s9-4.029,9-9v-1.99C212.634,241.654,208.604,237.624,203.634,237.624z
	 M203.634,314.01c-4.971,0-9,4.029-9,9v1.989c0,4.971,4.029,9,9,9s9-4.029,9-9v-1.989
	C212.634,318.039,208.604,314.01,203.634,314.01z M203.634,275.818c-4.971,0-9,4.029-9,9v1.99c0,4.971,4.029,9,9,9s9-4.029,9-9
	v-1.99C212.634,279.847,208.604,275.818,203.634,275.818z"/>
<g>
</g>
<g>
</g>
<g>
</g>
<g>
</g>
<g>
</g>
<g>
</g>
<g>
</g>
<g>
</g>
<g>
</g>
<g>
</g>
<g>
</g>
<g>
</g>
<g>
</g>
<g>
</g>
<g>
</g>
</svg>
