<?xml version="1.0" encoding="iso-8859-1"?>
<!-- Generator: Adobe Illustrator 19.0.0, SVG Export Plug-In . SVG Version: 6.00 Build 0)  -->
<svg version="1.1" id="Layer_1" xmlns="http://www.w3.org/2000/svg"  x="0px" y="0px"
	 viewBox="0 0 512 512" style="enable-background:new 0 0 512 512;" xml:space="preserve">
<path style="fill:#FF8E00;" d="M378.672,403.013h98.156v53.151c0,6.925-5.614,12.539-12.539,12.539h-85.617V403.013z"/>
<path style="fill:#FFBA00;" d="M133.327,403.013H35.172v53.151c0,6.925,5.614,12.539,12.539,12.539h85.617V403.013z"/>
<path style="fill:#960022;" d="M373.036,53.897h-40.184V0H179.145v53.897h-40.184c-57.322,0-103.791,46.469-103.791,103.791V423.91
	h77.258V512h287.141v-88.089h77.258V157.688C476.827,100.366,430.358,53.897,373.036,53.897z"/>
<path style="fill:#DE0436;" d="M255.999,512V0h-76.854v53.897h-40.184c-57.322,0-103.791,46.469-103.791,103.791V423.91h77.258V512
	H255.999z"/>
<rect x="209.481" style="fill:#960022;" width="31.347" height="53.897"/>
<rect x="271.171" style="fill:#DE0436;" width="31.347" height="53.897"/>
<rect x="35.172" y="202.104" style="fill:#FF8E00;" width="441.657" height="136.338"/>
<g>
	<rect x="35.172" y="202.104" style="fill:#FFBA00;" width="220.829" height="136.338"/>
	<polygon style="fill:#FFBA00;" points="454.278,233.88 414.625,266.217 374.972,233.88 335.317,266.217 295.667,233.878 
		256.016,266.217 216.361,233.88 176.706,266.217 137.049,233.881 97.392,266.218 57.731,233.882 35.172,252.275 35.172,292.721 
		57.731,274.326 97.393,306.665 137.049,274.328 176.706,306.665 216.361,274.329 256.017,306.666 295.667,274.33 335.316,306.666 
		374.972,274.329 414.625,306.666 454.278,274.329 476.827,292.719 476.827,252.27 	"/>
</g>
<polygon style="fill:#FDE09C;" points="255.999,266.203 216.361,233.88 176.706,266.217 137.049,233.881 97.392,266.218 
	57.731,233.882 35.172,252.275 35.172,292.721 57.731,274.326 97.393,306.665 137.049,274.328 176.706,306.665 216.361,274.329 
	255.999,306.651 "/>
<rect x="80.979" y="144.739" style="fill:#960022;" width="31.347" height="279.176"/>
<rect x="399.568" y="144.739" style="fill:#DE0436;" width="31.347" height="279.176"/>
<g>
</g>
<g>
</g>
<g>
</g>
<g>
</g>
<g>
</g>
<g>
</g>
<g>
</g>
<g>
</g>
<g>
</g>
<g>
</g>
<g>
</g>
<g>
</g>
<g>
</g>
<g>
</g>
<g>
</g>
</svg>
