<?xml version="1.0" encoding="iso-8859-1"?>
<!-- Generator: Adobe Illustrator 17.1.0, SVG Export Plug-In . SVG Version: 6.00 Build 0)  -->
<!DOCTYPE svg PUBLIC "-//W3C//DTD SVG 1.1//EN" "http://www.w3.org/Graphics/SVG/1.1/DTD/svg11.dtd">
<svg version="1.1" id="Capa_1" xmlns="http://www.w3.org/2000/svg"  x="0px" y="0px"
	 viewBox="0 0 397.169 397.169" style="enable-background:new 0 0 397.169 397.169;" xml:space="preserve">
<path d="M394.689,219.623L354.874,46.616c-1.68-7.296-8.497-15.041-15.521-17.632L276.771,5.893
	c-1.611-0.595-3.298-0.896-5.014-0.896c-6.062,0-11.579,3.779-13.729,9.404l-57.495,150.414c-0.894,2.337-1.783,2.975-1.927,3.018
	c-0.188-0.043-1.078-0.681-1.972-3.018L139.14,14.401c-2.149-5.625-7.667-9.404-13.729-9.404c-1.716,0-3.402,0.301-5.014,0.896
	L57.817,28.984c-7.024,2.591-13.842,10.336-15.521,17.633L2.48,219.623c-1.522,6.619-2.628,17.525-2.464,24.312l3.181,131.788
	c0.19,7.902,6.771,14.614,14.667,14.963l21.653,0.955c8.05,0.35,14.743-5.871,15.038-13.869l4.925-133.81
	c0.238-6.448,1.862-16.742,3.621-22.948l26.197-92.431l4.205,96.714c0.28,6.443-0.523,16.831-1.791,23.154l-16.648,83.027
	c-1.305,6.505-3.187,17.155-4.195,23.741l-3.4,22.212c-0.596,3.887,0.404,7.575,2.816,10.384c2.411,2.81,5.905,4.356,9.839,4.356
	h236.922c3.934,0,7.428-1.547,9.839-4.356c2.412-2.809,3.412-6.497,2.816-10.384l-3.4-22.212
	c-1.009-6.586-2.891-17.236-4.195-23.741l-16.648-83.026c-1.268-6.324-2.071-16.711-1.791-23.155l4.205-96.714l26.197,92.431
	c1.759,6.206,3.383,16.5,3.621,22.947l4.925,133.811c0.295,7.997,6.97,14.217,15.038,13.868l21.653-0.955
	c7.896-0.349,14.477-7.061,14.667-14.962l3.181-131.789C397.317,237.149,396.211,226.242,394.689,219.623z"/>
<g>
</g>
<g>
</g>
<g>
</g>
<g>
</g>
<g>
</g>
<g>
</g>
<g>
</g>
<g>
</g>
<g>
</g>
<g>
</g>
<g>
</g>
<g>
</g>
<g>
</g>
<g>
</g>
<g>
</g>
</svg>
