<?xml version="1.0" encoding="iso-8859-1"?>
<!-- Generator: Adobe Illustrator 19.0.0, SVG Export Plug-In . SVG Version: 6.00 Build 0)  -->
<svg version="1.1" id="Layer_1" xmlns="http://www.w3.org/2000/svg"  x="0px" y="0px"
	 viewBox="0 0 512 512" style="enable-background:new 0 0 512 512;" xml:space="preserve">
<g>
	<rect x="46.498" y="450.351" style="fill:#FFFFFF;" width="72.62" height="29.257"/>
	<rect x="392.882" y="450.351" style="fill:#FFFFFF;" width="72.62" height="29.257"/>
</g>
<g>
	<path style="fill:#FF6A2A;" d="M429.074,81.425l-96.796-30.747V7.837H179.722v42.841L82.926,81.425
		c-21.693,6.89-36.428,27.033-36.428,49.794v319.133h72.62v53.812h273.763v-53.812h72.62V131.218
		C465.502,108.457,450.767,88.315,429.074,81.425z"/>
</g>
<rect x="179.722" y="7.837" style="fill:#CD5421;" width="152.555" height="42.841"/>
<rect x="392.882" y="242.416" style="fill:#FFE789;" width="72.62" height="135.837"/>
<rect x="392.882" y="242.416" style="fill:#DDB92E;" width="21.943" height="135.837"/>
<rect x="46.498" y="241.371" style="fill:#FFE789;" width="72.62" height="135.837"/>
<path style="fill:#FFFFFF;" d="M108.669,73.247v6.802l-4.326,1.379c-21.692,6.886-36.425,27.032-36.425,49.789v319.133h-21.42
	V131.218c0-22.758,14.733-42.904,36.425-49.789L108.669,73.247z"/>
<rect x="97.176" y="241.371" style="fill:#DDB92E;" width="21.943" height="135.837"/>
<rect x="119.118" y="221.518" style="fill:#FFE789;" width="273.763" height="135.837"/>
<rect x="119.118" y="472.816" style="fill:#FFFFFF;" width="273.763" height="31.347"/>
<rect x="111.282" y="164.049" width="15.673" height="15.673"/>
<path d="M431.446,73.956l-91.331-29.012V0H171.886v44.944L80.554,73.956c-25.058,7.96-41.893,30.972-41.893,57.262v311.296v15.673
	v29.257h72.62V512h7.837h273.763h7.837v-24.555h72.62v-29.257v-15.673V131.218C473.339,104.928,456.503,81.916,431.446,73.956z
	 M457.665,370.416h-56.947V250.253h56.947V370.416z M166.034,480.653v15.673h-11.703v-15.673H166.034z M181.708,480.653h11.703
	v15.673h-11.703V480.653z M209.084,480.653h11.703v15.673h-11.703V480.653z M236.46,480.653h11.703v15.673H236.46V480.653z
	 M263.837,480.653h11.703v15.673h-11.703V480.653L263.837,480.653z M291.213,480.653h11.703v15.673h-11.703V480.653z
	 M318.589,480.653h11.703v15.673h-11.703V480.653z M345.966,480.653h11.703v15.673h-11.703V480.653z M126.955,464.98v-99.788h258.09
	v99.788H126.955z M126.955,229.355h258.09v120.163h-258.09V229.355z M111.282,369.371H54.335V249.208h56.947V369.371z
	 M324.441,42.841h-14.838V15.673h14.838V42.841z M218.07,42.841V15.673h14.838v27.167H218.07z M248.581,15.673h14.838v27.167
	h-14.838V15.673z M279.092,15.673h14.838v27.167h-14.838V15.673z M202.397,15.673v27.167h-14.838V15.673H202.397z M85.299,88.894
	l95.637-30.379h150.127l95.637,30.379c18.521,5.883,30.964,22.892,30.964,42.325V234.58h-56.947v-39.184h-15.673v18.286h-258.09
	v-18.286h-15.673v38.139H54.335V131.218C54.335,111.785,66.778,94.776,85.299,88.894z M54.335,385.045h56.947v57.469H54.335V385.045
	z M87.074,458.188v13.584h-8.533v-13.584H87.074z M54.335,458.188h8.534v13.584h-8.534V458.188z M102.748,471.771v-13.584h8.534
	v13.584H102.748z M126.955,480.653h11.703v15.673h-11.703V480.653z M373.342,496.327v-15.673h11.703v15.673H373.342z
	 M400.718,458.188h8.534v13.584h-8.534V458.188z M433.458,458.188v13.584h-8.533v-13.584H433.458z M457.665,471.771h-8.534v-13.584
	h8.534V471.771z M400.718,442.514V386.09h56.947v56.424H400.718z"/>
<rect x="385.045" y="161.437" width="15.673" height="18.286"/>
<g>
</g>
<g>
</g>
<g>
</g>
<g>
</g>
<g>
</g>
<g>
</g>
<g>
</g>
<g>
</g>
<g>
</g>
<g>
</g>
<g>
</g>
<g>
</g>
<g>
</g>
<g>
</g>
<g>
</g>
</svg>
