<?xml version="1.0" encoding="iso-8859-1"?>
<!-- Generator: Adobe Illustrator 18.1.1, SVG Export Plug-In . SVG Version: 6.00 Build 0)  -->
<svg version="1.1" id="Capa_1" xmlns="http://www.w3.org/2000/svg"  x="0px" y="0px"
	 viewBox="0 0 246.688 246.688" style="enable-background:new 0 0 246.688 246.688;" xml:space="preserve">
<g>
	<path style="fill:#010002;" d="M246.674,72.269c0.234,1.871-2.491,7.849-4.346,13.565c-0.386,1.18-0.756,2.328-1.11,3.427
		c-1.844,5.722-4.493,12.162-6.744,12.129c-2.252-0.038-8.436-2.66-14.267-4.101l-39.64-9.763
		c-5.831-1.441-10.563,2.263-10.568,8.273l-0.033,87.112c0,6.01-3.606,14.256-8.909,17.073c-16.79,8.926-37.921,8.072-37.921,8.072
		c-18.118,0-29.996-4.101-37.122-7.903c-5.298-2.834-8.746-11.232-8.73-17.242l0.267-87.112c0.016-6.01-4.737-9.883-10.617-8.659
		l-41.081,8.583c-5.88,1.235-12.254,3.345-14.533,3.78c-2.279,0.424-5.205-5.706-6.891-11.471l-0.25-0.87
		C2.493,81.39,0.165,75.216,0.007,73.128c-0.158-2.083,2.295-4.068,4.036-4.634l3.155-1.023
		c32.08-12.298,50.393-19.972,60.183-24.291c5.493-2.42,14.74-4.569,20.75-4.569h0.473c6.005,0,10.84,5.64,15.523,9.404
		c6.891,5.548,19.01,5.809,19.01,5.809c9.203,0,14.669-2.627,17.916-5.684c4.368-4.134,9.605-9.529,15.616-9.529h1.942
		c6.005,0,15.741,0.479,21.408,2.464c14.963,5.243,40.565,17.476,54.51,24.318C239.919,68.031,246.44,70.397,246.674,72.269z"/>
</g>
<g>
</g>
<g>
</g>
<g>
</g>
<g>
</g>
<g>
</g>
<g>
</g>
<g>
</g>
<g>
</g>
<g>
</g>
<g>
</g>
<g>
</g>
<g>
</g>
<g>
</g>
<g>
</g>
<g>
</g>
</svg>
