<?xml version="1.0" encoding="iso-8859-1"?>
<!-- Generator: Adobe Illustrator 18.0.0, SVG Export Plug-In . SVG Version: 6.00 Build 0)  -->
<!DOCTYPE svg PUBLIC "-//W3C//DTD SVG 1.1//EN" "http://www.w3.org/Graphics/SVG/1.1/DTD/svg11.dtd">
<svg version="1.1" id="Capa_1" xmlns="http://www.w3.org/2000/svg"  x="0px" y="0px"
	 viewBox="0 0 297 297" style="enable-background:new 0 0 297 297;" xml:space="preserve">
<g>
	<path d="M267.976,77.277c-0.017-0.048-0.036-0.097-0.054-0.146l-11.584-30.644c-3.423-8.491-12.529-14.193-22.682-14.193
		c-2.294,0-4.57,0.293-6.769,0.87c-25.352,6.749-51.536,10.173-77.803,10.173c-26.27,0-52.451-3.424-77.827-10.18
		c-2.173-0.57-4.451-0.863-6.744-0.863c-10.153,0-19.261,5.702-22.684,14.193L30.249,77.131c-0.018,0.05-0.036,0.099-0.055,0.146
		c-1.588,3.952-3.253,8.642-0.964,13.203c2.234,4.451,3.694,8.355,8.694,11.271v156.45c0,3.988,3.517,7.219,7.499,7.219
		c3.986,0,7.501-3.23,7.501-7.219v-27.607h23v27.607c0,3.988,3.517,7.219,7.501,7.219s7.499-3.23,7.499-7.219v-27.607h25v27.607
		c0,3.988,3.017,7.219,6.999,7.219c3.984,0,7.001-3.23,7.001-7.219V118.23c6,0.292,12.609,0.439,18.677,0.439
		c32.805,0,65.751-4.277,97.446-12.715c9.266-2.456,17.086-8.24,20.714-15.475C269.051,85.919,269.561,81.229,267.976,77.277z"/>
	<path d="M168.924,133.638v156.143c0,3.985,3.517,7.219,7.501,7.219c3.986,0,7.499-3.233,7.499-7.219v-26.186h23v26.186
		c0,3.985,3.513,7.219,7.501,7.219c3.984,0,7.499-3.233,7.499-7.219v-26.186h24v26.186c0,3.985,3.517,7.219,7.501,7.219
		c3.985,0,7.499-3.233,7.499-7.219V118.439c-3,0.97-6.252,1.792-8.732,2.452C225.489,127.997,196.924,132.268,168.924,133.638z"/>
	<path d="M73.923,18.069c24.101,6.418,50.239,9.815,75.162,9.815c24.923,0,51.083-3.399,75.162-9.811
		c-4.688-6.424-12.749-11.339-22.163-13.109C184.651,1.671,166.821,0,149.085,0c-17.738,0-35.568,1.671-52.992,4.963
		C86.671,6.734,78.608,11.646,73.923,18.069z"/>
</g>
<g>
</g>
<g>
</g>
<g>
</g>
<g>
</g>
<g>
</g>
<g>
</g>
<g>
</g>
<g>
</g>
<g>
</g>
<g>
</g>
<g>
</g>
<g>
</g>
<g>
</g>
<g>
</g>
<g>
</g>
</svg>
