<?xml version="1.0" encoding="iso-8859-1"?>
<!-- Generator: Adobe Illustrator 19.0.0, SVG Export Plug-In . SVG Version: 6.00 Build 0)  -->
<svg version="1.1" id="Capa_1" xmlns="http://www.w3.org/2000/svg"  x="0px" y="0px"
	 viewBox="0 0 480 480" style="enable-background:new 0 0 480 480;" xml:space="preserve">
<g>
	<g>
		<path d="M453,92H312V66c-0.009-12.147-9.853-21.991-22-22H190c-12.147,0.009-21.991,9.853-22,22v26H27
			c-14.904,0.018-26.982,12.096-27,27v290c0.018,14.904,12.096,26.982,27,27h426c14.904-0.018,26.982-12.096,27-27V119
			C479.982,104.096,467.904,92.018,453,92z M184,66c0.004-3.312,2.688-5.996,6-6h100c3.312,0.004,5.996,2.688,6,6v26H184V66z
			 M464,409c-0.009,6.071-4.929,10.991-11,11H27c-6.071-0.009-10.991-4.929-11-11V225.664c23.688,11.616,82.448,33.248,192,34.272
			V284c0,4.418,3.582,8,8,8h48c4.418,0,8-3.582,8-8v-24.064c109.552-1.024,168.312-22.656,192-34.272V409z M224,276v-56h32v56H224z
			 M464,207.52c-13.68,7.776-70.552,35.2-192,36.416V212c0-4.418-3.582-8-8-8h-48c-4.418,0-8,3.582-8,8v31.936
			C86.568,242.76,29.688,215.312,16,207.52V119c0.009-6.071,4.929-10.991,11-11h426c6.071,0.009,10.991,4.929,11,11V207.52z"/>
	</g>
</g>
<g>
</g>
<g>
</g>
<g>
</g>
<g>
</g>
<g>
</g>
<g>
</g>
<g>
</g>
<g>
</g>
<g>
</g>
<g>
</g>
<g>
</g>
<g>
</g>
<g>
</g>
<g>
</g>
<g>
</g>
</svg>
