<?xml version="1.0" encoding="iso-8859-1"?>
<!-- Generator: Adobe Illustrator 19.0.0, SVG Export Plug-In . SVG Version: 6.00 Build 0)  -->
<svg version="1.1" id="Capa_1" xmlns="http://www.w3.org/2000/svg"  x="0px" y="0px"
	 viewBox="0 0 512 512" style="enable-background:new 0 0 512 512;" xml:space="preserve">
<g>
	<g>
		<path d="M512,174c0-30.231-14.658-57.105-37.24-73.886C496.218,94.094,512,74.355,512,51c0-28.121-22.878-51-51-51H92
			C41.271,0,0,41.271,0,92c0,30.231,14.658,57.105,37.24,73.886C15.782,171.906,0,191.645,0,215c0,23.36,15.793,43.089,37.26,49.104
			C14.667,280.884,0,307.76,0,338c0,30.231,14.658,57.105,37.24,73.886C15.782,417.906,0,437.645,0,461c0,28.121,22.878,51,51,51
			h369c50.729,0,92-41.271,92-92c0-30.231-14.658-57.105-37.24-73.886C496.218,340.094,512,320.355,512,297
			c0-23.36-15.793-43.089-37.26-49.104C497.333,231.116,512,204.24,512,174z M492,297c0,17.094-13.907,31-31,31H92
			c-5.523,0-10,4.478-10,10c0,5.522,4.477,10,10,10h328c39.701,0,72,32.299,72,72s-32.299,72-72,72H51c-17.093,0-31-13.906-31-31
			s13.907-31,31-31h331c5.51,0,10-4.49,10-10s-4.49-10-10-10H92c-39.701,0-72-32.299-72-72s32.299-72,72-72h369
			C478.093,266,492,279.906,492,297z M420,246H51c-17.093,0-31-13.906-31-31s13.907-31,31-31h371c5.523,0,10-4.478,10-10
			c0-5.522-4.477-10-10-10H92c-39.701,0-72-32.299-72-72s32.299-72,72-72h369c17.093,0,31,13.906,31,31s-13.907,31-31,31H92
			c-5.523,0-10,4.478-10,10c0,5.522,4.477,10,10,10h328c39.701,0,72,32.299,72,72S459.701,246,420,246z"/>
	</g>
</g>
<g>
	<g>
		<path d="M422,410c-5.51,0-10,4.49-10,10s4.49,10,10,10s10-4.49,10-10S427.51,410,422,410z"/>
	</g>
</g>
<g>
</g>
<g>
</g>
<g>
</g>
<g>
</g>
<g>
</g>
<g>
</g>
<g>
</g>
<g>
</g>
<g>
</g>
<g>
</g>
<g>
</g>
<g>
</g>
<g>
</g>
<g>
</g>
<g>
</g>
</svg>
