<?xml version="1.0" encoding="iso-8859-1"?>
<!-- Generator: Adobe Illustrator 18.1.1, SVG Export Plug-In . SVG Version: 6.00 Build 0)  -->
<svg version="1.1" id="Capa_1" xmlns="http://www.w3.org/2000/svg"  x="0px" y="0px"
	 viewBox="0 0 255.288 255.288" style="enable-background:new 0 0 255.288 255.288;" xml:space="preserve">
<g>
	<path style="fill:#010002;" d="M234.424,39.955h-70.071V28.142c0-11.498-9.361-20.853-20.853-20.853h-31.721
		c-11.493,0-20.853,9.355-20.853,20.853v11.814H20.853C9.35,39.955,0,49.316,0,60.809v166.337C0,238.639,9.35,248,20.853,248h213.57
		c11.504,0,20.864-9.361,20.864-20.853V60.809C255.282,49.316,245.927,39.955,234.424,39.955z M101.803,28.142
		c0-5.504,4.471-9.975,9.975-9.975h31.721c5.504,0,9.975,4.471,9.975,9.975v11.814h-51.671V28.142z M244.404,227.146
		c0,5.504-4.482,9.975-9.986,9.975H20.853c-5.504,0-9.975-4.471-9.975-9.975v-77.73H244.41v77.73H244.404z M244.404,138.538H10.878
		v-77.73c0-5.504,4.471-9.975,9.975-9.975h70.071h10.878h51.671h10.878h70.071c5.504,0,9.986,4.471,9.986,9.975v77.73H244.404z"/>
</g>
<g>
</g>
<g>
</g>
<g>
</g>
<g>
</g>
<g>
</g>
<g>
</g>
<g>
</g>
<g>
</g>
<g>
</g>
<g>
</g>
<g>
</g>
<g>
</g>
<g>
</g>
<g>
</g>
<g>
</g>
</svg>
