<?xml version="1.0" encoding="iso-8859-1"?>
<!-- Generator: Adobe Illustrator 19.0.0, SVG Export Plug-In . SVG Version: 6.00 Build 0)  -->
<svg version="1.1" id="Capa_1" xmlns="http://www.w3.org/2000/svg"  x="0px" y="0px"
	 viewBox="0 0 480.045 480.045" style="enable-background:new 0 0 480.045 480.045;" xml:space="preserve">
<path style="fill:#BB9373;" d="M392.094,80.022l-56-32l-56-40h-80l-56,40l-56,32l-80,168l104,104v120h256v-120l104-104
	L392.094,80.022z M112.094,264.022l-30-30l30-66V264.022z M368.094,168.022l30,66l-30,30V168.022z"/>
<g>
	<path style="fill:#99745B;" d="M136.094,416.022h16v16h-16V416.022z"/>
	<path style="fill:#99745B;" d="M152.094,432.022h16v16h-16V432.022z"/>
</g>
<path style="fill:#FCD797;" d="M296.094,472.022l40-72v72H296.094z"/>
<g>
	<path style="fill:#9A615B;" d="M276.094,344.022c-6.627,0-12-5.373-12-12s5.373-12,12-12s12,5.373,12,12
		S282.722,344.022,276.094,344.022z"/>
	<path style="fill:#9A615B;" d="M276.094,416.022c-6.627,0-12-5.373-12-12s5.373-12,12-12s12,5.373,12,12
		S282.722,416.022,276.094,416.022z"/>
	<path style="fill:#9A615B;" d="M204.094,344.022c-6.627,0-12-5.373-12-12s5.373-12,12-12s12,5.373,12,12
		S210.722,344.022,204.094,344.022z"/>
	<path style="fill:#9A615B;" d="M204.094,416.022c-6.627,0-12-5.373-12-12s5.373-12,12-12s12,5.373,12,12
		S210.722,416.022,204.094,416.022z"/>
</g>
<path style="fill:#F6F6E7;" d="M368.822,153.982l-56.728-33.96l56-16l-32-56l-56-40h-80l-56,40l-32,56l56,16l-56,32l192,144v16h32
	v-24l-61.224-79.2L368.822,153.982z M200.094,40.022h80v72l-39.048,53l-40.952-53V40.022z"/>
<path style="fill:#99745B;" d="M200.094,40.022v72l40.376,52.248l39.624-52.248v-72H200.094z"/>
<circle cx="276.022" cy="332.022" r="12"/>
<circle cx="276.022" cy="404.022" r="12"/>
<circle cx="204.022" cy="332.022" r="12"/>
<circle cx="204.022" cy="404.022" r="12"/>
<path d="M104.022,355.334v116.688c0,4.418,3.582,8,8,8h256c4.418,0,8-3.582,8-8V355.334l101.656-101.656
	c2.406-2.387,3.047-6.031,1.6-9.096l-80-168c-0.703-1.473-1.839-2.695-3.256-3.504l-55.664-31.792L284.67,1.51
	c-1.357-0.968-2.982-1.488-4.648-1.488h-80c-1.667,0-3.291,0.52-4.648,1.488l-55.688,39.776L84.022,73.078
	c-1.417,0.809-2.553,2.031-3.256,3.504l-80,168c-1.447,3.065-0.806,6.709,1.6,9.096L104.022,355.334z M104.022,244.71
	l-12.424-12.424l12.424-27.336V244.71z M328.022,464.022h-18.4l18.4-33.128V464.022z M360.022,464.022h-16v-176
	c0.001-1.768-0.584-3.487-1.664-4.888l-55.656-72l73.32-42.784V464.022z M376.022,204.95l12.424,27.336l-12.424,12.424V204.95z
	 M462.366,246.358l-86.344,86.352v-65.376l19.496-19.496l5.224,11.496l14.56-6.624l-39.28-86.416v-9.088
	c1.728-3.669,0.363-8.05-3.144-10.088l-40.904-24.48l38.248-10.928c4.247-1.217,6.704-5.647,5.486-9.894
	c-0.176-0.615-0.425-1.206-0.742-1.762l-17.448-30.536l28.36,16.208L462.366,246.358z M202.582,16.022h74.88l52.48,37.496
	l26.072,45.6l-46.192,13.2c-4.248,1.216-6.705,5.645-5.489,9.893c0.558,1.95,1.837,3.616,3.577,4.659l45.128,27.008l-76.216,44.472
	l-25.84-33.44l35.464-48.144c1.019-1.372,1.571-3.035,1.576-4.744v-72h-16v69.368l-31.2,42.352l-32.8-42.448V40.022h-16v72
	c-0.001,1.768,0.584,3.487,1.664,4.888l134.336,173.84v107.2l-36.704,66.072H120.022v-296l176,132v12h16v-16
	c0-2.518-1.186-4.889-3.2-6.4L126.558,152.926l45.464-25.96c3.834-2.195,5.163-7.083,2.967-10.918
	c-1.035-1.807-2.734-3.14-4.735-3.714l-46.232-13.2l26.072-45.6L202.582,16.022z M94.166,85.726l28.36-16.208l-17.448,30.504
	c-2.19,3.837-0.855,8.723,2.982,10.914c0.555,0.317,1.147,0.566,1.762,0.742l37.744,10.792l-39.544,22.608
	c-2.333,1.34-3.836,3.763-4,6.448v0.496v14.272l-39.28,86.4l14.56,6.624l5.224-11.496l19.496,19.512v65.376l-86.344-86.352
	L94.166,85.726z"/>
<path d="M136.022,416.022h16v16h-16V416.022z"/>
<path d="M152.022,432.022h16v16h-16V432.022z"/>
<g>
</g>
<g>
</g>
<g>
</g>
<g>
</g>
<g>
</g>
<g>
</g>
<g>
</g>
<g>
</g>
<g>
</g>
<g>
</g>
<g>
</g>
<g>
</g>
<g>
</g>
<g>
</g>
<g>
</g>
</svg>
