<?xml version="1.0" encoding="iso-8859-1"?>
<!-- Generator: Adobe Illustrator 19.0.0, SVG Export Plug-In . SVG Version: 6.00 Build 0)  -->
<svg version="1.1" id="Capa_1" xmlns="http://www.w3.org/2000/svg"  x="0px" y="0px"
	 viewBox="0 0 480.013 480.013" style="enable-background:new 0 0 480.013 480.013;" xml:space="preserve">
<path style="fill:#5A6570;" d="M472.062,247.931l-80-168l-56-32l-24-32c-47.422-10.535-96.578-10.535-144,0l-24,32l-56,32l-80,168
	l109.456,109.456l-5.456,114.544h256l-5.456-114.544L472.062,247.931z M398.062,233.931l-36.224,36.224l5.352-102.224h0.8
	L398.062,233.931z M112.062,167.931h0.84l5.384,102.224l-36.224-36.224L112.062,167.931z"/>
<path style="fill:#394D5D;" d="M168.062,15.931l-24,32l-56,32l24.84,88l7.16,136l-8,168h184v-56h-56V8.027
	C215.846,8.026,191.702,10.676,168.062,15.931L168.062,15.931z"/>
<g>
	<path style="fill:#5A6570;" d="M136.062,415.931h16v16h-16V415.931z"/>
	<path style="fill:#5A6570;" d="M152.062,431.931h16v16h-16V431.931z"/>
</g>
<g>
	<path style="fill:#7D8F9F;" d="M176.062,127.931l-16,40l80,88l80-88l-16-40h40l-8-80l-24-32c-47.422-10.535-96.578-10.535-144,0
		l-24,32l-8,80H176.062z"/>
	<path style="fill:#7D8F9F;" d="M304.062,367.931v16h59.808l-0.76-16H304.062z"/>
</g>
<path style="fill:#5A6570;" d="M176.062,367.931h-59.048l-0.76,16h59.808V367.931z"/>
<path style="fill:#0F2537;" d="M208.062,39.931l-24,8l56,152l56-152l-24-8H208.062z"/>
<g>
	<path style="fill:#394D5D;" d="M276.062,303.931c-6.627,0-12-5.373-12-12s5.373-12,12-12s12,5.373,12,12
		S282.69,303.931,276.062,303.931z"/>
	<path style="fill:#394D5D;" d="M276.062,359.931c-6.627,0-12-5.373-12-12s5.373-12,12-12s12,5.373,12,12
		S282.69,359.931,276.062,359.931z"/>
</g>
<path style="fill:#7D8F9F;" d="M255.99,415.931V233.667h-16v183.008h0.04c0.407,30.621,25.336,55.237,55.96,55.256v-56H255.99z"/>
<path d="M399.19,76.491c-0.703-1.473-1.839-2.695-3.256-3.504l-54.56-31.2L318.39,11.131c-1.145-1.53-2.799-2.6-4.664-3.016
	c-48.574-10.712-98.898-10.712-147.472,0c-1.865,0.416-3.519,1.486-4.664,3.016l-23.008,30.672l-54.56,31.2
	c-1.417,0.809-2.553,2.031-3.256,3.504l-80,168c-1.447,3.065-0.806,6.709,1.6,9.096l106.92,106.936l-5.296,111.008
	c-0.212,4.413,3.194,8.163,7.607,8.375c0.131,0.006,0.262,0.009,0.393,0.009h256c4.418,0.005,8.004-3.573,8.009-7.991
	c0-0.131-0.003-0.262-0.009-0.393l-5.288-111.008l106.944-106.952c2.406-2.387,3.047-6.031,1.6-9.096L399.19,76.491z
	 M172.598,23.131c44.438-9.384,90.346-9.384,134.784,0l20.872,27.824l6.936,68.976h-31.2c-4.418-0.002-8.001,3.579-8.003,7.997
	c0,1.018,0.193,2.026,0.571,2.971l14.144,35.352l-70.712,77.792l-70.712-77.792l14.144-35.352c1.639-4.103-0.358-8.758-4.461-10.397
	c-0.945-0.378-1.953-0.571-2.971-0.571h-31.16l6.896-68.992L172.598,23.131z M109.126,249.771l-17.6-17.6l14.912-32.8
	L109.126,249.771z M373.502,199.371l14.912,32.8l-17.6,17.6L373.502,199.371z M369.662,338.923l-1.672-34.992l1.6-30.312
	l25.888-25.896l5.224,11.496l14.56-6.624l-39.936-87.864l0.664-12.376l-16-0.848l-8,152v0.8l2.4,49.92l-0.04,0.04l0.048,0.048
	l0.632,13.616h-51.04v16h51.8l3.808,80H303.99v-48c0-4.418-3.582-8-8-8h-32v16h24v39.512c-22.957-3.281-40.006-22.946-40-46.136
	V279.931h-16v137.376c0.049,16.599,6.64,32.509,18.344,44.28c0.8,0.8,1.72,1.6,2.592,2.344H120.382l3.808-80h51.8v-16h-51.04
	l0.648-13.6l0.048-0.048v-0.04l2.4-49.92c0-0.264,0-0.544,0-0.8l-8-152l-16,0.848l0.656,12.392L64.71,252.619l14.56,6.624
	l5.224-11.496l25.896,25.896l1.6,30.288l-1.664,34.992l-92.688-92.656L94.142,85.635l40.344-23.056l-6.456,64.552
	c-0.442,4.396,2.764,8.318,7.16,8.76c0.266,0.027,0.533,0.04,0.8,0.04h28.184l-11.616,29.032c-1.136,2.844-0.549,6.087,1.512,8.352
	l80,88c2.972,3.27,8.031,3.511,11.301,0.539c0.188-0.171,0.368-0.351,0.539-0.539l80-88c2.061-2.265,2.648-5.508,1.512-8.352
	l-11.616-29.032h28.184c4.418,0.022,8.018-3.542,8.04-7.96c0.001-0.281-0.012-0.561-0.04-0.84l-6.456-64.552l40.344,23.056
	l76.504,160.632L369.662,338.923z"/>
<path d="M135.99,415.931h16v16h-16V415.931z"/>
<path d="M151.99,431.931h16v16h-16V431.931z"/>
<path d="M232.486,202.699c1.532,4.144,6.133,6.262,10.277,4.731c2.192-0.81,3.921-2.539,4.731-4.731l56-152
	c1.526-4.146-0.598-8.745-4.745-10.271c-0.077-0.028-0.154-0.055-0.232-0.081l-24-8l-5.056,15.2l16.168,5.392l-45.64,123.848
	l-45.6-123.88l16.168-5.392l-5.056-15.2l-24,8c-4.191,1.398-6.455,5.929-5.057,10.121c0.026,0.078,0.053,0.155,0.081,0.231
	L232.486,202.699z"/>
<circle cx="275.99" cy="291.931" r="12"/>
<circle cx="275.99" cy="347.931" r="12"/>
<g>
</g>
<g>
</g>
<g>
</g>
<g>
</g>
<g>
</g>
<g>
</g>
<g>
</g>
<g>
</g>
<g>
</g>
<g>
</g>
<g>
</g>
<g>
</g>
<g>
</g>
<g>
</g>
<g>
</g>
</svg>
