<?xml version="1.0" encoding="iso-8859-1"?>
<!-- Generator: Adobe Illustrator 19.0.0, SVG Export Plug-In . SVG Version: 6.00 Build 0)  -->
<svg version="1.1" id="Capa_1" xmlns="http://www.w3.org/2000/svg"  x="0px" y="0px"
	 viewBox="0 0 479.982 479.982" style="enable-background:new 0 0 479.982 479.982;" xml:space="preserve">
<g>
	<g>
		<path d="M479.256,252.679l-79.976-176c-1.298-2.854-4.144-4.687-7.28-4.688h-67.472l-21.672-36.12l-0.112,0.072
			c-1.39-2.418-3.955-3.921-6.744-3.952H184c-2.789,0.031-5.354,1.534-6.744,3.952l-0.112-0.072l-21.672,36.12H80
			c0-4.418-3.582-8-8-8v-40c0-4.418-3.582-8-8-8H16c-4.418,0-8,3.582-8,8v40c-4.418,0-8,3.582-8,8v160c0,4.418,3.582,8,8,8h96v168
			c0,4.418,3.582,8,8,8h8v40c0,4.418,3.582,8,8,8h224c4.418,0,8-3.582,8-8v-40h8c4.418,0,8-3.582,8-8v-44.688l101.656-101.656
			C480.005,259.283,480.643,255.71,479.256,252.679z M24,31.991h32v32H24V31.991z M104,223.991H16v-144h48v128h16v-120h24V223.991z
			 M376,217.879l8.936,17.872L376,244.679V217.879z M344,87.991h16v96h-16V87.991z M302.352,66.135l9.056,15.08
			c-6.092,22.013-17.666,42.123-33.64,58.448C290.752,117.024,299.109,92.031,302.352,66.135z M287.864,47.991
			c-1.578,43.275-18.551,84.565-47.864,116.44c-29.313-31.875-46.286-73.165-47.864-116.44H287.864z M177.648,66.135
			c3.243,25.896,11.6,50.889,24.584,73.528c-15.96-16.33-27.52-36.439-33.6-58.448L177.648,66.135z M120,87.991h16v96h-16V87.991z
			 M232,447.991h-96v-32h96V447.991z M344,447.991h-96v-32h96V447.991z M360,399.991h-8H120v-24.496
			c26.23,13.277,58.258,2.776,71.535-23.454c10.397-20.541,6.411-45.438-9.879-61.706c-3.124-3.123-8.188-3.123-11.312,0
			L120,340.679V199.991h24c4.418,0,8-3.582,8-8v-104h2.112c11.782,40.283,39.79,73.85,77.312,92.656l5,2.504
			c0.08,0,0.176,0,0.256,0.056c2.09,1.045,4.55,1.045,6.64,0c0.08-0.04,0.176,0,0.256-0.056l5-2.504
			c37.522-18.806,65.53-52.373,77.312-92.656H328v104c0,4.418,3.582,8,8,8h24v60.688l-40,40l-10.344-10.344
			c-3.124-3.123-8.188-3.123-11.312,0c-20.786,20.797-20.776,54.507,0.021,75.293c16.26,16.251,41.115,20.23,61.635,9.867V399.991z
			 M123.928,359.383l51.456-51.472c11.082,17.342,6.007,40.384-11.335,51.466C151.818,367.192,136.161,367.195,123.928,359.383
			L123.928,359.383z M330.328,333.647l25.728,25.736c-17.345,11.076-40.386,5.994-51.462-11.351
			c-7.812-12.233-7.81-27.89,0.006-40.121l9.72,9.728l0.008,0.008L330.328,333.647z M368,348.679l-36.688-36.688l61.16-61.16
			l8.368,16.736c1.355,2.712,4.128,4.425,7.16,4.424h16v-16h-11.056L376,182.103V87.991h10.848L462.4,254.255L368,348.679z"/>
	</g>
</g>
<g>
	<g>
		<circle cx="244" cy="235.991" r="12"/>
	</g>
</g>
<g>
	<g>
		<circle cx="244" cy="291.991" r="12"/>
	</g>
</g>
<g>
	<g>
		<circle cx="244" cy="347.991" r="12"/>
	</g>
</g>
<g>
</g>
<g>
</g>
<g>
</g>
<g>
</g>
<g>
</g>
<g>
</g>
<g>
</g>
<g>
</g>
<g>
</g>
<g>
</g>
<g>
</g>
<g>
</g>
<g>
</g>
<g>
</g>
<g>
</g>
</svg>
