<?xml version="1.0" encoding="iso-8859-1"?>
<!-- Generator: Adobe Illustrator 19.0.0, SVG Export Plug-In . SVG Version: 6.00 Build 0)  -->
<svg version="1.1" id="Capa_1" xmlns="http://www.w3.org/2000/svg"  x="0px" y="0px"
	 viewBox="0 0 479.982 479.982" style="enable-background:new 0 0 479.982 479.982;" xml:space="preserve">
<path style="fill:#7D8F9F;" d="M16.072,23.991h48v56h-48V23.991z"/>
<path style="fill:#EFEFEF;" d="M392.072,79.991h-72l-24-40h-112l-24,40h-88v-8h-64v160h104v176h16v48h224v-48h16v-48l104-104
	L392.072,79.991z M368.072,183.991l26.664,53.376l-26.664,26.624V183.991z"/>
<path style="fill:#7D8F9F;" d="M232.072,402.735h16v53.256h-16L232.072,402.735z"/>
<path style="fill:#5A6570;" d="M368.072,263.991v-184h-48c-10.157,40.622-37.556,74.778-75.008,93.504l-4.992,2.496l-5-2.496
	c-37.45-18.726-64.847-52.883-75-93.504h-48v328h256v-48l-48-48L368.072,263.991z"/>
<g>
	<path style="fill:#7D8F9F;" d="M304.072,295.991l64,64c-17.673,17.672-46.327,17.672-64,0
		C286.4,342.317,286.4,313.664,304.072,295.991z"/>
	<path style="fill:#7D8F9F;" d="M176.072,295.991l-64,64c17.673,17.672,46.327,17.672,64,0
		C193.744,342.317,193.744,313.664,176.072,295.991z"/>
</g>
<g>
	<path style="fill:#0F2537;" d="M184.072,39.991v0.8c-0.001,50.71,20.143,99.343,56,135.2c35.857-35.857,56.001-84.49,56-135.2v-0.8
		L184.072,39.991z"/>
	<path style="fill:#0F2537;" d="M244.072,247.991c-6.627,0-12-5.373-12-12s5.373-12,12-12s12,5.373,12,12
		S250.699,247.991,244.072,247.991L244.072,247.991z"/>
	<path style="fill:#0F2537;" d="M244.072,303.991c-6.627,0-12-5.373-12-12s5.373-12,12-12s12,5.373,12,12
		S250.699,303.991,244.072,303.991z"/>
	<path style="fill:#0F2537;" d="M244.072,359.991c-6.627,0-12-5.373-12-12s5.373-12,12-12s12,5.373,12,12
		S250.699,359.991,244.072,359.991z"/>
</g>
<g>
	<path style="fill:#7D8F9F;" d="M112.072,79.991h32v112h-32V79.991z"/>
	<path style="fill:#7D8F9F;" d="M336.072,79.991h32v112h-32V79.991z"/>
</g>
<path style="fill:#D3D0C7;" d="M72.072,79.991h40v152h-40L72.072,79.991z"/>
<path d="M399.28,76.679c-1.298-2.854-4.144-4.687-7.28-4.688h-67.472l-21.672-36.12l-0.112,0.072
	c-1.39-2.418-3.955-3.921-6.744-3.952H184c-2.789,0.031-5.354,1.534-6.744,3.952l-0.112-0.072l-21.672,36.12H80c0-4.418-3.582-8-8-8
	v-40c0-4.418-3.582-8-8-8H16c-4.418,0-8,3.582-8,8v40c-4.418,0-8,3.582-8,8v160c0,4.418,3.582,8,8,8h96v168c0,4.418,3.582,8,8,8h8
	v40c0,4.418,3.582,8,8,8h224c4.418,0,8-3.582,8-8v-40h8c4.418,0,8-3.582,8-8v-44.688l101.656-101.656
	c2.349-2.364,2.987-5.937,1.6-8.968L399.28,76.679z M384.936,235.751L376,244.679v-26.8L384.936,235.751z M360,87.991v96h-16v-96
	H360z M311.408,81.215c-6.092,22.013-17.666,42.123-33.64,58.448c12.984-22.639,21.341-47.632,24.584-73.528L311.408,81.215z
	 M287.864,47.991c-1.578,43.275-18.551,84.565-47.864,116.44c-29.313-31.875-46.286-73.165-47.864-116.44H287.864z M177.648,66.135
	c3.243,25.896,11.6,50.889,24.584,73.528c-15.96-16.33-27.52-36.439-33.6-58.448L177.648,66.135z M136,87.991v96h-16v-96H136z
	 M24,31.991h32v32H24V31.991z M16,223.991v-144h48v128h16v-120h24v136H16z M136,415.991h96v32h-96V415.991z M344,447.991h-96v-32h96
	V447.991z M352,399.991H120v-24.496c26.23,13.277,58.258,2.776,71.535-23.454c10.397-20.541,6.411-45.438-9.879-61.706
	c-3.124-3.123-8.188-3.123-11.312,0L120,340.679V199.991h24c4.418,0,8-3.582,8-8v-104h2.112
	c11.782,40.283,39.79,73.85,77.312,92.656l5,2.504c0.08,0,0.176,0,0.256,0.056c2.09,1.045,4.55,1.045,6.64,0
	c0.08-0.04,0.176,0,0.256-0.056l5-2.504c37.522-18.806,65.53-52.373,77.312-92.656H328v104c0,4.418,3.582,8,8,8h24v60.688l-40,40
	l-10.344-10.344c-3.124-3.123-8.188-3.123-11.312,0c-20.786,20.797-20.776,54.507,0.021,75.293
	c16.26,16.251,41.115,20.23,61.635,9.867v24.496L352,399.991z M123.928,359.383l51.456-51.472
	c11.082,17.342,6.007,40.384-11.335,51.466C151.818,367.192,136.161,367.195,123.928,359.383L123.928,359.383z M314.328,317.647
	l16,16l25.728,25.736c-17.345,11.076-40.386,5.994-51.462-11.351c-7.812-12.233-7.81-27.89,0.006-40.121l9.72,9.728L314.328,317.647
	z M368,348.679l-36.688-36.688l61.16-61.16l8.368,16.736c1.355,2.712,4.128,4.425,7.16,4.424h16v-16h-11.056L376,182.103V87.991
	h10.848L462.4,254.255L368,348.679z"/>
<circle cx="244" cy="235.991" r="12"/>
<circle cx="244" cy="291.991" r="12"/>
<circle cx="244" cy="347.991" r="12"/>
<g>
</g>
<g>
</g>
<g>
</g>
<g>
</g>
<g>
</g>
<g>
</g>
<g>
</g>
<g>
</g>
<g>
</g>
<g>
</g>
<g>
</g>
<g>
</g>
<g>
</g>
<g>
</g>
<g>
</g>
</svg>
