<?xml version="1.0" encoding="iso-8859-1"?>
<!-- Generator: Adobe Illustrator 19.0.0, SVG Export Plug-In . SVG Version: 6.00 Build 0)  -->
<svg version="1.1" id="Capa_1" xmlns="http://www.w3.org/2000/svg"  x="0px" y="0px"
	 viewBox="0 0 512 512" style="enable-background:new 0 0 512 512;" xml:space="preserve">
<g>
	<g transform="translate(1 1)">
		<polygon style="fill:#E3E7F2;" points="476.866,127 357.4,7.533 323.266,7.533 316.696,17.347 314.733,16.067 195.266,16.067
			193.304,17.347 186.733,7.533 152.6,7.533 33.133,127 7.533,152.6 84.333,229.4 109.933,203.8 109.933,502.467 212.333,502.467
			255,502.467 400.066,502.467 400.066,468.333 400.066,203.8 425.666,229.4 502.466,152.6 		"/>
		<g>
			<polygon style="fill:#A4C2F7;" points="316.696,17.347 255,109.933 193.304,17.347 195.266,16.067 314.733,16.067 			"/>
			<polygon style="fill:#A4C2F7;" points="255,434.2 255,502.467 212.333,502.467 			"/>
			<polygon style="fill:#A4C2F7;" points="502.466,152.6 425.666,229.4 412.866,216.6 476.866,152.6 331.8,7.533 357.4,7.533 			"/>
			<polygon style="fill:#A4C2F7;" points="400.066,229.4 400.066,468.333 374.466,468.333 374.466,203.8 			"/>
		</g>
		<g>

				<rect x="396.962" y="160.095" transform="matrix(-0.7071 0.7071 -0.7071 -0.7071 896.3694 -14.8912)" style="fill:#F5F5F5;" width="108.613" height="36.207"/>
			<rect x="255" y="468.333" style="fill:#F5F5F5;" width="145.067" height="34.133"/>
			<polygon style="fill:#F5F5F5;" points="237.933,468.333 212.333,502.467 107.092,502.467 107.092,468.333 			"/>

				<rect x="40.631" y="123.887" transform="matrix(-0.7071 0.7071 -0.7071 -0.7071 226.2683 262.6627)" style="fill:#F5F5F5;" width="36.207" height="108.613"/>
		</g>
		<polygon style="fill:#D4E1F4;" points="357.4,7.533 357.4,84.333 331.8,90.733 273.602,105.325 255,109.933 260.12,102.253
			316.696,17.347 323.266,7.533 		"/>
		<g>
			<polygon style="fill:#F5F5F5;" points="331.8,7.533 331.8,90.733 273.602,105.325 260.12,102.253 316.696,17.347 323.266,7.533
							"/>
			<polygon style="fill:#F5F5F5;" points="255,109.933 152.6,75.8 152.6,7.533 186.733,7.533 193.304,17.347 			"/>
		</g>
		<g>
			<rect x="374.466" y="468.333" style="fill:#D4E1F4;" width="25.6" height="34.133"/>
			<polygon style="fill:#D4E1F4;" points="485.4,161.133 464.066,139.8 476.866,127 502.466,152.6 			"/>
		</g>
		<g>
			<polygon style="fill:#FFFFFF;" points="218.904,17.347 220.866,16.067 218.05,16.067 			"/>
			<polygon style="fill:#FFFFFF;" points="97.133,216.6 33.133,152.6 58.733,127 178.2,7.533 152.6,7.533 33.133,127 7.533,152.6
				84.333,229.4 			"/>
			<polygon style="fill:#FFFFFF;" points="107.092,468.333 107.092,502.467 109.933,502.467 132.692,502.467 132.692,468.333
				135.533,468.333 135.533,203.8 109.933,229.4 109.933,468.333 			"/>
		</g>
	</g>
	<g>
		<polygon style="fill:#FFFFFF;" points="119.466,204.8 119.466,315.733 119.466,503.467 102.4,503.467 102.4,315.733 102.4,204.8
					"/>
		<g>
			<path style="fill:#428DFF;" d="M110.933,281.6c3.45-0.014,6.556-2.096,7.879-5.282s0.606-6.856-1.82-9.31l-1.279-1.025
				c-0.476-0.324-0.993-0.583-1.538-0.771c-0.484-0.246-1.002-0.417-1.537-0.508c-0.564-0.096-1.133-0.153-1.705-0.17
				c-2.259,0.031-4.423,0.915-6.059,2.475c-2.07,1.994-2.979,4.908-2.409,7.726s2.539,5.149,5.222,6.183
				C108.714,281.354,109.817,281.587,110.933,281.6z"/>
			<path style="fill:#428DFF;" d="M364.436,2.503C362.832,0.906,360.663,0.007,358.4,0h-34.133c-0.273,0-0.504,0.131-0.771,0.156
				c-2.249,0.21-4.32,1.314-5.748,3.065c-0.177,0.217-0.422,0.342-0.58,0.58l-3.156,4.733H197.989L194.833,3.8
				c-1.582-2.374-4.247-3.8-7.1-3.8H153.6c-2.262,0.014-4.428,0.912-6.036,2.503L2.5,147.567c-1.601,1.6-2.5,3.77-2.5,6.033
				s0.899,4.433,2.5,6.033l76.8,76.8c1.6,1.601,3.77,2.5,6.033,2.5c2.263,0,4.433-0.899,6.033-2.5L102.4,225.4v13.533
				c0,4.713,3.821,8.533,8.533,8.533c4.713,0,8.533-3.82,8.533-8.533v-30.6l14.566-14.566c3.296-3.338,3.28-8.711-0.038-12.029
				c-3.317-3.317-8.69-3.334-12.029-0.038l-11.034,11.033L46.2,128l98.867-98.867V76.8c0,3.673,2.349,6.934,5.833,8.096
				l96.567,32.189v45.048c0,4.713,3.82,8.533,8.533,8.533s8.533-3.82,8.533-8.533v-44.536l95.938-23.984
				c3.798-0.951,6.462-4.364,6.462-8.279v-56.2L465.8,128l-64.733,64.733L390.033,181.7c-3.338-3.296-8.711-3.279-12.029,0.038
				c-3.317,3.317-3.334,8.691-0.038,12.029l14.566,14.567V460.8h-128v-42.667c0-4.713-3.82-8.533-8.533-8.533
				s-8.533,3.82-8.533,8.533v14.619l-38.863,62.181h-89.137v-17.067h68.267c4.713,0,8.533-3.821,8.533-8.533
				c0-4.713-3.82-8.533-8.533-8.533h-68.267V307.2c0-4.713-3.82-8.533-8.533-8.533c-4.713,0-8.533,3.82-8.533,8.533v196.267
				c0,4.713,3.821,8.533,8.533,8.533h290.133c4.713,0,8.533-3.82,8.533-8.533V225.4l11.034,11.034c1.6,1.601,3.77,2.5,6.033,2.5
				s4.434-0.899,6.033-2.5l76.8-76.8c1.601-1.6,2.5-3.77,2.5-6.033s-0.899-4.433-2.5-6.033L364.436,2.503z M302.633,25.6L256,95.55
				L209.366,25.6H302.633z M98.866,204.8l-13.533,13.533L20.6,153.6l13.533-13.533L98.866,204.8z M162.133,70.65V17.067h21.033
				l51.938,77.908L162.133,70.65z M275.341,97.3l53.492-80.233h21.033v61.604L275.341,97.3z M247.466,464.954v29.979h-18.737
				L247.466,464.954z M264.533,494.933v-17.067h128v17.067H264.533z M426.666,218.333L413.133,204.8l64.733-64.733L491.4,153.6
				L426.666,218.333z"/>
			<path style="fill:#428DFF;" d="M264.533,59.733c4.713,0,8.533-3.821,8.533-8.533s-3.821-8.533-8.533-8.533h-17.067
				c-4.713,0-8.533,3.821-8.533,8.533s3.821,8.533,8.533,8.533H264.533z"/>
			<path style="fill:#428DFF;" d="M290.133,213.333c0.571-0.016,1.141-0.073,1.704-0.171c0.535-0.095,1.053-0.268,1.537-0.512
				c0.544-0.187,1.062-0.447,1.538-0.771c0.929-0.585,1.715-1.371,2.3-2.3c0.324-0.476,0.583-0.993,0.771-1.538
				c0.245-0.485,0.418-1.003,0.513-1.537c0.098-0.563,0.155-1.133,0.171-1.704c0-4.713-3.821-8.533-8.533-8.533
				s-8.533,3.821-8.533,8.533c0.016,2.263,0.902,4.432,2.475,6.059C285.711,212.416,287.874,213.3,290.133,213.333z"/>
			<path style="fill:#428DFF;" d="M284.074,262.059c1.636,1.558,3.8,2.441,6.059,2.475c1.115-0.014,2.216-0.246,3.242-0.683
				c1.044-0.414,1.999-1.022,2.817-1.792c0.341-0.429,0.683-0.854,1.021-1.279c0.324-0.476,0.583-0.993,0.771-1.538
				c0.245-0.485,0.418-1.003,0.513-1.537c0.098-0.563,0.155-1.133,0.171-1.704c0.03-1.121-0.204-2.232-0.683-3.246
				c-0.434-1.032-1.04-1.983-1.792-2.813c-1.996-2.068-4.909-2.975-7.727-2.405c-2.817,0.57-5.15,2.537-6.186,5.218
				c-0.436,1.027-0.667,2.13-0.679,3.246C281.632,258.259,282.516,260.423,284.074,262.059z"/>
			<path style="fill:#428DFF;" d="M284.074,313.259c1.636,1.558,3.8,2.441,6.059,2.475c1.115-0.014,2.216-0.246,3.242-0.683
				c2.143-0.777,3.831-2.465,4.608-4.608c0.438-1.026,0.67-2.127,0.684-3.242c-0.015-0.573-0.072-1.144-0.171-1.708
				c-0.095-0.535-0.268-1.053-0.513-1.537c-0.188-0.543-0.448-1.058-0.771-1.533c-0.337-0.429-0.679-0.854-1.021-1.279
				c-3.421-3.158-8.695-3.158-12.117,0c-0.341,0.425-0.683,0.85-1.025,1.279c-0.323,0.475-0.582,0.991-0.771,1.533
				c-0.246,0.484-0.417,1.002-0.508,1.537c-0.1,0.564-0.158,1.135-0.171,1.708C281.632,309.459,282.516,311.623,284.074,313.259z"/>
			<path style="fill:#428DFF;" d="M284.074,364.459c0.815,0.771,1.77,1.379,2.813,1.792c1.027,0.438,2.13,0.67,3.246,0.683
				c2.27,0.022,4.453-0.87,6.058-2.475c1.605-1.605,2.497-3.788,2.475-6.058c-0.013-1.116-0.245-2.219-0.683-3.246
				c-0.393-1.053-1.004-2.011-1.792-2.813c-3.421-3.158-8.695-3.158-12.117,0c-0.773,0.814-1.383,1.769-1.796,2.813
				c-0.436,1.027-0.667,2.13-0.679,3.246C281.632,360.659,282.516,362.823,284.074,364.459z"/>
		</g>
	</g>
</g>
<g>
</g>
<g>
</g>
<g>
</g>
<g>
</g>
<g>
</g>
<g>
</g>
<g>
</g>
<g>
</g>
<g>
</g>
<g>
</g>
<g>
</g>
<g>
</g>
<g>
</g>
<g>
</g>
<g>
</g>
</svg>
