<?xml version="1.0" encoding="iso-8859-1"?>
<!-- Generator: Adobe Illustrator 19.0.0, SVG Export Plug-In . SVG Version: 6.00 Build 0)  -->
<svg version="1.1" id="Capa_1" xmlns="http://www.w3.org/2000/svg"  x="0px" y="0px"
	 viewBox="0 0 480.036 480.036" style="enable-background:new 0 0 480.036 480.036;" xml:space="preserve">
<path style="fill:#C9EBF4;" d="M400.094,216.036l72-72l-72-72h-56l-16-56l-88-8l-88,8l-16.04,56h-55.96l-72,72l72,72v256h320h48v-80
	h-48V216.036z"/>
<path style="fill:#055C7B;" d="M380.022,380.94l-3.944-4c-22.534-22.531-59.066-22.531-81.6,0l-3.432,3.424
	c-8.197-3.811-17.349-5.073-26.272-3.624c-19.15-19.041-48.945-22.252-71.712-7.728c-18.199-18.198-18.2-47.703-0.002-65.902
	c0.001-0.001,0.001-0.001,0.002-0.002l0.52-0.52l0.208-0.136c3.504,8.006,12.835,11.655,20.841,8.151
	c5.777-2.529,9.5-8.245,9.479-14.551c0,8.837,7.163,16,16,16c8.837,0,16-7.163,16-16c-0.006,8.837,7.152,16.005,15.989,16.011
	c0.905,0.001,1.808-0.075,2.699-0.227c7.882-1.591,13.49-8.601,13.312-16.64v-15.8c0-12.901-10.459-23.36-23.36-23.36
	c-0.005,0-0.011,0-0.016,0h-104.64c-8.393,0.012-15.341,6.528-15.888,14.904c-20.165,14.59-32.108,37.967-32.112,62.856v55.496
	l-32,31.92v50.824h320v-96C393.114,376.099,386.244,377.778,380.022,380.94L380.022,380.94z"/>
<g>
	<path style="fill:#7ABECE;" d="M400.094,392.036h48v80h-48V392.036z"/>
	<path style="fill:#7ABECE;" d="M368.094,168.036v56l-32,16l-32-16v-56H368.094z"/>
</g>
<g>
	<path style="fill:#EFEFEF;" d="M28.094,124.036l-20,20l72,72v-40L28.094,124.036z"/>
	<path style="fill:#EFEFEF;" d="M472.094,144.036l-20-20l-52,52v40L472.094,144.036z"/>
</g>
<path style="fill:#B5DEF3;" d="M380.022,380.94l-3.944-4c-22.534-22.531-59.066-22.531-81.6,0l-3.432,3.424
	c-8.197-3.811-17.349-5.073-26.272-3.624c-22.547-22.44-59.002-22.397-81.496,0.096l-9.6,10.464
	c-8.208-7.112-18.7-11.033-29.56-11.048v-35.2c-0.005-27.667,15.425-53.026,40-65.736h5.76v-19.28
	c-42.946,0-77.76,34.814-77.76,77.76v55.496l-32,31.92v50.824h320v-96C393.13,376.096,386.252,377.774,380.022,380.94
	L380.022,380.94z"/>
<circle style="fill:#FCD797;" cx="136.102" cy="216.036" r="16"/>
<path style="fill:#FFFFFF;" d="M264.734,256.036h-104.64c-8.837,0-16,7.163-16,16s7.163,16,16,16h32v7.04
	c-0.188,8.548,6.123,15.851,14.608,16.904c8.803,0.769,16.563-5.744,17.331-14.547c0.041-0.464,0.061-0.93,0.061-1.397
	c0,8.837,7.163,16,16,16c8.837,0,16-7.163,16-16c-0.006,8.837,7.152,16.005,15.989,16.011c0.905,0.001,1.808-0.075,2.699-0.227
	c7.882-1.591,13.49-8.601,13.312-16.64v-15.784C288.094,266.495,277.635,256.036,264.734,256.036L264.734,256.036z"/>
<path style="fill:#EFEFEF;" d="M272.094,48.036h24v64l66.24,24l-34.24-120l-88-8l-88,8l-34.12,119.104l66.12-23.104v-64h24H272.094z
	"/>
<path style="fill:#7ABECE;" d="M296.094,112.036l-56,56l-56-56v-64h112V112.036z"/>
<path style="fill:#128DAA;" d="M368.094,389.292c-17.673,17.672-46.327,17.672-64,0s-46.327-17.672-64,0
	c-17.673,17.672-46.327,17.672-64,0s-46.327-17.672-64,0l-32,31.92v50.824h320v-96C388.088,376.018,376.57,380.789,368.094,389.292
	L368.094,389.292z"/>
<path style="fill:#055C7B;" d="M304.094,429.292c-17.673-17.672-46.327-17.672-64,0c-17.673,17.672-46.327,17.672-64,0
	s-46.327-17.672-64,0l-32,32.216v10.528h320v-56c-12.006-0.018-23.524,4.753-32,13.256
	C350.421,446.965,321.767,446.965,304.094,429.292z"/>
<path d="M405.686,66.388c-1.498-1.51-3.537-2.357-5.664-2.352h-50.92L335.75,13.972c-0.854-3.256-3.656-5.629-7.008-5.936l-88-8
	c-0.479-0.048-0.961-0.048-1.44,0l-88,8c-3.343,0.303-6.142,2.661-7.008,5.904l-13.352,50.096h-50.92
	c-2.127-0.005-4.166,0.842-5.664,2.352l-72,72c-3.123,3.124-3.123,8.188,0,11.312l69.664,69.648v252.688c0,4.418,3.582,8,8,8h368
	c4.418,0,8-3.582,8-8v-80c0-4.418-3.582-8-8-8h-40V219.348l69.656-69.656c3.123-3.124,3.123-8.188,0-11.312L405.686,66.388z
	 M408.022,112.036V91.348l32.688,32.688l-32.688,32.688V112.036z M88.022,80.036h38.656l-14.4,53.936
	c-1.167,4.261,1.341,8.662,5.602,9.829c1.628,0.446,3.355,0.366,4.934-0.229l59.2-22.192l50.008,49.968v60.688h16v-64
	c0-2.122-0.844-4.156-2.344-5.656l-53.656-53.656V56.036h16v-16h-24c-4.418,0-8,3.582-8,8v58.456l-44.272,16.6L158.31,23.5
	l81.712-7.464l81.712,7.432l26.56,99.592l-44.272-16.568V48.036c0-4.418-3.582-8-8-8h-24v16h16v56
	c-0.002,3.337,2.067,6.325,5.192,7.496l64,24c0.899,0.332,1.85,0.503,2.808,0.504c4.418-0.001,7.999-3.583,7.999-8.001
	c0-0.696-0.091-1.39-0.271-2.063l-14.384-53.936h38.656v288.656c-3.549,0.533-7.034,1.428-10.4,2.672l0.08-0.088
	c-25.526-25.444-66.772-25.612-92.504-0.376c-5.53-1.888-11.333-2.856-17.176-2.864c-1.6,0-3.2,0.096-4.752,0.232
	c-19.947-17.58-48.552-21.334-72.36-9.496c-9.49-12.911-10.012-30.344-1.312-43.8c3.536,2.84,7.834,4.568,12.352,4.968
	c6.597,0.558,13.133-1.623,18.072-6.032c9.102,8.171,22.898,8.171,32,0c0.152,0.144,0.312,0.28,0.472,0.408
	c5.396,4.576,12.532,6.547,19.512,5.392c11.73-2.253,20.161-12.585,20.016-24.528v-15.784c-0.018-17.312-14.048-31.342-31.36-31.36
	h-104.64c-11.136,0.025-20.792,7.707-23.32,18.552c-20.554,16.261-32.583,40.999-32.68,67.208v52.184l-16,16L88.022,80.036z
	 M392.022,408.692c-11.235,1.662-21.635,6.903-29.656,14.944c-14.555,14.536-38.133,14.536-52.688,0
	c-20.792-20.797-54.507-20.8-75.304-0.008c-0.003,0.003-0.005,0.005-0.008,0.008c-14.555,14.536-38.133,14.536-52.688,0
	c-20.792-20.797-54.507-20.8-75.304-0.008c-0.003,0.003-0.005,0.005-0.008,0.008L88.022,441.98v-17.376l29.656-29.656
	c14.549-14.549,38.139-14.549,52.688,0c0,0,0,0,0,0c20.808,20.769,54.504,20.769,75.312,0c14.549-14.549,38.139-14.549,52.688,0
	c0,0,0,0,0,0c20.808,20.769,54.504,20.769,75.312,0c5.029-5.023,11.397-8.491,18.344-9.992V408.692z M72.022,156.692l-32.688-32.656
	l32.688-32.688v65.376V156.692z M139.942,285.076c2.627,4.041,6.406,7.201,10.848,9.072c-9.593,13.77-14.747,30.145-14.768,46.928
	v27.616c-5.571,0.825-10.973,2.541-16,5.08v-40c-0.047-18.215,7.114-35.71,19.92-48.664V285.076z M192.022,280.036h-32
	c-4.418,0-8-3.582-8-8s3.582-8,8-8h104.64c8.479,0.009,15.351,6.881,15.36,15.36v15.784c0.152,4.109-2.606,7.759-6.6,8.736
	c-4.35,0.773-8.503-2.126-9.277-6.477c-0.082-0.463-0.124-0.933-0.123-1.403c0-4.418-3.582-8-8-8c-4.418,0-8,3.582-8,8s-3.582,8-8,8
	s-8-3.582-8-8s-3.582-8-8-8s-8,3.582-8,8c0.002,1.404-0.365,2.783-1.064,4c-1.575,2.69-4.548,4.243-7.656,4
	c-4.341-0.719-7.464-4.563-7.28-8.96v-7.04C200.022,283.618,196.44,280.036,192.022,280.036L192.022,280.036z M224.022,367.932
	c8.268-0.014,16.407,2.046,23.672,5.992c-4.92,2.526-9.417,5.802-13.328,9.712c-13.376,13.302-34.596,14.471-49.352,2.72
	l3.856-3.856C198.171,373.144,210.829,367.898,224.022,367.932L224.022,367.932z M177.558,371.188l-5.104,5.104
	c-6.205-3.933-13.165-6.522-20.432-7.6v-27.616c0.052-16.729,6.431-32.819,17.856-45.04h14.144c0.06,1.48,0.247,2.952,0.56,4.4
	c-16.34,19.028-17.63,46.736-3.128,67.2C180.134,368.772,178.814,369.932,177.558,371.188L177.558,371.188z M304.39,379.068
	c18.323-14.597,44.373-14.337,62.4,0.624c-1.555,1.23-3.04,2.547-4.448,3.944c-14.555,14.536-38.133,14.536-52.688,0
	C308.002,381.999,306.243,380.473,304.39,379.068z M19.334,144.036l8.688-8.688l44,44v17.376L19.334,144.036z M440.022,400.036v64
	H88.59l29.088-29.088c14.549-14.549,38.139-14.549,52.688,0c0,0,0,0,0,0c20.808,20.769,54.504,20.769,75.312,0
	c14.549-14.549,38.139-14.549,52.688,0c0,0,0,0,0,0c20.808,20.769,54.504,20.769,75.312,0c5.029-5.023,11.397-8.491,18.344-9.992
	v23.08h16v-48L440.022,400.036z M408.022,196.724v-17.376l44-44l8.688,8.688L408.022,196.724z"/>
<path d="M300.446,231.236l32,16c2.251,1.125,4.901,1.125,7.152,0l32-16c2.725-1.362,4.441-4.153,4.424-7.2v-56c0-4.418-3.582-8-8-8
	h-56v16h48v43.056l-24,12l-24-12v-43.056h-16v48C296.005,227.083,297.721,229.874,300.446,231.236L300.446,231.236z"/>
<path d="M136.022,240.036c13.255,0,24-10.745,24-24s-10.745-24-24-24s-24,10.745-24,24S122.767,240.036,136.022,240.036
	L136.022,240.036z M136.022,208.036c4.418,0,8,3.582,8,8s-3.582,8-8,8s-8-3.582-8-8S131.604,208.036,136.022,208.036z"/>
<g>
</g>
<g>
</g>
<g>
</g>
<g>
</g>
<g>
</g>
<g>
</g>
<g>
</g>
<g>
</g>
<g>
</g>
<g>
</g>
<g>
</g>
<g>
</g>
<g>
</g>
<g>
</g>
<g>
</g>
</svg>
