<?xml version="1.0" encoding="iso-8859-1"?>
<!-- Generator: Adobe Illustrator 19.0.0, SVG Export Plug-In . SVG Version: 6.00 Build 0)  -->
<svg version="1.1" id="Capa_1" xmlns="http://www.w3.org/2000/svg"  x="0px" y="0px"
	 viewBox="0 0 480.036 480.036" style="enable-background:new 0 0 480.036 480.036;" xml:space="preserve">
<g>
	<g>
		<path d="M477.678,149.692c3.123-3.124,3.123-8.188,0-11.312l-71.992-71.992c-1.498-1.51-3.537-2.357-5.664-2.352h-50.92
			L335.75,13.972c-0.854-3.256-3.656-5.629-7.008-5.936l-88-8c-0.479-0.048-0.961-0.048-1.44,0l-88,8
			c-3.343,0.303-6.142,2.661-7.008,5.904l-13.352,50.096h-50.92c-2.127-0.005-4.166,0.842-5.664,2.352l-72,72
			c-3.123,3.124-3.123,8.188,0,11.312l69.664,69.648v252.688c0,4.418,3.582,8,8,8h368c4.418,0,8-3.582,8-8v-80c0-4.418-3.582-8-8-8
			h-40V219.348L477.678,149.692z M408.022,112.036V91.348l32.688,32.688l-32.688,32.688V112.036z M408.022,179.348l44-44
			l8.688,8.688l-52.688,52.688V179.348z M72.022,196.724l-52.688-52.688l8.688-8.688l44,44V196.724z M72.022,156.692l-32.688-32.656
			l32.688-32.688V156.692z M88.022,80.036h38.656l-14.4,53.936c-1.167,4.261,1.341,8.662,5.602,9.829
			c1.628,0.446,3.355,0.366,4.934-0.229l59.2-22.192l50.008,49.968v60.688h16v-64c0-2.122-0.844-4.156-2.344-5.656l-53.656-53.656
			V56.036h16v-16h-24c-4.418,0-8,3.582-8,8v58.456l-44.272,16.6L158.31,23.5l81.712-7.464l81.712,7.432l26.56,99.592l-44.272-16.568
			V48.036c0-4.418-3.582-8-8-8h-24v16h16v56c-0.002,3.337,2.067,6.325,5.192,7.496l64,24c0.899,0.332,1.85,0.503,2.808,0.504
			c4.418-0.001,8-3.583,7.999-8.001c0-0.696-0.091-1.39-0.271-2.063l-14.384-53.936h38.656v288.656
			c-3.549,0.533-7.034,1.428-10.4,2.672l0.08-0.088c-25.526-25.444-66.772-25.612-92.504-0.376
			c-5.53-1.888-11.333-2.856-17.176-2.864c-1.6,0-3.2,0.096-4.752,0.232c-19.947-17.58-48.552-21.334-72.36-9.496
			c-9.49-12.911-10.012-30.344-1.312-43.8c3.536,2.84,7.834,4.568,12.352,4.968c6.597,0.558,13.133-1.623,18.072-6.032
			c9.102,8.171,22.898,8.171,32,0c0.152,0.144,0.312,0.28,0.472,0.408c5.396,4.576,12.532,6.547,19.512,5.392
			c11.73-2.253,20.161-12.585,20.016-24.528v-15.784c-0.018-17.312-14.048-31.342-31.36-31.36h-104.64
			c-11.136,0.025-20.792,7.707-23.32,18.552c-20.554,16.261-32.583,40.999-32.68,67.208v52.184l-16,16V80.036z M366.79,379.692
			c-1.555,1.23-3.04,2.547-4.448,3.944c-14.555,14.536-38.133,14.536-52.688,0c-1.652-1.637-3.411-3.163-5.264-4.568h0
			C322.713,364.471,348.763,364.732,366.79,379.692z M181.454,367.636c-1.32,1.136-2.64,2.296-3.896,3.552l-5.104,5.104
			c-6.205-3.933-13.165-6.522-20.432-7.6v-27.616c0.052-16.729,6.431-32.819,17.856-45.04h14.144c0.06,1.48,0.247,2.952,0.56,4.4
			C168.242,319.464,166.952,347.172,181.454,367.636z M160.022,280.036c-4.418,0-8-3.582-8-8s3.582-8,8-8h104.64
			c8.479,0.009,15.351,6.881,15.36,15.36v15.784c0.152,4.109-2.606,7.759-6.6,8.736c-4.35,0.773-8.503-2.126-9.277-6.477
			c-0.082-0.463-0.124-0.933-0.123-1.403c0-4.418-3.582-8-8-8s-8,3.582-8,8s-3.582,8-8,8s-8-3.582-8-8s-3.582-8-8-8s-8,3.582-8,8
			c0.002,1.404-0.365,2.783-1.064,4c-1.575,2.69-4.549,4.243-7.656,4c-4.341-0.719-7.464-4.563-7.28-8.96v-7.04c0-4.418-3.582-8-8-8
			H160.022z M247.694,373.924c-4.92,2.526-9.417,5.802-13.328,9.712c-13.376,13.302-34.596,14.471-49.352,2.72l3.856-3.856
			c9.301-9.356,21.959-14.602,35.152-14.568C232.29,367.918,240.429,369.978,247.694,373.924z M150.79,294.148
			c-9.593,13.77-14.747,30.145-14.768,46.928v27.616c-5.571,0.825-10.973,2.541-16,5.08v-40c-0.047-18.215,7.114-35.71,19.92-48.664
			v-0.032C142.569,289.117,146.348,292.278,150.79,294.148z M88.022,424.604l29.656-29.656c14.549-14.549,38.139-14.549,52.688,0
			c0,0,0,0,0,0c20.808,20.769,54.504,20.769,75.312,0c14.549-14.549,38.139-14.549,52.688,0c0,0,0,0,0,0
			c20.808,20.769,54.504,20.769,75.312,0c5.029-5.023,11.397-8.492,18.344-9.992v23.736c-11.235,1.662-21.635,6.903-29.656,14.944
			c-14.555,14.536-38.133,14.536-52.688,0c-20.792-20.797-54.507-20.8-75.304-0.008c-0.003,0.003-0.005,0.005-0.008,0.008
			c-14.555,14.536-38.133,14.536-52.688,0c-20.792-20.797-54.507-20.8-75.304-0.008c-0.003,0.003-0.005,0.005-0.008,0.008
			L88.022,441.98V424.604z M440.022,400.036v64H88.59l29.088-29.088c14.549-14.549,38.139-14.549,52.688,0c0,0,0,0,0,0
			c20.808,20.769,54.504,20.769,75.312,0c14.549-14.549,38.139-14.549,52.688,0c0,0,0,0,0,0c20.808,20.769,54.504,20.769,75.312,0
			c5.029-5.023,11.397-8.492,18.344-9.992v23.08h16v-48H440.022z"/>
	</g>
</g>
<g>
	<g>
		<path d="M368.022,160.036h-56v16h48v43.056l-24,12l-24-12v-43.056h-16v48c-0.017,3.047,1.699,5.838,4.424,7.2l32,16
			c2.251,1.125,4.901,1.125,7.152,0l32-16c2.725-1.362,4.441-4.153,4.424-7.2v-56C376.022,163.618,372.44,160.036,368.022,160.036z"
			/>
	</g>
</g>
<g>
	<g>
		<path d="M136.022,192.036c-13.255,0-24,10.745-24,24s10.745,24,24,24s24-10.745,24-24S149.277,192.036,136.022,192.036z
			 M136.022,224.036c-4.418,0-8-3.582-8-8s3.582-8,8-8s8,3.582,8,8S140.44,224.036,136.022,224.036z"/>
	</g>
</g>
<g>
</g>
<g>
</g>
<g>
</g>
<g>
</g>
<g>
</g>
<g>
</g>
<g>
</g>
<g>
</g>
<g>
</g>
<g>
</g>
<g>
</g>
<g>
</g>
<g>
</g>
<g>
</g>
<g>
</g>
</svg>
