<?xml version="1.0" encoding="iso-8859-1"?>
<!-- Generator: Adobe Illustrator 19.0.0, SVG Export Plug-In . SVG Version: 6.00 Build 0)  -->
<svg version="1.1" id="Capa_1" xmlns="http://www.w3.org/2000/svg"  x="0px" y="0px"
	 viewBox="0 0 479.982 479.982" style="enable-background:new 0 0 479.982 479.982;" xml:space="preserve">
<path style="fill:#D3D0C7;" d="M16.072,23.991h48v58.64h-48V23.991z"/>
<path style="fill:#F6F6E7;" d="M392.072,79.991h-88v-56h-128v56h-104v-8h-64v160h104v176h16v48h224v-48h16v-48l104-104
	L392.072,79.991z M368.072,183.991l26.664,53.336l-26.664,26.664V183.991z"/>
<path style="fill:#D3D0C7;" d="M128.072,407.991h224v48h-224L128.072,407.991z"/>
<path style="fill:#BB9373;" d="M304.072,79.991c0,35.346-28.654,64-64,64s-64-28.654-64-64h-64v328h256v-328H304.072z"/>
<path style="fill:#FCD797;" d="M368.072,239.991l-32-32l-32,32l-32-32l-32,32l-32-32l-32,32l-32-32l-32,32v-40l32-32l32,32l32-32
	l32,32l32-32l32,32l32-32l32,32V239.991z"/>
<g>
	<path style="fill:#D3D0C7;" d="M200.072,47.991h16v48h-16V47.991z"/>
	<path style="fill:#D3D0C7;" d="M232.072,47.991h16v48h-16L232.072,47.991z"/>
	<path style="fill:#D3D0C7;" d="M264.072,47.991h16v48h-16V47.991z"/>
	<path style="fill:#D3D0C7;" d="M136.072,359.991h16v48h-16V359.991z"/>
	<path style="fill:#D3D0C7;" d="M184.072,359.991h16v48h-16V359.991z"/>
	<path style="fill:#D3D0C7;" d="M232.072,359.991h16v48h-16L232.072,359.991z"/>
	<path style="fill:#D3D0C7;" d="M280.072,359.991h16v48h-16V359.991z"/>
	<path style="fill:#D3D0C7;" d="M328.072,359.991h16v48h-16V359.991z"/>
	<path style="fill:#D3D0C7;" d="M328.072,295.991h16v16h-16V295.991z"/>
	<path style="fill:#D3D0C7;" d="M312.072,311.991h16v16h-16V311.991z"/>
	<path style="fill:#D3D0C7;" d="M328.072,327.991h16v16h-16V327.991z"/>
</g>
<path d="M399.28,76.679c-1.298-2.854-4.144-4.687-7.28-4.688h-80v-48c0-4.418-3.582-8-8-8H176c-4.418,0-8,3.582-8,8v48H80
	c0-4.418-3.582-8-8-8v-40c0-4.418-3.582-8-8-8H16c-4.418,0-8,3.582-8,8v40c-4.418,0-8,3.582-8,8v160c0,4.418,3.582,8,8,8h96v168
	c0,4.418,3.582,8,8,8h8v40c0,4.418,3.582,8,8,8h224c4.418,0,8-3.582,8-8v-40h8c4.418,0,8-3.582,8-8v-44.688l101.656-101.656
	c2.349-2.364,2.987-5.937,1.6-8.968L399.28,76.679z M120,203.303l24-24l26.344,26.344c3.124,3.123,8.188,3.123,11.312,0L208,179.303
	l26.344,26.344c3.124,3.123,8.188,3.123,11.312,0L272,179.303l26.344,26.344c3.124,3.123,8.188,3.123,11.312,0L336,179.303l24,24
	v17.376l-18.344-18.344c-3.124-3.123-8.188-3.123-11.312,0L304,228.679l-26.344-26.344c-3.124-3.123-8.188-3.123-11.312,0
	L240,228.679l-26.344-26.344c-3.124-3.123-8.188-3.123-11.312,0L176,228.679l-26.344-26.344c-3.124-3.123-8.188-3.123-11.312,0
	L120,220.679V203.303z M376,217.879l8.936,17.864L376,244.679V217.879z M184,31.991h112v48c0,30.928-25.072,56-56,56
	s-56-25.072-56-56V31.991z M128,87.991h40.472c4.546,39.504,40.255,67.843,79.759,63.297c33.245-3.825,59.472-30.052,63.297-63.297
	H360v92.688l-18.344-18.344c-3.124-3.123-8.188-3.123-11.312,0L304,188.679l-26.344-26.344c-3.124-3.123-8.188-3.123-11.312,0
	L240,188.679l-26.344-26.344c-3.124-3.123-8.188-3.123-11.312,0L176,188.679l-26.344-26.344c-3.124-3.123-8.188-3.123-11.312,0
	L120,180.679V87.991H128z M24,31.991h32v32H24V31.991z M16,223.991v-144h48v128h16v-120h24v136H16z M344,447.991H136v-32h208
	V447.991z M360,399.991h-16v-40h-16v40h-32v-40h-16v40h-32v-40h-16v40h-32v-40h-16v40h-32v-40h-16v40h-16V243.303l24-24
	l26.344,26.344c3.124,3.123,8.188,3.123,11.312,0L208,219.303l26.344,26.344c3.124,3.123,8.188,3.123,11.312,0L272,219.303
	l26.344,26.344c3.124,3.123,8.188,3.123,11.312,0L336,219.303l24,24L360,399.991z M376,340.679v-73.376l16.472-16.472l8.368,16.736
	c1.355,2.712,4.128,4.425,7.16,4.424h16v-16h-11.056L376,182.103V87.991h10.848L462.4,254.255L376,340.679z"/>
<path d="M200,47.991h16v48h-16V47.991z"/>
<path d="M232,47.991h16v48h-16V47.991z"/>
<path d="M264,47.991h16v48h-16V47.991z"/>
<path d="M328,327.991h16v16h-16V327.991z"/>
<path d="M312,311.991h16v16h-16V311.991z"/>
<path d="M328,295.991h16v16h-16V295.991z"/>
<g>
</g>
<g>
</g>
<g>
</g>
<g>
</g>
<g>
</g>
<g>
</g>
<g>
</g>
<g>
</g>
<g>
</g>
<g>
</g>
<g>
</g>
<g>
</g>
<g>
</g>
<g>
</g>
<g>
</g>
</svg>
