<?xml version="1.0" encoding="iso-8859-1"?>
<!-- Generator: Adobe Illustrator 19.0.0, SVG Export Plug-In . SVG Version: 6.00 Build 0)  -->
<svg version="1.1" id="Capa_1" xmlns="http://www.w3.org/2000/svg"  x="0px" y="0px"
	 viewBox="0 0 479.982 479.982" style="enable-background:new 0 0 479.982 479.982;" xml:space="preserve">
<g>
	<g>
		<path d="M479.256,252.679l-79.976-176c-1.298-2.854-4.144-4.687-7.28-4.688h-80v-48c0-4.418-3.582-8-8-8H176c-4.418,0-8,3.582-8,8
			v48H80c0-4.418-3.582-8-8-8v-40c0-4.418-3.582-8-8-8H16c-4.418,0-8,3.582-8,8v40c-4.418,0-8,3.582-8,8v160c0,4.418,3.582,8,8,8h96
			v168c0,4.418,3.582,8,8,8h8v40c0,4.418,3.582,8,8,8h224c4.418,0,8-3.582,8-8v-40h8c4.418,0,8-3.582,8-8v-44.688l101.656-101.656
			C480.005,259.283,480.643,255.71,479.256,252.679z M24,31.991h32v32H24V31.991z M104,223.991H16v-144h48v128h16v-120h24V223.991z
			 M184,31.991h112v48c0,30.928-25.072,56-56,56c-30.928,0-56-25.072-56-56V31.991z M344,447.991H136v-32h208V447.991z M360,399.991
			h-16v-40h-16v40h-32v-40h-16v40h-32v-40h-16v40h-32v-40h-16v40h-32v-40h-16v40h-16V243.303l24-24l26.344,26.344
			c3.124,3.123,8.188,3.123,11.312,0L208,219.303l26.344,26.344c3.124,3.123,8.188,3.123,11.312,0L272,219.303l26.344,26.344
			c3.124,3.123,8.188,3.123,11.312,0L336,219.303l24,24V399.991z M360,220.679l-18.344-18.344c-3.124-3.123-8.188-3.123-11.312,0
			L304,228.679l-26.344-26.344c-3.124-3.123-8.188-3.123-11.312,0L240,228.679l-26.344-26.344c-3.124-3.123-8.188-3.123-11.312,0
			L176,228.679l-26.344-26.344c-3.124-3.123-8.188-3.123-11.312,0L120,220.679v-17.376l24-24l26.344,26.344
			c3.124,3.123,8.188,3.123,11.312,0L208,179.303l26.344,26.344c3.124,3.123,8.188,3.123,11.312,0L272,179.303l26.344,26.344
			c3.124,3.123,8.188,3.123,11.312,0L336,179.303l24,24V220.679z M360,180.679l-18.344-18.344c-3.124-3.123-8.188-3.123-11.312,0
			L304,188.679l-26.344-26.344c-3.124-3.123-8.188-3.123-11.312,0L240,188.679l-26.344-26.344c-3.124-3.123-8.188-3.123-11.312,0
			L176,188.679l-26.344-26.344c-3.124-3.123-8.188-3.123-11.312,0L120,180.679V87.991h8h40.472
			c4.546,39.504,40.255,67.843,79.759,63.297c33.245-3.826,59.472-30.052,63.297-63.297H360V180.679z M376,217.879l8.936,17.864
			L376,244.679V217.879z M376,340.679v-73.376l16.472-16.472l8.368,16.736c1.355,2.712,4.128,4.425,7.16,4.424h16v-16h-11.056
			L376,182.103V87.991h10.848L462.4,254.255L376,340.679z"/>
	</g>
</g>
<g>
	<g>
		<rect x="200" y="47.991" width="16" height="48"/>
	</g>
</g>
<g>
	<g>
		<rect x="232" y="47.991" width="16" height="48"/>
	</g>
</g>
<g>
	<g>
		<rect x="264" y="47.991" width="16" height="48"/>
	</g>
</g>
<g>
	<g>
		<rect x="328" y="327.991" width="16" height="16"/>
	</g>
</g>
<g>
	<g>
		<rect x="312" y="311.991" width="16" height="16"/>
	</g>
</g>
<g>
	<g>
		<rect x="328" y="295.991" width="16" height="16"/>
	</g>
</g>
<g>
</g>
<g>
</g>
<g>
</g>
<g>
</g>
<g>
</g>
<g>
</g>
<g>
</g>
<g>
</g>
<g>
</g>
<g>
</g>
<g>
</g>
<g>
</g>
<g>
</g>
<g>
</g>
<g>
</g>
</svg>
