<?xml version="1.0" encoding="iso-8859-1"?>
<!-- Generator: Adobe Illustrator 19.0.0, SVG Export Plug-In . SVG Version: 6.00 Build 0)  -->
<svg version="1.1" id="Capa_1" xmlns="http://www.w3.org/2000/svg"  x="0px" y="0px"
	 viewBox="0 0 512 512" style="enable-background:new 0 0 512 512;" xml:space="preserve">
<g>
	<g>
		<path d="M503.48,112.985L347.481,3.612c-7.862-5.525-18.676-4.623-25.531,2.142c-31.433,31.028-100.466,31.028-131.9,0
			c-6.885-6.795-17.689-7.652-25.531-2.142L8.52,112.985c-6.861,4.811-9.997,13.39-7.853,21.492l25.495,96.372
			c2.488,9.405,11.371,15.658,21.074,14.809l53.765-4.692V492c0,11.046,8.954,20,20,20H391c11.046,0,20-8.954,20-20V240.965
			l53.765,4.692c9.69,0.846,18.587-5.403,21.074-14.809l25.495-96.372C513.477,126.375,510.341,117.796,503.48,112.985z M256,69.053
			c21.587,0,42.136-4.258,59.976-12.111c-0.512,32.646-27.211,59.049-59.976,59.049s-59.463-26.404-59.976-59.049
			C213.864,64.796,234.413,69.053,256,69.053z M451.474,204.346l-58.735-5.126c-5.586-0.489-11.119,1.392-15.253,5.18
			c-4.133,3.788-6.486,9.138-6.486,14.744v252.855H141.001V219.144c0-5.607-2.354-10.956-6.486-14.744
			c-4.134-3.788-9.668-5.675-15.253-5.18l-58.735,5.126l-17.623-66.615l113.128-79.315c1.293,54.025,45.64,97.576,99.969,97.576
			s98.676-43.551,99.969-97.576l113.128,79.315L451.474,204.346z"/>
	</g>
</g>
<g>
</g>
<g>
</g>
<g>
</g>
<g>
</g>
<g>
</g>
<g>
</g>
<g>
</g>
<g>
</g>
<g>
</g>
<g>
</g>
<g>
</g>
<g>
</g>
<g>
</g>
<g>
</g>
<g>
</g>
</svg>
