<?xml version="1.0" encoding="iso-8859-1"?>
<!-- Generator: Adobe Illustrator 19.0.0, SVG Export Plug-In . SVG Version: 6.00 Build 0)  -->
<svg version="1.1" id="Capa_1" xmlns="http://www.w3.org/2000/svg"  x="0px" y="0px"
	 viewBox="0 0 464 464" style="enable-background:new 0 0 464 464;" xml:space="preserve">
<path style="fill:#238892;" d="M206.464,99.2c28.209,14.102,62.509,2.667,76.612-25.542c1.577-3.155,2.859-6.45,3.828-9.842L296,32
	c-14.591,9.104-30.954,14.995-48,17.28c-10.618,1.44-21.382,1.44-32,0c-17.046-2.285-33.409-8.176-48-17.28l9.096,31.848
	C181.504,79.224,192.157,92.048,206.464,99.2L206.464,99.2z"/>
<path style="fill:#36AFAD;" d="M464,128l-64,64l-40-48v288H104V144l-40,48L0,128l96-96h72l9.12,31.84
	c8.668,30.309,40.265,47.853,70.574,39.186c18.952-5.42,33.766-20.234,39.186-39.186L296,32h72L464,128z"/>
<g>
	<path style="fill:#F8CF26;" d="M104,152h256v16H104V152z"/>
	<path style="fill:#F8CF26;" d="M104,208h256v16H104V208z"/>
</g>
<path style="fill:#CFDFE8;" d="M248,80V49.28c-10.62,1.416-21.38,1.416-32,0V80H248z"/>
<g>
</g>
<g>
</g>
<g>
</g>
<g>
</g>
<g>
</g>
<g>
</g>
<g>
</g>
<g>
</g>
<g>
</g>
<g>
</g>
<g>
</g>
<g>
</g>
<g>
</g>
<g>
</g>
<g>
</g>
</svg>
