<?xml version="1.0" encoding="iso-8859-1"?>
<!-- Generator: Adobe Illustrator 19.0.0, SVG Export Plug-In . SVG Version: 6.00 Build 0)  -->
<svg version="1.1" id="Capa_1" xmlns="http://www.w3.org/2000/svg"  x="0px" y="0px"
	 viewBox="0 0 479.997 479.997" style="enable-background:new 0 0 479.997 479.997;" xml:space="preserve">
<g>
	<g>
		<path d="M477.654,130.342l-96-96c-1.5-1.5-3.534-2.344-5.656-2.344h-72c-1.5,0.024-2.962,0.473-4.216,1.296v-0.072
			c-36.395,22.629-82.446,22.774-118.984,0.376c-1.385-1.039-3.069-1.6-4.8-1.6h-72c-2.122,0-4.156,0.844-5.656,2.344l-96,96
			c-3.123,3.124-3.123,8.188,0,11.312l64,64c3.123,3.126,8.188,3.128,11.314,0.005c0.173-0.173,0.338-0.353,0.494-0.541
			l25.848-31.024v265.904c0,4.418,3.582,8,8,8h256c4.418,0,8-3.582,8-8V174.094l25.848,31.024c2.827,3.396,7.871,3.857,11.267,1.03
			c0.188-0.156,0.369-0.321,0.541-0.494l64-64C480.777,138.53,480.777,133.466,477.654,130.342z M231.998,65.902
			c2.6,0.16,5.2,0.264,7.808,0.264c2.728,0,5.464-0.104,8.192-0.28v14.112h-16V65.902z M215.998,63.91v24.088c0,4.418,3.582,8,8,8
			h32c4.418,0,8-3.582,8-8V63.846c9.343-1.758,18.464-4.538,27.2-8.288l-4,14.088c-7.446,26.068-34.615,41.163-60.683,33.717
			c-16.309-4.659-29.058-17.408-33.717-33.717l-4-13.976C197.531,59.419,206.654,62.182,215.998,63.91z M359.998,431.998h-240v-200
			h240V431.998z M359.998,215.998h-240v-40h240V215.998z M408.534,188.15l-34.4-41.272c-2.835-3.389-7.88-3.838-11.269-1.003
			c-1.813,1.517-2.863,3.759-2.867,6.123v8h-240v-8c0.003-4.418-3.576-8.003-7.994-8.006c-2.38-0.002-4.637,1.056-6.158,2.886
			l-34.4,41.272L19.31,135.998l88-88h62.656l7.44,26.048c9.875,34.569,45.904,54.586,80.473,44.711
			c21.627-6.178,38.533-23.084,44.711-44.711l7.44-26.048h62.656l88,88L408.534,188.15z"/>
	</g>
</g>
<g>
</g>
<g>
</g>
<g>
</g>
<g>
</g>
<g>
</g>
<g>
</g>
<g>
</g>
<g>
</g>
<g>
</g>
<g>
</g>
<g>
</g>
<g>
</g>
<g>
</g>
<g>
</g>
<g>
</g>
</svg>
