<?xml version="1.0" encoding="iso-8859-1"?>
<!-- Generator: Adobe Illustrator 19.0.0, SVG Export Plug-In . SVG Version: 6.00 Build 0)  -->
<svg version="1.1" id="Capa_1" xmlns="http://www.w3.org/2000/svg"  x="0px" y="0px"
	 viewBox="0 0 422.897 422.897" style="enable-background:new 0 0 422.897 422.897;" xml:space="preserve">
<g>
	<g>
		<g>
			<path d="M164.788,380.577c14.88,1.16,30.64,1.72,46.64,1.72v0c16,0,31.76-0.56,46.52-1.68c41.44-3.16,73.84-12,73.84-27.48
				V23.177c0-8.88-15.24-15.36-40-18.64c-26.665-3.199-53.505-4.709-80.36-4.52c-26.895-0.194-53.776,1.316-80.48,4.52
				c-24.64,3.32-40,9.8-40,18.64v329.92C90.948,368.497,123.348,377.417,164.788,380.577z M211.428,16.177v0.04c165.6,0,96,14,0,14
				C45.828,30.177,115.428,16.177,211.428,16.177z M107.428,350.217v-26.48c13.4,5.68,34.08,9.36,57.68,11.12
				c14.76,1.12,30.68,1.68,46.52,1.68c15.84,0,31.76-0.56,46.52-1.68c23.6-1.8,44.24-5.48,57.68-11.12v26.48
				c0,4.84-25.8,11.76-58.88,14.28c-14.2,1.08-29.72,1.64-45.32,1.64c-15.6,0-31.12-0.56-45.32-1.64
				C133.068,361.977,107.428,355.057,107.428,350.217L107.428,350.217z"/>
			<path d="M388.668,337.857c-13.483-5.932-27.545-10.449-41.96-13.48v28.72c0,34.72-63.16,40.48-87.6,42.36
				c-16,1.2-31.76,1.72-47.64,1.72s-32-0.52-47.64-1.72c-24.44-1.88-87.6-7.6-87.6-42.36v-28.72
				c-14.429,3.027-28.504,7.545-42,13.48v0c-17.04,8-26.68,17.88-26.68,29.28c0,17.4,24.28,32,63.52,41.56
				c36,8.8,85.72,14.2,140.36,14.2s104.28-5.44,140.36-14.2c39.24-9.56,63.56-24,63.56-41.56
				C415.348,355.737,405.708,345.817,388.668,337.857z"/>
		</g>
	</g>
</g>
<g>
</g>
<g>
</g>
<g>
</g>
<g>
</g>
<g>
</g>
<g>
</g>
<g>
</g>
<g>
</g>
<g>
</g>
<g>
</g>
<g>
</g>
<g>
</g>
<g>
</g>
<g>
</g>
<g>
</g>
</svg>
