<?xml version="1.0" encoding="iso-8859-1"?>
<!-- Generator: Adobe Illustrator 19.0.0, SVG Export Plug-In . SVG Version: 6.00 Build 0)  -->
<svg version="1.1" id="Capa_1" xmlns="http://www.w3.org/2000/svg"  x="0px" y="0px"
	 viewBox="0 0 421.4 421.4" style="enable-background:new 0 0 421.4 421.4;" xml:space="preserve">
<g>
	<g>
		<path d="M191.707,10.203c-12.696,5.142-22.765,15.211-27.907,27.907c3.52-0.24,7.053-0.36,10.6-0.36H247
			c3.547,0,7.08,0.12,10.6,0.36C247.11,12.208,217.609-0.286,191.707,10.203z"/>
	</g>
</g>
<g>
	<g>
		<path d="M247,50.35h-72.64C91.911,50.592,25.14,117.381,24.92,199.83v128h371.56v-128C396.26,117.366,329.464,50.57,247,50.35z"/>
	</g>
</g>
<g>
	<g>
		<path d="M402.12,340.35h-0.04H19.28C8.641,340.372,0.022,348.991,0,359.63v36c0.022,10.639,8.641,19.258,19.28,19.28h382.84
			c10.639-0.022,19.258-8.641,19.28-19.28v-36C421.378,348.991,412.759,340.372,402.12,340.35z M51.2,401.71h-32
			c-3.26-0.022-5.898-2.66-5.92-5.92v-36c0.022-3.26,2.66-5.898,5.92-5.92h32V401.71z M173.44,401.71h-47.76v-48h47.76V401.71z
			 M295.68,401.71h-47.76v-48h47.76V401.71z M408,395.79c-0.022,3.26-2.66,5.898-5.92,5.92h-32v-48h32
			c3.26,0.022,5.898,2.66,5.92,5.92V395.79z"/>
	</g>
</g>
<g>
</g>
<g>
</g>
<g>
</g>
<g>
</g>
<g>
</g>
<g>
</g>
<g>
</g>
<g>
</g>
<g>
</g>
<g>
</g>
<g>
</g>
<g>
</g>
<g>
</g>
<g>
</g>
<g>
</g>
</svg>
