<?xml version="1.0" encoding="iso-8859-1"?>
<!-- Generator: Adobe Illustrator 19.0.0, SVG Export Plug-In . SVG Version: 6.00 Build 0)  -->
<svg version="1.1" id="Capa_1" xmlns="http://www.w3.org/2000/svg"  x="0px" y="0px"
	 viewBox="0 0 512 512" style="enable-background:new 0 0 512 512;" xml:space="preserve">
<path style="fill:#009796;" d="M455.015,159.985c0-10.733-2.175-20.958-6.109-30.258c-14.113-33.368-50.318-51.684-85.861-44.664
	l-65.415,15.09c-13.711,2.708-27.654,4.072-41.63,4.072l0,0c-13.976,0-27.919-1.364-41.63-4.072l-65.415-15.09
	c-35.543-7.02-71.748,11.297-85.861,44.664c-3.934,9.3-6.109,19.525-6.109,30.257v130.431h398.029v-130.43H455.015z"/>
<rect x="56.985" y="290.421" style="fill:#C9FDFB;" width="398.03" height="71.33"/>
<path style="fill:#34C7B4;" d="M10,395.082L10,395.082c0,18.412,14.926,33.337,33.337,33.337h425.325
	c18.412,0,33.337-14.926,33.337-33.337l0,0c0-18.412-14.926-33.337-33.337-33.337H43.337C24.926,361.744,10,376.67,10,395.082z"/>
<path d="M383.68,335.578c-0.649,0-1.31-0.06-1.95-0.19s-1.27-0.33-1.87-0.58s-1.189-0.56-1.729-0.92
	c-0.55-0.36-1.061-0.78-1.521-1.24s-0.88-0.97-1.239-1.52c-0.36-0.54-0.67-1.12-0.92-1.73c-0.25-0.6-0.44-1.23-0.57-1.87
	s-0.19-1.3-0.19-1.95c0-0.65,0.061-1.31,0.19-1.95s0.32-1.27,0.57-1.87c0.25-0.61,0.56-1.19,0.92-1.73
	c0.359-0.55,0.779-1.06,1.239-1.52s0.971-0.88,1.521-1.24c0.54-0.36,1.13-0.67,1.729-0.92c0.601-0.25,1.23-0.44,1.87-0.57
	c1.29-0.26,2.62-0.26,3.91,0c0.641,0.13,1.271,0.32,1.87,0.57s1.18,0.56,1.73,0.92c0.54,0.36,1.05,0.78,1.52,1.24
	c0.46,0.46,0.88,0.97,1.24,1.52c0.359,0.54,0.67,1.12,0.92,1.73c0.25,0.6,0.439,1.23,0.57,1.87c0.13,0.64,0.199,1.3,0.199,1.95
	c0,0.65-0.069,1.31-0.199,1.95c-0.131,0.64-0.32,1.27-0.57,1.87c-0.25,0.61-0.561,1.19-0.92,1.73c-0.36,0.55-0.78,1.06-1.24,1.52
	c-0.47,0.46-0.979,0.88-1.52,1.24c-0.551,0.36-1.131,0.67-1.73,0.92s-1.229,0.45-1.87,0.58
	C384.99,335.518,384.34,335.578,383.68,335.578z"/>
<path d="M468.662,351.744h-3.647V159.985c0-11.84-2.321-23.331-6.898-34.153c-15.774-37.294-56.573-58.563-97.009-50.58
	c-0.104,0.021-0.207,0.042-0.311,0.066l-65.26,15.054c-25.986,5.111-53.086,5.111-79.073,0l-65.261-15.054
	c-0.103-0.024-0.206-0.046-0.31-0.066c-40.438-7.986-81.235,13.286-97.008,50.58c-4.578,10.823-6.899,22.313-6.899,34.153v191.759
	h-3.648C19.441,351.744,0,371.185,0,395.082c0,23.896,19.441,43.337,43.337,43.337h425.325c23.896,0,43.338-19.441,43.338-43.337
	C512,371.185,492.559,351.744,468.662,351.744z M66.985,159.985c0-9.148,1.79-18.018,5.319-26.362
	c12.083-28.568,43.424-44.857,74.563-38.779l65.255,15.052c0.103,0.024,0.206,0.046,0.31,0.066c28.633,5.655,58.501,5.655,87.134,0
	c0.104-0.021,0.207-0.042,0.311-0.066l65.254-15.052c31.141-6.082,62.48,10.211,74.564,38.779
	c3.529,8.343,5.318,17.213,5.318,26.362v120.431H66.985V159.985z M66.985,335.578h279.699c5.522,0,10-4.477,10-10s-4.478-10-10-10
	H66.985v-15.162h378.029v51.328H66.985V335.578z M468.662,418.419H43.337C30.469,418.419,20,407.95,20,395.082
	s10.469-23.337,23.337-23.337h425.325c12.868,0,23.338,10.469,23.338,23.337S481.53,418.419,468.662,418.419z"/>
<g>
</g>
<g>
</g>
<g>
</g>
<g>
</g>
<g>
</g>
<g>
</g>
<g>
</g>
<g>
</g>
<g>
</g>
<g>
</g>
<g>
</g>
<g>
</g>
<g>
</g>
<g>
</g>
<g>
</g>
</svg>
