<?xml version="1.0" encoding="iso-8859-1"?>
<!-- Generator: Adobe Illustrator 19.0.0, SVG Export Plug-In . SVG Version: 6.00 Build 0)  -->
<svg version="1.1" id="Capa_1" xmlns="http://www.w3.org/2000/svg"  x="0px" y="0px"
	 viewBox="0 0 512 512" style="enable-background:new 0 0 512 512;" xml:space="preserve">
<g>
	<g>
		<path d="M504.542,356.472c-7.051-9.369-17.82-14.741-29.544-14.741H37.002c-11.725,0-22.495,5.374-29.545,14.742
			c-7.05,9.369-9.233,21.204-5.985,32.472l13.938,48.369c6.553,22.742,27.66,38.625,51.327,38.625h378.527
			c23.667,0,44.774-15.883,51.327-38.625l13.939-48.369C513.774,377.677,511.593,365.842,504.542,356.472z"/>
	</g>
</g>
<g>
	<g>
		<path d="M292.297,36.06h-72.594c-87.002,0-157.783,70.781-157.783,157.783v116.865h388.161V193.843
			C450.081,106.841,379.299,36.06,292.297,36.06z"/>
	</g>
</g>
<g>
</g>
<g>
</g>
<g>
</g>
<g>
</g>
<g>
</g>
<g>
</g>
<g>
</g>
<g>
</g>
<g>
</g>
<g>
</g>
<g>
</g>
<g>
</g>
<g>
</g>
<g>
</g>
<g>
</g>
</svg>
