<?xml version="1.0" encoding="iso-8859-1"?>
<!-- Generator: Adobe Illustrator 19.0.0, SVG Export Plug-In . SVG Version: 6.00 Build 0)  -->
<svg version="1.1" id="Capa_1" xmlns="http://www.w3.org/2000/svg"  x="0px" y="0px"
	 viewBox="0 0 437.84 437.84" style="enable-background:new 0 0 437.84 437.84;" xml:space="preserve">
<g>
	<g>
		<path d="M353.52,267.182L353.52,267.182c-6.48-30.56-29.96-115.4-64.24-154.16c-14.88-16.84-32-10.56-47.2-5.08
			c-7.313,3.149-15.1,5.056-23.04,5.64c-8.125-0.895-16.038-3.168-23.4-6.72c-16.84-6.48-36-13.72-49.36-0.4
			c-38.8,38.4-57.4,128.88-62.28,160.84c-46.64,5.88-84,16-84,31.72c0.12,31.4,143.32,39.84,219.04,39.84s218.8-8.24,218.8-39.56
			C437.96,282.862,400.32,273.222,353.52,267.182z M95.04,265.982c5.28-32,23.52-116.76,58.96-152c7.64-7.64,20-4,37.6,2.92
			c9.8,3.72,19,7.24,27.44,7.24c9.178-0.527,18.193-2.652,26.64-6.28c16.24-5.88,25.84-8.6,35.24,2.16
			c31.64,35.88,54.4,114.84,61.44,145.96l2.16,10.96v0.8c-5.28,6.68-52,16-125.36,16s-120.28-9.2-125.56-16l-0.08-0.76
			L95.04,265.982z M219.04,327.902c-134.56,0-208-19-208-28.8c0-5.68,24.68-14.32,71.48-20.56c0.8,25.28,122.64,26.04,136.52,26.04
			s135.56-0.8,136.32-26.04c47.12,6.24,71.68,14.88,71.68,20.56C427.04,308.902,353.72,327.902,219.04,327.902z"/>
	</g>
</g>
<g>
</g>
<g>
</g>
<g>
</g>
<g>
</g>
<g>
</g>
<g>
</g>
<g>
</g>
<g>
</g>
<g>
</g>
<g>
</g>
<g>
</g>
<g>
</g>
<g>
</g>
<g>
</g>
<g>
</g>
</svg>
