<?xml version="1.0" encoding="iso-8859-1"?>
<!-- Generator: Adobe Illustrator 18.0.0, SVG Export Plug-In . SVG Version: 6.00 Build 0)  -->
<!DOCTYPE svg PUBLIC "-//W3C//DTD SVG 1.1//EN" "http://www.w3.org/Graphics/SVG/1.1/DTD/svg11.dtd">
<svg version="1.1" id="Capa_1" xmlns="http://www.w3.org/2000/svg"  x="0px" y="0px"
	 viewBox="0 0 297.124 297.124" style="enable-background:new 0 0 297.124 297.124;" xml:space="preserve">
<path d="M186.3,108.07c0.817-12.048,3.965-23.848,9.31-34.729l0.007-0.014c4.603-9.369,3.845-20.489-1.972-29.157
	c-5.969-8.895-10.034-24.016-10.477-41.393C183.129,1.233,181.866,0,180.32,0h-6.364c-1.542,0-2.802,1.224-2.848,2.766
	c-0.71,23.836-10.533,42.732-22.55,42.732c-12.016,0-21.839-18.896-22.549-42.732C125.964,1.226,124.703,0,123.162,0h-6.364
	c-1.547,0-2.809,1.232-2.848,2.778c-0.442,17.377-4.508,32.498-10.477,41.393c-5.809,8.657-6.568,19.799-1.972,29.156l0.007,0.015
	c5.347,10.884,8.495,22.687,9.311,34.739c-15.873,25.282-27.211,65.196-27.211,110.116c0,14.778,9.004,50.248,15.549,73.255
	c0.954,3.353,4.018,5.672,7.504,5.672h83.792c3.491,0,6.548-2.314,7.503-5.671c6.546-23.007,15.559-58.477,15.559-73.256
	C213.515,173.27,202.174,133.351,186.3,108.07z"/>
<g>
</g>
<g>
</g>
<g>
</g>
<g>
</g>
<g>
</g>
<g>
</g>
<g>
</g>
<g>
</g>
<g>
</g>
<g>
</g>
<g>
</g>
<g>
</g>
<g>
</g>
<g>
</g>
<g>
</g>
</svg>
