<?xml version="1.0" encoding="iso-8859-1"?>
<!-- Generator: Adobe Illustrator 19.0.0, SVG Export Plug-In . SVG Version: 6.00 Build 0)  -->
<svg version="1.1" id="Capa_1" xmlns="http://www.w3.org/2000/svg"  x="0px" y="0px"
	 viewBox="0 0 512 512" style="enable-background:new 0 0 512 512;" xml:space="preserve">
<path style="fill:#A4E869;" d="M489.978,148.452v239.475l-462.833,5.478V167.983c0-11.562,7.434-21.785,18.411-25.417
	c23.095-7.652,64.571-14.242,104.885,15.473c58.963,43.471,188.343-143.512,329.563-30.429
	C486.325,132.671,489.978,140.353,489.978,148.452z"/>
<path style="fill:#009900;" d="M489.978,205.976v181.951l-462.833,5.478V217.637c19.165-17.875,51.083-34.241,90.772-4.158
	c66.079,50.09,131.047-74.952,209.473-22.857C383.078,227.631,430.756,164.946,489.978,205.976z"/>
<path style="fill:#8B5016;" d="M503.833,421.293H241.372l1.727-3.692l25.268-53.891l13.835-29.517l25.457-54.298l15.314-32.652
	l0.784-1.677l8.039-17.15l26.956-57.484c8.049-17.19,32.484-17.19,40.543,0l46.964,100.191l10.203,21.765l14.302,30.499
	l30.102,64.203l10.351,22.083C513.757,415.081,509.807,421.293,503.833,421.293z"/>
<g>
	<path style="fill:#754210;" d="M500.865,387.589c-7.483,12.714-21.318,21.269-37.109,21.269c-15.989,0-29.943-8.764-37.367-21.725
		c-7.424,12.962-21.378,21.725-37.357,21.725c-17.12,0-31.928-10.044-38.855-24.544c-6.927,14.5-21.735,24.544-38.846,24.544
		c-23.73,0-43.024-19.294-43.024-43.024c0-0.714,0.02-1.419,0.06-2.124l13.835-29.517c7.662-7.067,17.894-11.384,29.129-11.384
		c17.11,0,31.918,10.054,38.846,24.554c6.927-14.5,21.735-24.554,38.855-24.554c15.979,0,29.933,8.764,37.357,21.736
		c7.424-12.972,21.378-21.736,37.367-21.736c2.382,0,4.724,0.199,7.007,0.576L500.865,387.589z"/>
	<polygon style="fill:#754210;" points="373.947,421.293 241.372,421.293 243.099,417.602 307.659,279.895 370.979,414.962 	"/>
	<path style="fill:#754210;" d="M453.967,324.928c-2.963,8.302-10.123,18.789-27.344,21.661c-1.891,0.313-3.782,0.475-5.612,0.475
		c-9.546,0-22.611-4.126-30.651-23.775c-4.146-10.112-6.32-22.541-8.434-34.554c-1.689-9.647-4.773-27.243-8.474-31.581
		c-0.111,0.02-0.243,0.051-0.384,0.091c-7.503,2.022-14.4,3.044-20.518,3.044h-0.04c-14.258,0-22.632-5.572-27.152-10.254
		c-0.88-0.91-1.679-1.851-2.387-2.791l0.789-1.679l8.039-17.151l26.95-57.479c8.049-17.191,32.491-17.191,40.551,0l46.962,100.184
		l10.203,21.772c0.01,1.921,0.061,3.863,0.111,5.673C456.798,307.312,457.031,316.353,453.967,324.928z"/>
</g>
<path style="fill:#60DC4D;" d="M424.135,331.623c-37.75,6.27-16.857-99.315-55.022-89.02
	c-38.165,10.284-37.315-14.188-37.315-14.188l26.95-57.479c8.049-17.191,32.491-17.191,40.551,0l46.962,100.184
	C432.892,289.079,454.361,326.597,424.135,331.623z"/>
<path style="fill:#B4732D;" d="M357.501,421.293H26.907c-5.975,0-9.925-6.213-7.384-11.622l20.574-43.887l68.56-146.232l9.26-19.771
	l42.587-90.832c10.044-21.437,40.533-21.437,50.577,0l35.114,74.903l7.92,16.882l26.132,55.748l31.094,66.327l33.059,70.526
	l10.709,22.847L357.501,421.293z"/>
<g>
	<path style="fill:#8B5016;" d="M344.401,393.335c-7.91,9.478-19.8,15.522-33.069,15.522c-23.73,0-43.024-19.294-43.024-43.024
		c0-23.72,19.294-43.024,43.024-43.024h0.01L344.401,393.335z"/>
	<path style="fill:#8B5016;" d="M280.386,421.293H26.907c-5.975,0-9.925-6.213-7.384-11.622l20.574-43.887
		c0.179-0.01,0.347-0.01,0.526-0.01h0.506c12.981-23.968,38.24-39.391,66.139-39.391c28.792,0,54.408,16.217,67.012,40.999
		c4.317-1.062,8.764-1.608,13.269-1.608c15.592,0,30.112,6.461,40.453,17.478c3.96-1.291,8.138-1.965,12.376-1.965
		C262.442,381.287,280.386,399.231,280.386,421.293z"/>
	<path style="fill:#8B5016;" d="M254.113,200.737c-1.679,5.552-1.881,12.307-2.073,18.9c-0.233,7.807-0.445,15.189-3.034,21.924
		c-4.075,10.628-13.227,16.726-25.099,16.726c-6.391,0-18.243-2.154-25.827-16.544c-3.58-6.806-5.42-14.703-7.2-22.348
		c-1.173-5.046-3.307-14.218-5.38-16.858c-3.944,0.02-8.96,0.556-11.093,2.902c-1.81,1.992-2.943,6.007-4.146,10.264
		c-2.558,9.051-7.878,27.88-30.621,27.88c-9.779,0-22.227-4.581-30.985-24.027l9.263-19.77l42.584-90.83
		c10.042-21.439,40.531-21.439,50.583,0l35.111,74.893L254.113,200.737z"/>
</g>
<path style="fill:#60DC4D;" d="M246.195,183.849c-18.354,21.641,0.738,59.269-22.288,59.269c-24.27,0-12.135-55.75-38.124-55.75
	c-41.562,0-20.528,41.047-46.143,41.047c-11.548,0-18.061-13.976-21.722-28.629l42.584-90.83c10.042-21.439,40.531-21.439,50.583,0
	L246.195,183.849z"/>
<g>
	<path style="fill:#8B5016;" d="M92.45,377.546c-0.656,0-1.322-0.085-1.986-0.261c-4.125-1.094-6.581-5.324-5.487-9.449
		l25.474-96.033c1.094-4.125,5.325-6.578,9.449-5.487c4.125,1.094,6.581,5.324,5.487,9.449l-25.474,96.033
		C98.995,375.26,95.868,377.546,92.45,377.546z"/>
	<path style="fill:#8B5016;" d="M231.83,319.512c-3.536,0-6.725-2.443-7.532-6.036l-6.919-30.825
		c-0.934-4.164,1.684-8.297,5.847-9.231c4.164-0.936,8.297,1.685,9.231,5.847l6.919,30.825c0.934,4.164-1.684,8.297-5.847,9.231
		C232.96,319.451,232.39,319.512,231.83,319.512z"/>
	<path style="fill:#8B5016;" d="M203.292,319.974c-4.268,0-7.726-3.459-7.726-7.726v-0.928c0-4.268,3.459-7.726,7.726-7.726
		s7.726,3.459,7.726,7.726v0.928C211.018,316.515,207.559,319.974,203.292,319.974z"/>
</g>
<g>
	<path style="fill:#009900;" d="M347.403,132.507c-4.268,0-7.726-3.459-7.726-7.726v-0.928c0-4.268,3.459-7.726,7.726-7.726
		s7.726,3.459,7.726,7.726v0.928C355.13,129.048,351.671,132.507,347.403,132.507z"/>
	<path style="fill:#009900;" d="M446.261,152.292c-4.268,0-7.726-3.459-7.726-7.726v-0.928c0-4.268,3.459-7.726,7.726-7.726
		s7.726,3.459,7.726,7.726v0.928C453.987,148.833,450.528,152.292,446.261,152.292z"/>
	<path style="fill:#009900;" d="M327.387,144.352c-4.268,0-7.726-3.459-7.726-7.726v-0.928c0-4.268,3.459-7.726,7.726-7.726
		s7.726,3.459,7.726,7.726v0.928C335.114,140.893,331.655,144.352,327.387,144.352z"/>
	<path style="fill:#009900;" d="M71.239,236.605c-4.268,0-7.726-3.459-7.726-7.726v-0.928c0-4.268,3.459-7.726,7.726-7.726
		c4.268,0,7.726,3.459,7.726,7.726v0.928C78.966,233.146,75.507,236.605,71.239,236.605z"/>
	<path style="fill:#009900;" d="M203.292,166.231c-4.268,0-7.726-3.459-7.726-7.726v-0.928c0-4.268,3.459-7.726,7.726-7.726
		s7.726,3.459,7.726,7.726v0.928C211.018,162.773,207.559,166.231,203.292,166.231z"/>
</g>
<path style="fill:#60DC4D;" d="M265.502,421.289c0-13.873-11.246-25.119-25.119-25.119c-6.449,0-12.311,2.451-16.759,6.446
	c-6.763-13.038-20.375-21.953-36.077-21.953c-8.004,0-15.46,2.324-21.75,6.32c-6.532-26.256-30.256-45.716-58.533-45.716
	c-26.39,0-48.807,16.953-56.993,40.557c-3.092-0.753-6.32-1.161-9.644-1.161C18.189,380.663,0,398.852,0,421.289H265.502z"/>
<rect x="303.83" y="382.08" style="fill:#DB9E67;" width="17.595" height="39.2"/>
<circle style="fill:#60DC4D;" cx="311.33" cy="365.84" r="28.14"/>
<rect x="381.54" y="382.08" style="fill:#DB9E67;" width="17.595" height="39.2"/>
<circle style="fill:#60DC4D;" cx="389.03" cy="365.84" r="28.14"/>
<rect x="456.26" y="382.08" style="fill:#DB9E67;" width="17.595" height="39.2"/>
<circle style="fill:#60DC4D;" cx="463.75" cy="365.84" r="28.14"/>
<g>
</g>
<g>
</g>
<g>
</g>
<g>
</g>
<g>
</g>
<g>
</g>
<g>
</g>
<g>
</g>
<g>
</g>
<g>
</g>
<g>
</g>
<g>
</g>
<g>
</g>
<g>
</g>
<g>
</g>
</svg>
