<?xml version="1.0" encoding="iso-8859-1"?>
<!-- Generator: Adobe Illustrator 19.0.0, SVG Export Plug-In . SVG Version: 6.00 Build 0)  -->
<svg version="1.1" id="Capa_1" xmlns="http://www.w3.org/2000/svg"  x="0px" y="0px"
	 viewBox="0 0 512.1 512.1" style="enable-background:new 0 0 512.1 512.1;" xml:space="preserve">
<g>
	<g>
		<path d="M490.388,428.6c-0.2-1.2-25.3-123-31.7-163.6c-7.7-48.2-19.6-91.6-79.4-94.2c4.9-11.6,7.1-26.3,4.9-44.9
			c0-58.2-55.9-125.9-128-125.9s-128.1,67.7-128.1,126c0,18.4,3,33.1,8.7,44.8c-63.1,0.9-75.5,45.1-83.3,94.3
			c-6.4,40.5-31.4,162.3-31.8,164.3c-2.2,17.2,9.4,32.9,26.5,35.7l23.3,3.9c17.1,2.9,33.2-8.2,36.6-24.9l20-85.3v121.3
			c0,17.6,14.4,32,32,32h192c17.6,0,32-14.4,32-32V358.7l20,84.9c3.4,17,19.5,28.1,36.6,25.3l23.3-3.9
			C481.089,462.3,492.689,446.6,490.388,428.6z M256.089,234.7h-10.7c-5.9,0-10.7,4.8-10.7,10.7s4.8,10.7,10.7,10.7h10.7v21.3h-10.7
			c-5.9,0-10.7,4.8-10.7,10.7s4.8,10.7,10.7,10.7h10.7v21.3h-10.7c-5.9,0-10.7,4.8-10.7,10.7s4.8,10.7,10.7,10.7h10.7v21.3h-10.7
			c-5.9,0-10.7,4.8-10.7,10.7s4.8,10.7,10.7,10.7h10.7v21.3h-10.7c-5.9,0-10.7,4.8-10.7,10.7s4.8,10.7,10.7,10.7h10.7v21.2h-10.7
			c-5.9,0-10.7,4.8-10.7,10.7s4.8,10.7,10.7,10.7h10.7v21.3h-96c-5.9,0-10.7-4.8-10.7-10.7V266.8c0-5.4-4.1-10-9.5-10.6
			c-5.4-0.7-10.4,2.9-11.6,8.1l-41.1,175.2c-1.2,5.7-6.5,9.4-12.2,8.4l-23.3-3.8c-5.7-0.9-9.6-6.2-8.9-11.1
			c1-5,25.4-123.5,31.9-164.5c8.4-52.8,19.7-76.4,64.1-76.4h15.4c21.7,16.8,56.4,21.3,101.9,21.3V234.7z M149.388,126
			c0-47.4,47.6-104.6,106.7-104.6c59.1,0,106.7,57.2,106.7,104.5c0,46-9.3,64.2-64,65.2v-25.9c27-8.2,42.7-25,42.7-47.7
			c0-34.5-37.3-74.7-85.3-74.7s-85.3,40.1-85.3,74.7c0,32.9,32.7,53.3,85.3,53.3c7.5,0,14.7-0.4,21.3-1.2v22.5h-21.4
			C173.388,192.1,149.388,177.3,149.388,126z M256.089,149.4c-30.9,0-64-8.4-64-32c0-24,29.5-53.3,64-53.3s64,29.3,64,53.3
			C320.089,141,286.989,149.4,256.089,149.4z M460.489,444.1l-23.3,3.9c-5.8,0.9-11.1-2.8-12.3-8.8l-41.1-174.8
			c-1.2-5.3-6.1-8.7-11.6-8.1c-5.4,0.6-9.4,5.2-9.4,10.6v213.2c0,5.9-4.8,10.7-10.7,10.7h-74.7V213.4h10.7c1.9,0,48.1,3.8,76-21.4
			c0.1,0,0.3,0,0.4,0h8.9c44.5,0,55.7,23.6,64.1,76.3c6.5,41,30.9,159.5,31.8,163.7C470.089,437.9,466.189,443.1,460.489,444.1z"/>
	</g>
</g>
<g>
</g>
<g>
</g>
<g>
</g>
<g>
</g>
<g>
</g>
<g>
</g>
<g>
</g>
<g>
</g>
<g>
</g>
<g>
</g>
<g>
</g>
<g>
</g>
<g>
</g>
<g>
</g>
<g>
</g>
</svg>
