<?xml version="1.0" encoding="iso-8859-1"?>
<!-- Generator: Adobe Illustrator 18.0.0, SVG Export Plug-In . SVG Version: 6.00 Build 0)  -->
<!DOCTYPE svg PUBLIC "-//W3C//DTD SVG 1.1//EN" "http://www.w3.org/Graphics/SVG/1.1/DTD/svg11.dtd">
<svg version="1.1" id="Capa_1" xmlns="http://www.w3.org/2000/svg"  x="0px" y="0px"
	 viewBox="0 0 298.295 298.295" style="enable-background:new 0 0 298.295 298.295;" xml:space="preserve">
<g>
	<path d="M149.147,0C74.609,0,13.968,60.642,13.968,135.18v130.574c0,17.943,14.598,32.541,32.541,32.541h205.275
		c17.943,0,32.542-14.598,32.542-32.541V135.18C284.327,60.642,223.685,0,149.147,0z M38.968,135.18
		C38.968,74.427,88.394,25,149.147,25s110.18,49.427,110.18,110.18v9.717h-6.546v40.788c0,23.687-19.27,42.956-42.955,42.956
		h-34.113v17.071c0,4.143-3.357,7.5-7.5,7.5h-32.131c-4.143,0-7.5-3.357-7.5-7.5v-17.071H88.469
		c-23.687,0-42.956-19.27-42.956-42.956v-40.788h-6.545V135.18z"/>
	<path d="M88.469,213.641h40.112v-15.3c0-4.143,3.357-7.5,7.5-7.5h32.131c4.143,0,7.5,3.357,7.5,7.5v15.3h34.113
		c15.414,0,27.955-12.541,27.955-27.956v-40.788H60.513v40.788C60.513,201.1,73.054,213.641,88.469,213.641z"/>
	<rect x="143.582" y="205.841" width="17.131" height="32.371"/>
</g>
<g>
</g>
<g>
</g>
<g>
</g>
<g>
</g>
<g>
</g>
<g>
</g>
<g>
</g>
<g>
</g>
<g>
</g>
<g>
</g>
<g>
</g>
<g>
</g>
<g>
</g>
<g>
</g>
<g>
</g>
</svg>
