<?xml version="1.0" encoding="iso-8859-1"?>
<!-- Generator: Adobe Illustrator 18.0.0, SVG Export Plug-In . SVG Version: 6.00 Build 0)  -->
<!DOCTYPE svg PUBLIC "-//W3C//DTD SVG 1.1//EN" "http://www.w3.org/Graphics/SVG/1.1/DTD/svg11.dtd">
<svg version="1.1" id="Capa_1" xmlns="http://www.w3.org/2000/svg"  x="0px" y="0px"
	 viewBox="0 0 306.859 306.859" style="enable-background:new 0 0 306.859 306.859;" xml:space="preserve">
<path d="M306.399,206.927L240.572,46.079c-4.674-11.422-15.791-18.883-28.132-18.883l-13.529,0
	c0,25.118-20.363,45.481-45.481,45.481s-45.481-20.362-45.481-45.481l-13.528,0c-12.341,0-23.457,7.462-28.131,18.883L0.46,206.927
	c-1.216,2.97,0.057,6.377,2.922,7.822l26.456,13.347c1.549,0.781,3.356,0.872,4.975,0.251c1.62-0.622,2.902-1.898,3.53-3.515
	l42.879-110.366l-0.205,159.037c-0.002,1.633,0.645,3.2,1.799,4.355c1.154,1.155,2.72,1.805,4.353,1.805h132.618
	c1.633,0,3.199-0.65,4.353-1.805c1.154-1.156,1.801-2.723,1.799-4.356l-0.247-158.925l42.824,110.255
	c0.628,1.617,1.91,2.894,3.53,3.516c1.62,0.622,3.427,0.531,4.976-0.251l26.455-13.347
	C306.343,213.304,307.615,209.898,306.399,206.927z M153.429,244.422c-3.833,0-6.941-3.108-6.941-6.941
	c0-3.833,3.108-6.941,6.941-6.941c3.833,0,6.941,3.107,6.941,6.941C160.37,241.315,157.263,244.422,153.429,244.422z
	 M153.429,201.737c-3.833,0-6.941-3.107-6.941-6.941c0-3.833,3.108-6.941,6.941-6.941c3.833,0,6.941,3.107,6.941,6.941
	C160.37,198.63,157.263,201.737,153.429,201.737z M153.429,159.053c-3.833,0-6.941-3.107-6.941-6.941
	c0-3.833,3.108-6.941,6.941-6.941c3.833,0,6.941,3.107,6.941,6.941C160.37,155.945,157.263,159.053,153.429,159.053z
	 M153.429,119.491c-3.833,0-6.941-3.107-6.941-6.941c0-3.833,3.108-6.941,6.941-6.941c3.833,0,6.941,3.108,6.941,6.941
	C160.37,116.384,157.263,119.491,153.429,119.491z"/>
<g>
</g>
<g>
</g>
<g>
</g>
<g>
</g>
<g>
</g>
<g>
</g>
<g>
</g>
<g>
</g>
<g>
</g>
<g>
</g>
<g>
</g>
<g>
</g>
<g>
</g>
<g>
</g>
<g>
</g>
</svg>
