<?xml version="1.0" encoding="iso-8859-1"?>
<!-- Generator: Adobe Illustrator 18.0.0, SVG Export Plug-In . SVG Version: 6.00 Build 0)  -->
<!DOCTYPE svg PUBLIC "-//W3C//DTD SVG 1.1//EN" "http://www.w3.org/Graphics/SVG/1.1/DTD/svg11.dtd">
<svg version="1.1" id="Capa_1" xmlns="http://www.w3.org/2000/svg"  x="0px" y="0px"
	 viewBox="0 0 288.875 288.875" style="enable-background:new 0 0 288.875 288.875;" xml:space="preserve">
<g>
	<path d="M144.437,74.322c5.287-0.044,11.85-6.325,17.14-16.406c6.664-12.7,10.833-29.802,11.888-48.523
		c-7.028,4.699-17.416,7.679-29.028,7.679c-11.612,0-22-2.98-29.028-7.679c1.056,18.728,5.226,35.826,11.888,48.523
		C132.587,67.997,139.15,74.277,144.437,74.322z"/>
	<path d="M252.615,102.224c-10.591-6.128-40.209-29.294-40.292-96.767C212.319,2.422,209.763,0,206.73,0l-12.484,0
		c-3.034,0-5.505,2.404-5.593,5.427c-1.394,46.756-20.652,83.833-44.217,83.895v0c-23.565-0.062-42.823-37.139-44.217-83.895
		C100.133,2.404,97.662,0,94.628,0H82.144c-3.033,0-5.589,2.422-5.593,5.457C76.468,72.93,46.85,96.096,36.259,102.224
		c-2.248,1.3-3.574,3.756-3.434,6.349c1.342,24.724,7.034,144.246,8.402,173.725c0.171,3.678,3.201,6.577,6.883,6.577h96.326v0
		l96.326,0c3.687,0,6.713-2.894,6.883-6.577c1.368-29.479,7.06-149.001,8.402-173.725
		C256.189,105.982,254.861,103.523,252.615,102.224z"/>
</g>
<g>
</g>
<g>
</g>
<g>
</g>
<g>
</g>
<g>
</g>
<g>
</g>
<g>
</g>
<g>
</g>
<g>
</g>
<g>
</g>
<g>
</g>
<g>
</g>
<g>
</g>
<g>
</g>
<g>
</g>
</svg>
